<svg width="84" height="92" viewBox="0 0 84 92" fill="none" xmlns="http://www.w3.org/2000/svg">
<path d="M62.3445 76.2152C72.5228 61.9531 74.9102 37.4657 67.6064 21.5387C63.9624 13.5438 58.5905 9.22434 52.8731 8.6903L46.8887 8.15625L48.0354 9.14581C43.8573 10.2767 39.6792 13.371 36.0351 18.5701C25.8726 32.8321 23.4695 57.3038 30.7733 73.2465C32.6259 77.9016 35.9311 81.8348 40.1975 84.4614L39.3022 85.5295L45.3809 86.0793H45.4594H45.695C51.381 86.4562 57.3497 83.1734 62.3445 76.2152Z" fill="#FFE879"/>
<path d="M65.4911 48.9573C67.5435 27.6029 59.2113 9.33109 46.8805 8.14594C34.5497 6.96079 22.8898 23.3111 20.8374 44.6655C18.7849 66.0199 27.1172 84.2918 39.448 85.477C51.7788 86.6621 63.4387 70.3117 65.4911 48.9573Z" fill="url(#paint0_linear)"/>
<g filter="url(#filter0_d)">
<path d="M40.8518 60.2099C39.2415 59.7784 38.1885 59.0133 37.7006 57.8858C37.2127 56.7583 37.117 55.6897 37.4047 54.6159C37.5062 54.2372 37.6562 53.9178 37.867 53.6917C38.0578 53.4602 38.2906 53.2965 38.5495 53.2117C38.8083 53.127 39.1104 53.1052 39.4309 53.191C39.7513 53.2769 40.0085 53.4229 40.1838 53.6497C40.3656 53.8525 40.4853 54.1107 40.5349 54.4065C40.5844 54.7024 40.5759 55.0546 40.4731 55.4381C40.346 55.9127 40.1431 56.2693 39.887 56.5039C39.6297 56.7432 39.3368 56.8908 39.0508 56.9169C39.176 57.3306 39.4619 57.6898 39.8936 57.9853C40.3254 58.2808 40.7828 58.4805 41.2635 58.6093C41.9405 58.7907 42.5951 58.7349 43.2462 58.4521C43.8973 58.1693 44.466 57.6332 44.9499 56.8688C45.4337 56.1045 45.8042 55.1865 46.0919 54.1127C46.4041 52.9478 46.5259 51.9324 46.4666 51.0482C46.4097 50.1389 46.1788 49.4143 45.7435 48.8918C45.3146 48.3453 44.7892 47.999 44.1522 47.8283C43.7356 47.7167 43.1811 47.7993 42.4563 48.0367L41.1626 48.3785L41.3411 47.7122L48.5806 40.9793L41.5625 39.0988L39.3108 47.5021C39.1259 48.1924 39.0932 48.795 39.2275 49.3191C39.3672 49.8395 39.706 50.1615 40.2227 50.2999C40.6393 50.4116 41.0648 50.3458 41.53 50.1159C41.9964 49.8812 42.4248 49.5644 42.8219 49.1879C42.8877 49.1027 42.947 49.0416 42.9935 49.0283C43.0664 48.9965 43.1129 48.9833 43.173 48.9994C43.2731 49.0262 43.3604 49.101 43.4645 49.2573C43.5397 49.4573 43.5497 49.6603 43.4919 49.876C43.4662 49.9719 43.3876 50.105 43.3175 50.2866C42.8265 50.9976 42.2706 51.4858 41.646 51.75C41.0213 52.0142 40.4067 52.0807 39.7898 51.9154C38.2596 51.5054 37.3172 50.8727 36.9117 49.9985C36.5263 49.1297 36.4919 48.0723 36.8168 46.8595L39.0749 38.4322L35.4937 37.4727L35.915 35.9003L39.5162 36.8653L40.4732 33.294L39.918 32.0971L40.1351 31.287L42.5225 31.9267L43.2694 32.7125L41.9862 37.5014L51.282 39.9665L51.9025 41.3042L44.3867 46.6169C44.7681 46.5393 45.1543 46.54 45.5437 46.593C46.1606 46.7583 46.7934 47.1847 47.4193 47.8611C48.0757 48.5199 48.5004 49.3222 48.6999 50.244C48.8995 51.1657 48.9757 52.0031 48.898 52.7735C48.8204 53.5439 48.7284 54.2077 48.5691 54.8021C48.2185 56.1108 47.6531 57.2592 46.8959 58.2586C46.14 59.2531 45.2131 59.9244 44.1132 60.2155C43.0295 60.5108 41.9454 60.5029 40.8518 60.2099Z" fill="white"/>
</g>
<defs>
<filter id="filter0_d" x="0.168457" y="0.541016" width="83.7146" height="91.2359" filterUnits="userSpaceOnUse" color-interpolation-filters="sRGB">
<feFlood flood-opacity="0" result="BackgroundImageFix"/>
<feColorMatrix in="SourceAlpha" type="matrix" values="0 0 0 0 0 0 0 0 0 0 0 0 0 0 0 0 0 0 127 0"/>
<feOffset/>
<feGaussianBlur stdDeviation="15"/>
<feColorMatrix type="matrix" values="0 0 0 0 0 0 0 0 0 0 0 0 0 0 0 0 0 0 0.2 0"/>
<feBlend mode="normal" in2="BackgroundImageFix" result="effect1_dropShadow"/>
<feBlend mode="normal" in="SourceGraphic" in2="effect1_dropShadow" result="shape"/>
</filter>
<linearGradient id="paint0_linear" x1="17.1211" y1="83.3311" x2="37.33" y2="2.33799" gradientUnits="userSpaceOnUse">
<stop stop-color="#D1AD0C"/>
<stop offset="1" stop-color="#F5CD06"/>
</linearGradient>
</defs>
</svg>
