<svg width="581" height="506" viewBox="0 0 581 506" fill="none" xmlns="http://www.w3.org/2000/svg">
<path d="M200.995 504.996C196.199 505.113 191.452 504.014 187.196 501.802L5.63795 397.027C2.01074 394.918 0 392 0 388.787C0 384.845 2.87811 381.06 7.88524 378.162L353.949 178.409C363.372 172.968 377.604 172.396 385.825 177.108L567.304 281.883C570.95 283.992 572.941 286.91 572.941 290.123C572.941 294.066 570.063 297.831 565.056 300.748L218.993 500.501C213.47 503.497 207.278 505.043 200.995 504.996V504.996ZM187.511 501.053C195.396 505.627 209.412 504.996 218.618 499.732L564.741 299.98C569.511 297.22 572.252 293.612 572.252 290.123C572.252 287.206 570.379 284.525 566.988 282.553L385.49 177.699C377.604 173.126 363.588 173.757 354.402 179L8.29921 378.852C3.50893 381.592 0.788519 385.219 0.788519 388.708C0.904288 390.322 1.45227 391.874 2.37493 393.202C3.29759 394.531 4.56088 395.587 6.0322 396.258L187.511 501.053Z" fill="#7CF1F5"/>
<path d="M572.645 241.648L546.565 246.123L385.706 153.254C377.643 148.602 363.549 149.174 354.165 154.555L46.4239 332.17L0.334717 340.056V356.398C0.334717 359.374 2.06947 362.312 5.75582 364.283L187.235 469.058C195.317 473.73 209.412 473.139 218.776 467.757L564.878 268.103C569.886 265.205 572.468 261.499 572.547 257.99L572.645 241.648Z" fill="url(#paint0_linear)"/>
<path d="M187.314 452.791L5.83513 347.937C-2.22752 343.284 -1.22215 335.143 8.10214 329.761L354.225 129.989C363.549 124.607 377.644 124.075 385.766 128.688L567.244 233.463C575.327 238.135 574.302 246.256 564.997 251.638L218.796 451.49C209.491 456.851 195.396 457.443 187.314 452.791Z" fill="url(#paint1_linear)"/>
<path d="M564.879 251.641L218.795 451.493C209.491 456.855 195.396 457.407 187.254 452.794L5.83481 347.94C4.47049 347.288 3.27717 346.326 2.34975 345.132C1.42233 343.937 0.786406 342.543 0.492557 341.06C-0.0199833 344.411 1.73448 347.703 5.83481 350.069L187.314 454.844C195.396 459.516 209.491 458.924 218.855 453.543L564.879 253.77C570.457 250.537 573.02 246.338 572.488 242.475C572.054 245.708 569.491 249 564.879 251.641Z" fill="white"/>
<path opacity="0.51" d="M187.668 448.734L12.6553 347.665C4.77005 343.151 5.83456 335.266 14.8434 330.062L354.559 133.995C363.568 128.791 377.21 128.219 385.016 132.734L560.029 233.803C567.914 238.317 566.869 246.182 557.841 251.387L218.145 447.473C209.136 452.677 195.494 453.229 187.668 448.734Z" fill="url(#paint2_linear)"/>
<path style="mix-blend-mode:lighten" opacity="0.5" d="M187.668 444.219L12.6553 343.15C4.77005 338.636 5.83456 330.75 14.8434 325.546L354.559 129.48C363.568 124.275 377.21 123.704 385.016 128.218L560.029 229.287C567.914 233.801 566.869 241.667 557.841 246.871L218.145 442.957C209.136 448.162 195.494 448.733 187.668 444.219Z" fill="url(#paint3_radial)"/>
<path style="mix-blend-mode:lighten" opacity="0.8" d="M200.896 447.808C196.205 447.936 191.559 446.871 187.393 444.713L12.3797 343.624C10.8063 342.898 9.45886 341.76 8.48014 340.33C7.50142 338.9 6.92795 337.232 6.82056 335.502C6.82056 331.718 9.63953 327.913 14.5678 325.074L354.264 128.988C363.431 123.705 377.348 123.074 385.292 127.726L560.325 228.795C561.894 229.531 563.235 230.675 564.21 232.107C565.185 233.54 565.756 235.208 565.864 236.937C565.864 240.722 563.045 244.526 558.137 247.365L218.421 443.451C213.044 446.367 207.013 447.867 200.896 447.808V447.808ZM187.964 443.727C195.593 448.143 209.018 447.67 217.869 442.466L557.565 246.399C562.119 243.758 564.741 240.308 564.741 236.937C564.626 235.407 564.102 233.936 563.225 232.678C562.348 231.419 561.149 230.419 559.753 229.781L384.74 128.712C377.092 124.296 363.687 124.769 354.836 129.974L15.1395 326.04C10.566 328.682 7.96392 332.132 7.96392 335.502C8.07133 337.029 8.58731 338.499 9.45782 339.758C10.3283 341.017 11.5213 342.019 12.9119 342.658L187.964 443.727Z" fill="url(#paint4_linear)"/>
<path d="M200.896 447.628C196.239 447.765 191.623 446.707 187.491 444.553L12.4588 343.484C10.9185 342.762 9.59955 341.641 8.63925 340.237C7.67895 338.833 7.11232 337.197 6.99829 335.5C6.99829 331.774 9.79755 328.029 14.647 325.21L354.363 129.123C363.47 123.86 377.309 123.21 385.214 127.862L560.227 228.931C561.773 229.646 563.098 230.765 564.063 232.17C565.027 233.575 565.595 235.214 565.707 236.915C565.707 240.64 562.908 244.386 558.039 247.205L218.342 443.291C212.99 446.195 206.986 447.688 200.896 447.628ZM187.866 443.883C195.554 448.318 209.058 447.825 217.948 442.621L557.644 246.535C562.277 243.873 564.918 240.364 564.918 236.934C564.805 235.371 564.273 233.867 563.378 232.58C562.483 231.294 561.258 230.271 559.832 229.621L384.82 128.552C377.131 124.116 363.648 124.609 354.757 129.813L15.0412 325.9C10.4284 328.561 7.78682 332.05 7.78682 335.5C7.8977 337.059 8.42676 338.559 9.31832 339.843C10.2099 341.126 11.431 342.146 12.8531 342.794L187.866 443.883Z" fill="#42E8E0"/>
<path d="M22.7698 348.866C22.6997 348.863 22.6316 348.841 22.5727 348.803C22.5138 348.765 22.4661 348.712 22.4346 348.649C22.3854 348.557 22.3744 348.45 22.4039 348.35C22.4335 348.251 22.5012 348.167 22.5923 348.117C30.3593 343.859 37.2589 334.318 39.7427 324.461L71.4414 198.455C75.384 182.98 87.5667 172.296 96.5756 172.039C101.149 171.882 104.461 174.523 106.097 179.412L115.066 207.799C115.416 209.158 116.072 210.419 116.984 211.485C117.897 212.551 119.041 213.394 120.33 213.949C123.385 215.152 127.289 214.541 131.35 212.254L137.756 208.646C144.991 204.546 151.654 195.577 154.315 186.331C158.573 171.566 170.086 161.769 178.523 161.138C180.521 160.928 182.532 161.374 184.254 162.409C185.975 163.444 187.313 165.012 188.064 166.874L197.921 188.381C198.396 189.509 199.106 190.523 200.003 191.356C200.901 192.189 201.965 192.821 203.125 193.211C204.913 193.636 206.77 193.691 208.58 193.372C210.39 193.054 212.116 192.368 213.652 191.358L220.965 187.199C228.712 182.822 235.711 172.946 237.997 163.168L269.755 27.0297C273.323 11.7324 285.762 0.535317 294.712 0.0227768C296.868 -0.128301 299.009 0.475666 300.768 1.73104C302.527 2.98641 303.794 4.81489 304.352 6.90264L352.728 142.923C353.124 144.21 353.802 145.393 354.712 146.385C355.623 147.377 356.743 148.154 357.991 148.66C359.823 149.171 361.743 149.281 363.621 148.981C365.499 148.682 367.291 147.98 368.873 146.925L393.613 132.928C393.656 132.892 393.708 132.865 393.763 132.85C393.819 132.835 393.876 132.832 393.933 132.842C393.989 132.852 394.043 132.874 394.09 132.906C394.137 132.939 394.177 132.981 394.206 133.031C394.235 133.08 394.253 133.135 394.259 133.192C394.264 133.249 394.257 133.307 394.238 133.361C394.219 133.415 394.189 133.464 394.149 133.505C394.109 133.546 394.06 133.578 394.007 133.599L369.247 147.595C367.573 148.718 365.673 149.461 363.68 149.771C361.688 150.081 359.652 149.951 357.715 149.389C356.357 148.849 355.139 148.011 354.149 146.936C353.159 145.861 352.424 144.577 351.998 143.179L303.603 7.15891C303.11 5.21685 301.944 3.51276 300.312 2.35026C298.68 1.18777 296.689 0.64239 294.692 0.811304C286.038 1.30413 273.954 12.2646 270.465 27.2071L238.687 163.346C236.322 173.478 229.343 183.335 221.3 187.889L213.967 192.028C212.341 193.103 210.512 193.833 208.593 194.172C206.674 194.511 204.705 194.453 202.81 194C201.549 193.571 200.393 192.88 199.418 191.973C198.443 191.066 197.67 189.963 197.152 188.736L187.295 167.249C186.618 165.525 185.392 164.071 183.807 163.113C182.221 162.154 180.365 161.744 178.523 161.946C170.441 162.557 159.165 172.158 155.005 186.588C152.285 196.01 145.484 205.157 138.072 209.356L131.665 212.983C127.407 215.388 123.267 215.999 119.975 214.718C118.579 214.119 117.339 213.209 116.348 212.058C115.357 210.907 114.642 209.544 114.258 208.075L105.309 179.688C103.85 175.095 100.774 172.709 96.5362 172.847C88.0004 173.104 75.8769 183.769 72.1314 198.691L40.3933 324.698C37.87 334.771 30.8127 344.411 22.8683 348.807C22.8391 348.832 22.8058 348.852 22.7698 348.866Z" fill="#42E8E0"/>
<path d="M49.3219 364.5C49.2371 364.497 49.1552 364.468 49.0885 364.415C49.0218 364.363 48.9738 364.29 48.9516 364.208C48.9295 364.126 48.9344 364.04 48.9656 363.961C48.9968 363.882 49.0526 363.815 49.1248 363.77C56.9115 359.493 63.7913 349.971 66.2752 340.115L97.9738 214.108C101.916 198.634 114.119 187.949 123.108 187.693C127.701 187.515 131.112 190.177 132.649 195.066L141.599 223.452C141.953 224.831 142.621 226.109 143.552 227.186C144.482 228.263 145.649 229.111 146.961 229.662C150.016 230.865 153.939 230.253 157.98 227.967L164.387 224.359C171.642 220.259 178.285 211.289 180.966 202.044C185.204 187.299 196.835 177.482 205.154 176.851C207.153 176.634 209.167 177.077 210.89 178.113C212.613 179.149 213.949 180.72 214.695 182.587L224.552 204.094C225.026 205.219 225.733 206.232 226.627 207.064C227.521 207.896 228.58 208.53 229.736 208.924C231.524 209.35 233.381 209.405 235.191 209.087C237.002 208.768 238.728 208.082 240.263 207.071L247.596 202.911C255.344 198.535 262.342 188.659 264.609 178.881L296.386 42.7425C299.954 27.4648 312.393 16.2481 321.323 15.7355H321.993C324.05 15.7233 326.052 16.3941 327.686 17.6429C329.321 18.8916 330.494 20.6475 331.022 22.6351L379.418 158.655C379.811 159.941 380.485 161.123 381.392 162.115C382.299 163.108 383.416 163.885 384.661 164.392C386.493 164.903 388.414 165.013 390.292 164.714C392.17 164.414 393.961 163.713 395.543 162.657L420.52 148.543C420.608 148.493 420.713 148.481 420.811 148.508C420.909 148.536 420.992 148.602 421.042 148.691C421.092 148.779 421.104 148.884 421.076 148.982C421.048 149.08 420.983 149.163 420.894 149.213L395.937 163.328C391.738 165.693 387.638 166.344 384.405 165.121C383.045 164.585 381.824 163.748 380.834 162.673C379.844 161.597 379.11 160.311 378.688 158.912L330.293 22.8322C329.8 20.8902 328.634 19.1861 327.002 18.0236C325.37 16.8611 323.379 16.3157 321.382 16.4846C312.709 16.9774 300.624 27.9379 297.155 42.8805L265.377 179.019C263.012 189.152 256.014 199.008 247.991 203.562L240.657 207.702C239.031 208.775 237.201 209.503 235.282 209.842C233.363 210.181 231.395 210.124 229.5 209.673C228.241 209.245 227.087 208.557 226.112 207.654C225.137 206.75 224.364 205.652 223.842 204.429L213.985 182.922C213.308 181.198 212.082 179.744 210.497 178.786C208.911 177.828 207.055 177.418 205.213 177.62C197.15 178.231 185.875 187.831 181.715 202.261C178.995 211.684 172.194 220.85 164.782 225.029L158.375 228.657C154.117 231.062 149.957 231.673 146.685 230.391C145.268 229.806 144.005 228.902 142.993 227.75C141.981 226.598 141.248 225.229 140.85 223.748L131.9 195.361C130.461 190.768 127.386 188.363 123.128 188.521C114.612 188.777 102.488 199.462 98.7426 214.365L67.044 340.331C64.501 350.405 57.4634 360.045 49.519 364.441L49.3219 364.5Z" fill="#42E8E0"/>
<path d="M326.566 17.7042C326.502 17.7218 326.434 17.7218 326.369 17.7042L299.5 1.93368C299.416 1.87723 299.356 1.79186 299.33 1.69376C299.305 1.59567 299.316 1.49165 299.362 1.40142C299.387 1.35593 299.42 1.31599 299.461 1.28409C299.502 1.2522 299.548 1.22906 299.598 1.2161C299.648 1.20314 299.7 1.20064 299.751 1.20879C299.802 1.21693 299.851 1.23554 299.895 1.26343L326.763 17.0339C326.809 17.0583 326.849 17.0919 326.881 17.1325C326.913 17.1731 326.936 17.2199 326.949 17.2699C326.962 17.3199 326.964 17.372 326.956 17.423C326.948 17.4739 326.929 17.5227 326.901 17.5662C326.862 17.6156 326.81 17.6543 326.752 17.6784C326.693 17.7025 326.629 17.7114 326.566 17.7042V17.7042Z" fill="#42E8E0"/>
<path d="M211.186 179.194C211.121 179.212 211.053 179.212 210.989 179.194L183.804 163.207C183.72 163.15 183.66 163.065 183.634 162.967C183.609 162.869 183.62 162.765 183.666 162.674C183.691 162.629 183.724 162.589 183.765 162.557C183.806 162.525 183.852 162.502 183.902 162.489C183.952 162.476 184.005 162.474 184.056 162.482C184.107 162.49 184.155 162.508 184.199 162.536L211.383 178.405C211.429 178.43 211.469 178.463 211.5 178.504C211.532 178.545 211.555 178.591 211.568 178.641C211.581 178.691 211.584 178.743 211.576 178.794C211.568 178.845 211.549 178.894 211.521 178.938C211.497 179.009 211.453 179.072 211.393 179.117C211.333 179.163 211.261 179.19 211.186 179.194Z" fill="#42E8E0"/>
<path d="M128.726 190.233C128.662 190.251 128.594 190.251 128.529 190.233L100.201 173.635C100.156 173.611 100.116 173.577 100.084 173.536C100.052 173.496 100.029 173.449 100.016 173.399C100.003 173.349 100.001 173.297 100.009 173.246C100.017 173.195 100.036 173.146 100.063 173.103C100.117 173.015 100.202 172.951 100.302 172.926C100.401 172.9 100.507 172.914 100.596 172.965L128.923 189.563C128.969 189.588 129.009 189.621 129.041 189.662C129.073 189.702 129.096 189.749 129.109 189.799C129.122 189.849 129.124 189.901 129.116 189.952C129.108 190.003 129.089 190.052 129.061 190.095C129.02 190.142 128.968 190.179 128.91 190.203C128.852 190.227 128.789 190.237 128.726 190.233Z" fill="#42E8E0"/>
<path d="M22.7698 348.866C22.6997 348.863 22.6316 348.841 22.5727 348.803C22.5138 348.765 22.4661 348.712 22.4346 348.649C22.3854 348.557 22.3744 348.45 22.4039 348.35C22.4335 348.251 22.5012 348.167 22.5923 348.117C30.3593 343.859 37.2589 334.318 39.7427 324.461L71.4414 198.455C75.384 182.98 87.5667 172.296 96.5756 172.039C101.149 171.882 104.461 174.523 106.097 179.412L115.066 207.799C115.416 209.158 116.072 210.419 116.984 211.485C117.897 212.551 119.041 213.394 120.33 213.949C123.385 215.152 127.289 214.541 131.35 212.254L137.756 208.646C144.991 204.546 151.654 195.577 154.315 186.331C158.573 171.566 170.086 161.769 178.523 161.138C180.521 160.928 182.532 161.374 184.254 162.409C185.975 163.444 187.313 165.012 188.064 166.874L197.921 188.381C198.396 189.509 199.106 190.523 200.003 191.356C200.901 192.189 201.965 192.821 203.125 193.211C204.913 193.636 206.77 193.691 208.58 193.372C210.39 193.054 212.116 192.368 213.652 191.358L220.965 187.199C228.712 182.822 235.711 172.946 237.997 163.168L269.755 27.0297C273.323 11.7324 285.762 0.535317 294.712 0.0227768C296.868 -0.128301 299.009 0.475666 300.768 1.73104C302.527 2.98641 303.794 4.81489 304.352 6.90264L352.728 142.923C353.124 144.21 353.802 145.393 354.712 146.385C355.623 147.377 356.743 148.154 357.991 148.66C359.823 149.171 361.743 149.281 363.621 148.981C365.499 148.682 367.291 147.98 368.873 146.925L393.613 132.928C393.656 132.892 393.708 132.865 393.763 132.85C393.819 132.835 393.876 132.832 393.933 132.842C393.989 132.852 394.043 132.874 394.09 132.906C394.137 132.939 394.177 132.981 394.206 133.031C394.235 133.08 394.253 133.135 394.259 133.192C394.264 133.249 394.257 133.307 394.238 133.361C394.219 133.415 394.189 133.464 394.149 133.505C394.109 133.546 394.06 133.578 394.007 133.599L369.247 147.595C367.573 148.718 365.673 149.461 363.68 149.771C361.688 150.081 359.652 149.951 357.715 149.389C356.357 148.849 355.139 148.011 354.149 146.936C353.159 145.861 352.424 144.577 351.998 143.179L303.603 7.15891C303.11 5.21685 301.944 3.51276 300.312 2.35026C298.68 1.18777 296.689 0.64239 294.692 0.811304C286.038 1.30413 273.954 12.2646 270.465 27.2071L238.687 163.346C236.322 173.478 229.343 183.335 221.3 187.889L213.967 192.028C212.341 193.103 210.512 193.833 208.593 194.172C206.674 194.511 204.705 194.453 202.81 194C201.549 193.571 200.393 192.88 199.418 191.973C198.443 191.066 197.67 189.963 197.152 188.736L187.295 167.249C186.618 165.525 185.392 164.071 183.807 163.113C182.221 162.154 180.365 161.744 178.523 161.946C170.441 162.557 159.165 172.158 155.005 186.588C152.285 196.01 145.484 205.157 138.072 209.356L131.665 212.983C127.407 215.388 123.267 215.999 119.975 214.718C118.579 214.119 117.339 213.209 116.348 212.058C115.357 210.907 114.642 209.544 114.258 208.075L105.309 179.688C103.85 175.095 100.774 172.709 96.5362 172.847C88.0004 173.104 75.8769 183.769 72.1314 198.691L40.3933 324.698C37.87 334.771 30.8127 344.411 22.8683 348.807C22.8391 348.832 22.8058 348.852 22.7698 348.866Z" fill="#42E8E0"/>
<path d="M49.3219 364.5C49.2371 364.497 49.1552 364.468 49.0885 364.415C49.0218 364.363 48.9738 364.29 48.9516 364.208C48.9295 364.126 48.9344 364.04 48.9656 363.961C48.9968 363.882 49.0526 363.815 49.1248 363.77C56.9115 359.493 63.7913 349.971 66.2752 340.115L97.9738 214.108C101.916 198.634 114.119 187.949 123.108 187.693C127.701 187.515 131.112 190.177 132.649 195.066L141.599 223.452C141.953 224.831 142.621 226.109 143.552 227.186C144.482 228.263 145.649 229.111 146.961 229.662C150.016 230.865 153.939 230.253 157.98 227.967L164.387 224.359C171.642 220.259 178.285 211.289 180.966 202.044C185.204 187.299 196.835 177.482 205.154 176.851C207.153 176.634 209.167 177.077 210.89 178.113C212.613 179.149 213.949 180.72 214.695 182.587L224.552 204.094C225.026 205.219 225.733 206.232 226.627 207.064C227.521 207.896 228.58 208.53 229.736 208.924C231.524 209.35 233.381 209.405 235.191 209.087C237.002 208.768 238.728 208.082 240.263 207.071L247.596 202.911C255.344 198.535 262.342 188.659 264.609 178.881L296.386 42.7425C299.954 27.4648 312.393 16.2481 321.323 15.7355H321.993C324.05 15.7233 326.052 16.3941 327.686 17.6429C329.321 18.8916 330.494 20.6475 331.022 22.6351L379.418 158.655C379.811 159.941 380.485 161.123 381.392 162.115C382.299 163.108 383.416 163.885 384.661 164.392C386.493 164.903 388.414 165.013 390.292 164.714C392.17 164.414 393.961 163.713 395.543 162.657L420.52 148.543C420.608 148.493 420.713 148.481 420.811 148.508C420.909 148.536 420.992 148.602 421.042 148.691C421.092 148.779 421.104 148.884 421.076 148.982C421.048 149.08 420.983 149.163 420.894 149.213L395.937 163.328C391.738 165.693 387.638 166.344 384.405 165.121C383.045 164.585 381.824 163.748 380.834 162.673C379.844 161.597 379.11 160.311 378.688 158.912L330.293 22.8322C329.8 20.8902 328.634 19.1861 327.002 18.0236C325.37 16.8611 323.379 16.3157 321.382 16.4846C312.709 16.9774 300.624 27.9379 297.155 42.8805L265.377 179.019C263.012 189.152 256.014 199.008 247.991 203.562L240.657 207.702C239.031 208.775 237.201 209.503 235.282 209.842C233.363 210.181 231.395 210.124 229.5 209.673C228.241 209.245 227.087 208.557 226.112 207.654C225.137 206.75 224.364 205.652 223.842 204.429L213.985 182.922C213.308 181.198 212.082 179.744 210.497 178.786C208.911 177.828 207.055 177.418 205.213 177.62C197.15 178.231 185.875 187.831 181.715 202.261C178.995 211.684 172.194 220.85 164.782 225.029L158.375 228.657C154.117 231.062 149.957 231.673 146.685 230.391C145.268 229.806 144.005 228.902 142.993 227.75C141.981 226.598 141.248 225.229 140.85 223.748L131.9 195.361C130.461 190.768 127.386 188.363 123.128 188.521C114.612 188.777 102.488 199.462 98.7426 214.365L67.044 340.331C64.501 350.405 57.4634 360.045 49.519 364.441L49.3219 364.5Z" fill="#42E8E0"/>
<g style="mix-blend-mode:lighten" opacity="0.5">
<path d="M393.809 133.284L369.049 147.28C361.479 151.558 354.777 149.882 352.372 143.062L303.976 7.04125C298.456 -8.49267 275.175 5.28678 270.089 27.1092L238.312 163.248C235.986 173.104 228.987 183.079 221.102 187.554L213.769 191.694C206.653 195.636 200.246 194.473 197.506 188.54L187.649 167.033C181.499 153.707 160.504 166.047 154.63 186.43C151.929 195.834 145.266 204.803 137.874 208.982L131.486 212.609C123.7 216.986 116.899 215.093 114.632 207.918L105.564 179.57C100.517 163.544 77.1769 176.633 71.6572 198.593L40.0177 324.6C37.5141 334.456 30.4963 344.194 22.6702 348.472L393.809 133.284Z" fill="#333943"/>
</g>
<g style="mix-blend-mode:lighten" opacity="0.5">
<path d="M420.973 148.266L395.759 162.519C388.19 166.816 381.487 165.121 379.063 158.32L330.687 22.2993C325.167 6.76535 301.886 20.5645 296.78 42.3869L265.022 178.526C262.696 188.481 255.698 198.357 247.813 202.812L240.479 206.952C233.363 210.894 226.956 209.751 224.216 203.818L214.36 182.311C208.229 168.984 187.234 181.305 181.36 201.708C178.639 211.111 171.976 220.081 164.604 224.24L158.197 227.867C150.43 232.263 143.609 230.351 141.342 223.176L132.393 194.789C127.346 178.782 104.006 191.871 98.486 213.812L66.6691 339.858C64.1655 349.714 57.1476 359.433 49.3215 363.71L420.973 148.266Z" fill="#333943"/>
</g>
<path opacity="0.4" d="M130.58 159.262C130.568 160.665 130.973 162.041 131.743 163.214C132.513 164.388 133.614 165.307 134.906 165.855C136.198 166.402 137.624 166.555 139.003 166.292C140.382 166.03 141.652 165.365 142.652 164.381C143.653 163.396 144.34 162.138 144.625 160.763C144.91 159.389 144.782 157.961 144.255 156.66C143.729 155.359 142.829 154.243 141.668 153.453C140.508 152.664 139.139 152.236 137.736 152.224C136.804 152.217 135.879 152.392 135.015 152.742C134.151 153.091 133.365 153.608 132.7 154.261C132.036 154.915 131.506 155.693 131.143 156.551C130.779 157.409 130.588 158.33 130.58 159.262V159.262Z" fill="#42E8E0"/>
<path d="M134.602 159.306C134.598 159.913 134.774 160.508 135.108 161.015C135.442 161.523 135.918 161.92 136.478 162.157C137.037 162.394 137.654 162.46 138.251 162.347C138.847 162.233 139.397 161.946 139.831 161.521C140.264 161.095 140.562 160.551 140.687 159.957C140.811 159.362 140.757 158.744 140.531 158.18C140.305 157.617 139.917 157.133 139.416 156.789C138.915 156.446 138.324 156.258 137.717 156.25C137.311 156.245 136.909 156.32 136.532 156.471C136.156 156.622 135.813 156.846 135.523 157.13C135.234 157.414 135.004 157.752 134.845 158.126C134.687 158.499 134.604 158.9 134.602 159.306V159.306Z" fill="#42E8E0"/>
<path opacity="0.4" d="M253.568 37.0771C254.018 33.1836 251.227 29.6627 247.333 29.2128C243.439 28.763 239.919 31.5547 239.469 35.4482C239.019 39.3417 241.811 42.8627 245.704 43.3125C249.598 43.7623 253.119 40.9706 253.568 37.0771Z" fill="#42E8E0"/>
<path d="M243.418 36.2182C243.406 36.8319 243.577 37.4352 243.909 37.9514C244.241 38.4676 244.719 38.8735 245.282 39.1174C245.845 39.3613 246.468 39.4322 247.072 39.3211C247.676 39.2101 248.233 38.922 248.672 38.4936C249.112 38.0652 249.414 37.5158 249.54 36.9152C249.667 36.3146 249.612 35.6899 249.383 35.1206C249.153 34.5513 248.76 34.0631 248.252 33.718C247.745 33.3728 247.146 33.1864 246.532 33.1824C246.128 33.1772 245.727 33.2516 245.352 33.4013C244.977 33.5511 244.635 33.7732 244.346 34.0552C244.057 34.3371 243.826 34.6732 243.667 35.0443C243.507 35.4154 243.423 35.8143 243.418 36.2182V36.2182Z" fill="#42E8E0"/>
<path opacity="0.4" d="M36.4097 183.236C36.398 184.64 36.8028 186.015 37.5729 187.189C38.3429 188.362 39.4437 189.281 40.7359 189.829C42.0282 190.377 43.4538 190.529 44.8327 190.267C46.2115 190.004 47.4816 189.339 48.4823 188.355C49.483 187.371 50.1694 186.112 50.4547 184.737C50.74 183.363 50.6114 181.935 50.0851 180.634C49.5588 179.333 48.6585 178.217 47.4981 177.427C46.3376 176.638 44.9691 176.21 43.5655 176.198C42.6336 176.191 41.7092 176.367 40.8452 176.716C39.9812 177.065 39.1945 177.582 38.53 178.235C37.8655 178.889 37.3363 179.667 36.9724 180.525C36.6086 181.383 36.4174 182.304 36.4097 183.236V183.236Z" fill="#42E8E0"/>
<path d="M40.5105 183.276C40.5027 183.889 40.6771 184.491 41.0115 185.004C41.3459 185.518 41.8254 185.921 42.389 186.162C42.9526 186.403 43.5751 186.471 44.1775 186.357C44.7799 186.244 45.335 185.954 45.7726 185.525C46.2102 185.096 46.5104 184.546 46.6353 183.946C46.7601 183.346 46.704 182.723 46.474 182.154C46.244 181.586 45.8504 181.099 45.3432 180.755C44.8361 180.411 44.2381 180.225 43.6252 180.221C43.2197 180.216 42.8171 180.291 42.4408 180.442C42.0644 180.593 41.7216 180.817 41.4321 181.101C41.1426 181.385 40.9122 181.723 40.754 182.097C40.5958 182.47 40.5131 182.871 40.5105 183.276Z" fill="#42E8E0"/>
<path d="M482.916 308.121L286.718 421.304L287.112 421.987L483.31 308.804L482.916 308.121Z" fill="#42E8E0"/>
<g opacity="0.4">
<path opacity="0.4" d="M125.278 335.797L137.421 328.779C138.15 328.365 138.052 327.656 137.224 327.163L131.961 324.127C131.535 323.891 131.061 323.758 130.575 323.738C130.089 323.717 129.605 323.81 129.161 324.009L116.998 331.027C116.289 331.441 116.367 332.17 117.195 332.643L122.479 335.699C122.903 335.937 123.379 336.07 123.866 336.087C124.353 336.105 124.837 336.005 125.278 335.797V335.797Z" fill="#7CF1F5"/>
<path opacity="0.4" d="M138.763 343.701L150.926 336.683C151.636 336.269 151.537 335.54 150.709 335.067L145.446 332.031C145.022 331.791 144.547 331.655 144.06 331.635C143.574 331.614 143.089 331.709 142.646 331.913L130.484 338.931C129.774 339.345 129.872 340.054 130.7 340.547L135.964 343.583C136.389 343.818 136.864 343.952 137.349 343.972C137.835 343.993 138.319 343.9 138.763 343.701V343.701Z" fill="#7CF1F5"/>
<path opacity="0.4" d="M152.266 351.585L164.429 344.567C165.139 344.153 165.06 343.444 164.232 342.951L158.949 339.915C158.523 339.68 158.049 339.546 157.563 339.526C157.077 339.505 156.593 339.598 156.15 339.797L144.006 346.815C143.277 347.229 143.376 347.958 144.203 348.431L149.467 351.467C149.891 351.707 150.366 351.843 150.852 351.863C151.339 351.884 151.823 351.789 152.266 351.585V351.585Z" fill="#7CF1F5"/>
<path opacity="0.4" d="M165.787 359.492L177.931 352.474C178.66 352.06 178.561 351.331 177.733 350.858L172.47 347.802C172.045 347.567 171.57 347.433 171.084 347.413C170.599 347.392 170.115 347.485 169.671 347.684L157.508 354.702C156.798 355.116 156.877 355.845 157.705 356.318L162.968 359.374C163.397 359.61 163.875 359.743 164.364 359.763C164.853 359.784 165.34 359.691 165.787 359.492V359.492Z" fill="#7CF1F5"/>
<path opacity="0.4" d="M179.293 367.378L191.436 360.36C192.166 359.946 192.067 359.217 191.239 358.744L185.976 355.708C185.552 355.468 185.077 355.332 184.59 355.311C184.104 355.291 183.619 355.386 183.176 355.59L171.013 362.607C170.304 363.021 170.383 363.751 171.211 364.224L176.533 367.26C176.954 367.489 177.421 367.619 177.899 367.639C178.378 367.66 178.854 367.57 179.293 367.378V367.378Z" fill="#7CF1F5"/>
<path opacity="0.4" d="M192.794 375.26L204.957 368.262C205.667 367.829 205.569 367.119 204.741 366.626L199.477 363.59C199.052 363.355 198.577 363.222 198.091 363.201C197.606 363.181 197.122 363.273 196.678 363.472L184.535 370.49C183.805 370.904 183.904 371.633 184.732 372.106L189.995 375.162C190.42 375.4 190.896 375.534 191.383 375.551C191.87 375.568 192.354 375.468 192.794 375.26V375.26Z" fill="#7CF1F5"/>
<path opacity="0.4" d="M206.299 383.167L218.462 376.149C219.171 375.735 219.093 375.005 218.265 374.532L212.982 371.595C212.558 371.355 212.083 371.219 211.596 371.199C211.11 371.178 210.625 371.273 210.182 371.477L198.039 378.495C197.31 378.909 197.408 379.618 198.236 380.111L203.5 383.147C203.933 383.367 204.411 383.483 204.897 383.487C205.383 383.49 205.863 383.38 206.299 383.167Z" fill="#7CF1F5"/>
<path opacity="0.4" d="M219.901 391.053L232.044 384.035C232.773 383.621 232.675 382.911 231.847 382.418L226.505 379.481C226.079 379.245 225.605 379.112 225.119 379.092C224.633 379.071 224.149 379.164 223.705 379.363L211.542 386.381C210.833 386.795 210.911 387.524 211.739 387.997L217.003 391.033C217.448 391.271 217.944 391.397 218.449 391.4C218.954 391.404 219.452 391.284 219.901 391.053V391.053Z" fill="#7CF1F5"/>
<path opacity="0.4" d="M103.848 349.357L116.011 342.339C116.721 341.925 116.642 341.195 115.814 340.722L110.55 337.686C110.121 337.451 109.644 337.317 109.155 337.297C108.666 337.276 108.179 337.369 107.731 337.568L95.5881 344.586C94.8587 345 94.9573 345.729 95.7852 346.202L101.049 349.238C101.473 349.478 101.947 349.614 102.434 349.635C102.921 349.655 103.405 349.56 103.848 349.357V349.357Z" fill="#7CF1F5"/>
<path opacity="0.4" d="M117.392 357.267L129.536 350.249C130.265 349.835 130.166 349.106 129.338 348.633L124.075 345.577C123.65 345.342 123.175 345.208 122.689 345.188C122.204 345.167 121.72 345.26 121.276 345.459L109.113 352.477C108.403 352.891 108.482 353.62 109.31 354.093L114.593 357.149C115.018 357.384 115.493 357.518 115.979 357.538C116.465 357.559 116.949 357.466 117.392 357.267Z" fill="#7CF1F5"/>
<path opacity="0.4" d="M130.876 365.151L143.039 358.133C143.748 357.719 143.65 356.99 142.822 356.517L137.558 353.481C137.134 353.241 136.66 353.105 136.173 353.084C135.686 353.064 135.202 353.159 134.759 353.362L122.596 360.38C121.886 360.794 121.965 361.504 122.813 361.997L128.076 365.033C128.502 365.268 128.976 365.401 129.462 365.422C129.948 365.442 130.432 365.35 130.876 365.151V365.151Z" fill="#7CF1F5"/>
<path opacity="0.4" d="M144.381 373.037L156.544 366.019C157.253 365.605 157.174 364.895 156.346 364.403L151.063 361.367C150.638 361.131 150.164 360.998 149.678 360.977C149.192 360.957 148.708 361.05 148.264 361.248L136.121 368.266C135.391 368.68 135.49 369.41 136.318 369.883L141.581 372.919C142.005 373.159 142.48 373.294 142.967 373.315C143.453 373.336 143.938 373.24 144.381 373.037V373.037Z" fill="#7CF1F5"/>
<path opacity="0.4" d="M157.884 380.939L170.047 373.921C170.756 373.507 170.677 372.778 169.849 372.305L164.586 369.249C164.156 369.017 163.677 368.887 163.188 368.87C162.699 368.853 162.213 368.949 161.767 369.151L149.624 376.169C148.894 376.583 148.993 377.292 149.821 377.785L155.084 380.821C155.51 381.056 155.984 381.19 156.47 381.21C156.956 381.231 157.44 381.138 157.884 380.939Z" fill="#7CF1F5"/>
<path opacity="0.4" d="M171.407 388.826L183.551 381.809C184.28 381.395 184.182 380.665 183.354 380.192L178.09 377.156C177.665 376.921 177.19 376.787 176.705 376.767C176.219 376.746 175.735 376.839 175.291 377.038L163.128 384.056C162.418 384.47 162.497 385.199 163.325 385.672L168.608 388.708C169.032 388.948 169.507 389.084 169.994 389.105C170.48 389.125 170.965 389.03 171.407 388.826V388.826Z" fill="#7CF1F5"/>
<path opacity="0.4" d="M184.911 396.732L197.074 389.714C197.784 389.3 197.685 388.571 196.857 388.098L191.594 385.042C191.168 384.807 190.694 384.673 190.208 384.653C189.722 384.632 189.238 384.725 188.794 384.924L176.631 391.942C175.922 392.356 176.02 393.085 176.848 393.558L182.112 396.614C182.537 396.849 183.012 396.982 183.497 397.003C183.983 397.023 184.467 396.931 184.911 396.732Z" fill="#7CF1F5"/>
<path opacity="0.4" d="M198.414 404.616L210.577 397.598C211.286 397.184 211.207 396.455 210.379 395.982L205.096 392.946C204.672 392.706 204.198 392.57 203.711 392.55C203.224 392.529 202.74 392.624 202.297 392.828L190.154 399.846C189.424 400.26 189.523 400.969 190.351 401.462L195.614 404.498C196.04 404.733 196.514 404.867 197 404.887C197.486 404.908 197.97 404.815 198.414 404.616V404.616Z" fill="#7CF1F5"/>
<path opacity="0.4" d="M92.4951 365.151L104.638 358.133C105.368 357.719 105.269 356.99 104.441 356.517L99.1778 353.481C98.754 353.241 98.2791 353.105 97.7925 353.084C97.3058 353.064 96.8212 353.159 96.3786 353.362L84.2156 360.38C83.5059 360.794 83.5848 361.504 84.4127 361.997L89.6761 365.033C90.1051 365.268 90.5827 365.402 91.0717 365.422C91.5608 365.443 92.0479 365.35 92.4951 365.151V365.151Z" fill="#7CF1F5"/>
<path opacity="0.4" d="M105.999 373.037L118.142 366.019C118.872 365.605 118.773 364.895 117.945 364.403L112.682 361.367C112.256 361.131 111.782 360.998 111.296 360.977C110.81 360.957 110.326 361.05 109.882 361.248L97.68 368.266C96.9703 368.68 97.0491 369.41 97.8771 369.883L103.16 372.919C103.589 373.165 104.071 373.305 104.565 373.325C105.059 373.346 105.551 373.247 105.999 373.037V373.037Z" fill="#7CF1F5"/>
<path opacity="0.4" d="M119.502 380.941L131.665 373.923C132.375 373.509 132.296 372.78 131.448 372.307L126.185 369.251C125.758 369.017 125.283 368.887 124.797 368.87C124.311 368.852 123.828 368.949 123.386 369.153L111.242 376.171C110.513 376.585 110.612 377.294 111.44 377.787L116.703 380.823C117.128 381.058 117.603 381.192 118.089 381.212C118.574 381.233 119.058 381.14 119.502 380.941V380.941Z" fill="#7CF1F5"/>
<path opacity="0.4" d="M133.005 388.826L145.168 381.809C145.878 381.395 145.799 380.665 144.971 380.192L139.688 377.156C139.262 376.921 138.788 376.787 138.302 376.767C137.816 376.746 137.332 376.839 136.888 377.038L124.745 384.056C124.016 384.47 124.114 385.199 124.942 385.672L130.206 388.708C130.629 388.948 131.104 389.084 131.591 389.105C132.078 389.125 132.562 389.03 133.005 388.826V388.826Z" fill="#7CF1F5"/>
<path opacity="0.4" d="M146.529 396.732L158.672 389.714C159.401 389.3 159.303 388.571 158.475 388.098L153.212 385.042C152.786 384.807 152.312 384.673 151.826 384.653C151.34 384.632 150.856 384.725 150.412 384.924L138.249 391.942C137.54 392.356 137.618 393.085 138.446 393.558L143.73 396.614C144.155 396.849 144.629 396.982 145.115 397.003C145.601 397.023 146.085 396.931 146.529 396.732Z" fill="#7CF1F5"/>
<path opacity="0.4" d="M160.033 404.616L172.196 397.598C172.905 397.184 172.807 396.455 171.979 395.982L166.676 392.946C166.252 392.706 165.777 392.57 165.291 392.55C164.804 392.529 164.319 392.624 163.877 392.828L151.714 399.846C151.004 400.26 151.083 400.969 151.931 401.462L157.194 404.498C157.624 404.74 158.106 404.877 158.599 404.897C159.092 404.918 159.584 404.821 160.033 404.616Z" fill="#7CF1F5"/>
<path opacity="0.4" d="M173.537 412.502L185.7 405.484C186.409 405.07 186.33 404.36 185.502 403.867L180.219 400.832C179.794 400.596 179.32 400.463 178.834 400.442C178.348 400.422 177.864 400.514 177.42 400.713L165.277 407.731C164.547 408.145 164.646 408.874 165.474 409.348L170.737 412.383C171.161 412.623 171.636 412.759 172.123 412.78C172.609 412.8 173.094 412.705 173.537 412.502Z" fill="#7CF1F5"/>
</g>
<path d="M124.033 330.198C123.421 330.209 122.816 330.059 122.279 329.764L116.996 326.728C116.762 326.614 116.561 326.442 116.412 326.228C116.264 326.014 116.173 325.765 116.148 325.506C116.149 325.291 116.211 325.081 116.326 324.9C116.441 324.719 116.605 324.573 116.799 324.481L128.962 317.463C129.46 317.235 130.005 317.127 130.553 317.147C131.101 317.168 131.636 317.317 132.116 317.581L137.379 320.637C137.617 320.743 137.822 320.91 137.975 321.121C138.127 321.333 138.221 321.58 138.247 321.839C138.237 322.055 138.17 322.263 138.052 322.444C137.934 322.624 137.77 322.769 137.576 322.864L125.433 329.882C125 330.101 124.519 330.21 124.033 330.198V330.198ZM130.342 317.857C129.985 317.842 129.631 317.924 129.317 318.094L117.154 325.092C117.075 325.132 117.007 325.191 116.955 325.263C116.904 325.335 116.87 325.418 116.858 325.506C116.858 325.703 117.035 325.92 117.351 326.097L122.634 329.153C123.006 329.355 123.419 329.471 123.843 329.491C124.266 329.512 124.688 329.436 125.078 329.271L137.221 322.253C137.34 322.253 137.537 322.036 137.537 321.859C137.537 321.682 137.34 321.425 137.024 321.248L131.761 318.192C131.317 317.989 130.83 317.894 130.342 317.916V317.857Z" fill="#42E8E0"/>
<path d="M137.537 338.085C136.923 338.086 136.319 337.93 135.783 337.631L130.519 334.596C130.28 334.486 130.074 334.315 129.922 334.101C129.77 333.886 129.677 333.635 129.652 333.373C129.659 333.163 129.723 332.958 129.838 332.781C129.953 332.604 130.113 332.461 130.303 332.368L142.466 325.35C142.962 325.113 143.508 324.999 144.057 325.02C144.607 325.041 145.143 325.195 145.62 325.469L150.883 328.504C151.122 328.614 151.328 328.785 151.481 328.999C151.633 329.214 151.726 329.465 151.75 329.727C151.741 329.937 151.676 330.141 151.562 330.318C151.447 330.494 151.288 330.637 151.1 330.732L138.937 337.75C138.506 337.978 138.025 338.094 137.537 338.085V338.085ZM143.846 325.725C143.489 325.717 143.137 325.798 142.82 325.961L130.657 332.979C130.657 332.979 130.362 333.176 130.362 333.373C130.362 333.571 130.559 333.787 130.874 333.985L136.138 337.02C136.509 337.227 136.922 337.345 137.346 337.365C137.77 337.386 138.193 337.308 138.582 337.139L150.745 330.121C150.844 330.121 151.041 329.924 151.041 329.727C151.041 329.529 150.844 329.293 150.528 329.115L145.265 326.257C144.84 325.983 144.35 325.827 143.846 325.804V325.725Z" fill="#42E8E0"/>
<path d="M151.042 345.97C150.43 345.978 149.825 345.829 149.287 345.536L144.024 342.481C143.784 342.373 143.577 342.203 143.424 341.988C143.272 341.773 143.179 341.521 143.157 341.259C143.168 341.046 143.236 340.841 143.354 340.664C143.472 340.487 143.635 340.345 143.827 340.253L155.97 333.235C156.467 333.003 157.013 332.892 157.562 332.913C158.11 332.933 158.646 333.084 159.124 333.354L164.407 336.389C164.644 336.5 164.847 336.671 164.996 336.886C165.145 337.101 165.234 337.351 165.255 337.612C165.252 337.826 165.189 338.035 165.074 338.216C164.959 338.397 164.797 338.542 164.605 338.637L152.442 345.655C152.01 345.879 151.528 345.987 151.042 345.97ZM157.37 333.63C157.009 333.613 156.65 333.687 156.325 333.846L144.182 340.864C144.064 340.864 143.866 341.081 143.866 341.259C143.866 341.436 144.064 341.692 144.379 341.87L149.642 344.905C150.012 345.116 150.426 345.237 150.85 345.257C151.275 345.278 151.699 345.198 152.087 345.024L164.25 338.006C164.329 337.972 164.399 337.918 164.45 337.848C164.502 337.779 164.535 337.698 164.545 337.612C164.545 337.414 164.368 337.198 164.053 337.02L158.789 334.142C158.36 333.881 157.872 333.732 157.37 333.708V333.63Z" fill="#42E8E0"/>
<path d="M164.564 353.95C163.944 353.952 163.333 353.796 162.79 353.497L157.527 350.461C157.288 350.351 157.082 350.181 156.929 349.966C156.777 349.752 156.684 349.501 156.659 349.239C156.666 349.025 156.732 348.818 156.851 348.64C156.969 348.463 157.135 348.322 157.33 348.233L169.493 341.216C169.98 340.963 170.521 340.832 171.07 340.832C171.619 340.832 172.159 340.963 172.647 341.216L177.91 344.271C178.151 344.379 178.358 344.549 178.51 344.764C178.663 344.979 178.755 345.231 178.778 345.493C178.766 345.706 178.698 345.911 178.58 346.088C178.463 346.265 178.299 346.407 178.107 346.499L165.964 353.517C165.542 353.777 165.06 353.926 164.564 353.95V353.95ZM170.873 341.59C170.516 341.575 170.161 341.656 169.847 341.827L157.685 348.845C157.566 348.845 157.369 349.042 157.369 349.239C157.369 349.436 157.566 349.653 157.882 349.85L163.145 352.886C163.519 353.092 163.936 353.21 164.363 353.231C164.791 353.251 165.217 353.174 165.609 353.004L177.752 345.986C177.871 345.986 178.068 345.769 178.068 345.592C178.068 345.414 177.871 345.158 177.555 344.981L172.292 342.024C171.864 341.759 171.375 341.61 170.873 341.59V341.59Z" fill="#42E8E0"/>
<path d="M178.068 361.837C177.454 361.841 176.849 361.685 176.314 361.383L171.031 358.347C170.796 358.234 170.595 358.061 170.447 357.847C170.298 357.633 170.207 357.385 170.183 357.125C170.192 356.915 170.257 356.711 170.371 356.534C170.486 356.357 170.645 356.214 170.833 356.12L182.996 349.102C183.494 348.869 184.039 348.759 184.588 348.779C185.136 348.8 185.672 348.951 186.15 349.22L191.414 352.256C191.653 352.366 191.859 352.536 192.011 352.751C192.164 352.966 192.257 353.216 192.281 353.478C192.275 353.692 192.208 353.899 192.09 354.077C191.971 354.254 191.805 354.395 191.611 354.484L179.468 361.502C179.037 361.73 178.555 361.845 178.068 361.837ZM184.376 349.477C184.02 349.466 183.667 349.547 183.351 349.713L171.188 356.731C171.11 356.767 171.042 356.821 170.99 356.89C170.938 356.959 170.905 357.04 170.893 357.125C170.918 357.26 170.976 357.386 171.062 357.493C171.148 357.6 171.259 357.683 171.385 357.736L176.668 360.772C177.039 360.979 177.453 361.097 177.877 361.117C178.301 361.138 178.724 361.06 179.113 360.89L191.256 353.873C191.374 353.873 191.572 353.675 191.572 353.478C191.572 353.281 191.374 353.064 191.059 352.867L185.796 349.91C185.38 349.65 184.905 349.5 184.416 349.477H184.376Z" fill="#42E8E0"/>
<path d="M191.572 369.723C190.959 369.731 190.355 369.582 189.817 369.289L184.554 366.253C184.313 366.14 184.106 365.966 183.954 365.748C183.802 365.53 183.71 365.276 183.687 365.011C183.698 364.801 183.764 364.598 183.878 364.422C183.992 364.245 184.15 364.102 184.337 364.006L196.5 356.988C196.998 356.76 197.543 356.652 198.091 356.672C198.639 356.693 199.174 356.841 199.654 357.106L204.918 360.142C205.158 360.255 205.365 360.429 205.517 360.647C205.669 360.865 205.762 361.119 205.785 361.384C205.774 361.594 205.708 361.797 205.594 361.973C205.48 362.15 205.321 362.293 205.134 362.389L192.971 369.407C192.539 369.629 192.057 369.737 191.572 369.723V369.723ZM197.9 357.382C197.537 357.372 197.178 357.453 196.855 357.619L184.712 364.637C184.593 364.637 184.396 364.834 184.396 365.011C184.396 365.189 184.593 365.445 184.909 365.622L190.172 368.678C190.552 368.866 190.97 368.963 191.394 368.963C191.818 368.963 192.236 368.866 192.617 368.678L204.78 361.68C204.78 361.68 205.075 361.463 205.075 361.285C205.075 361.108 204.898 360.852 204.563 360.674L199.299 357.796C198.873 357.547 198.393 357.405 197.9 357.382V357.382Z" fill="#42E8E0"/>
<path d="M205.095 377.628C204.475 377.63 203.864 377.474 203.321 377.175L198.058 374.139C197.819 374.029 197.613 373.859 197.46 373.644C197.308 373.43 197.215 373.179 197.19 372.917C197.197 372.703 197.263 372.496 197.382 372.318C197.5 372.141 197.666 372 197.861 371.911L210.043 364.894C210.541 364.661 211.086 364.55 211.635 364.571C212.183 364.591 212.719 364.743 213.197 365.012L218.481 368.048C218.72 368.157 218.926 368.328 219.078 368.542C219.23 368.757 219.323 369.008 219.348 369.27C219.341 369.483 219.275 369.691 219.157 369.868C219.038 370.046 218.872 370.187 218.678 370.275L206.515 377.293C206.08 377.528 205.59 377.644 205.095 377.628V377.628ZM211.404 365.268C211.041 365.257 210.682 365.339 210.359 365.505L198.216 372.522C198.097 372.522 197.9 372.72 197.9 372.917C197.9 373.114 198.097 373.331 198.413 373.528L203.676 376.564C204.047 376.77 204.46 376.888 204.884 376.909C205.308 376.929 205.731 376.852 206.12 376.682L218.283 369.664C218.363 369.63 218.432 369.576 218.484 369.507C218.536 369.437 218.569 369.356 218.579 369.27C218.579 369.073 218.402 368.856 218.086 368.659L212.803 365.682C212.382 365.422 211.899 365.279 211.404 365.268V365.268Z" fill="#42E8E0"/>
<path d="M218.599 385.51C217.981 385.518 217.37 385.369 216.825 385.076L211.562 382.021C211.321 381.913 211.114 381.743 210.962 381.528C210.809 381.313 210.717 381.061 210.694 380.799C210.705 380.586 210.773 380.381 210.891 380.204C211.009 380.027 211.173 379.885 211.365 379.793L223.528 372.776C224.026 372.548 224.571 372.439 225.119 372.46C225.666 372.481 226.202 372.629 226.682 372.894L231.945 375.93C232.184 376.039 232.39 376.21 232.543 376.424C232.695 376.639 232.788 376.89 232.812 377.152C232.803 377.367 232.735 377.576 232.618 377.756C232.5 377.936 232.336 378.082 232.142 378.177L219.999 385.195C219.566 385.414 219.085 385.522 218.599 385.51V385.51ZM224.907 373.17C224.552 373.148 224.198 373.223 223.882 373.387L211.719 380.404C211.601 380.404 211.424 380.621 211.424 380.799C211.449 380.933 211.507 381.06 211.593 381.166C211.679 381.273 211.79 381.357 211.917 381.41L217.2 384.446C217.569 384.656 217.983 384.777 218.408 384.798C218.832 384.818 219.256 384.738 219.644 384.564L231.728 377.507C231.846 377.507 232.044 377.309 232.044 377.112C232.044 376.915 231.846 376.698 231.531 376.521L226.327 373.564C225.892 373.322 225.405 373.187 224.907 373.17Z" fill="#42E8E0"/>
<path d="M102.647 343.82C102.03 343.816 101.422 343.668 100.873 343.386L95.7077 340.331C95.4673 340.223 95.2602 340.052 95.1077 339.837C94.9552 339.623 94.8629 339.371 94.8403 339.108C94.8514 338.896 94.9194 338.691 95.0374 338.514C95.1554 338.337 95.3188 338.195 95.5106 338.103L107.654 331.085C108.154 330.852 108.703 330.742 109.255 330.762C109.807 330.783 110.346 330.934 110.828 331.203L116.091 334.239C116.33 334.349 116.536 334.519 116.689 334.734C116.841 334.949 116.934 335.199 116.958 335.461C116.949 335.677 116.881 335.885 116.764 336.066C116.646 336.246 116.481 336.391 116.288 336.486L104.125 343.485C103.677 343.741 103.162 343.857 102.647 343.82ZM108.955 331.479C108.594 331.463 108.235 331.537 107.91 331.696L95.7077 338.714C95.5894 338.714 95.3923 338.931 95.3923 339.108C95.3923 339.286 95.5894 339.542 95.9048 339.719L101.168 342.755C101.539 342.962 101.953 343.08 102.377 343.1C102.801 343.121 103.224 343.043 103.613 342.874L115.776 335.856C115.894 335.856 116.091 335.659 116.071 335.461C116.052 335.264 115.894 335.047 115.579 334.85L110.295 331.814C109.884 331.592 109.423 331.476 108.955 331.479V331.479Z" fill="#42E8E0"/>
<path d="M116.149 351.705C115.536 351.717 114.932 351.567 114.395 351.272L109.112 348.236C108.872 348.126 108.666 347.956 108.514 347.741C108.362 347.527 108.269 347.276 108.244 347.014C108.254 346.799 108.321 346.59 108.439 346.409C108.557 346.229 108.721 346.084 108.914 345.989L121.077 338.971C121.576 338.743 122.121 338.635 122.668 338.655C123.216 338.676 123.751 338.824 124.231 339.089L129.495 342.145C129.735 342.253 129.942 342.423 130.095 342.638C130.247 342.853 130.34 343.104 130.362 343.367C130.351 343.579 130.283 343.785 130.165 343.962C130.047 344.138 129.884 344.28 129.692 344.372L117.549 351.39C117.115 351.609 116.635 351.718 116.149 351.705ZM122.457 339.365C122.1 339.35 121.746 339.431 121.432 339.602L109.269 346.619C109.19 346.653 109.12 346.708 109.069 346.777C109.017 346.846 108.984 346.928 108.974 347.014C108.974 347.211 109.151 347.428 109.466 347.605L114.749 350.661C115.122 350.863 115.535 350.978 115.958 350.999C116.381 351.019 116.804 350.944 117.194 350.779L129.337 343.761C129.455 343.761 129.653 343.544 129.653 343.367C129.653 343.189 129.455 342.933 129.14 342.756L123.877 339.72C123.442 339.481 122.953 339.358 122.457 339.365V339.365Z" fill="#42E8E0"/>
<path d="M129.653 359.612C129.039 359.613 128.435 359.457 127.898 359.158L122.635 356.122C122.396 356.013 122.19 355.842 122.037 355.628C121.885 355.413 121.792 355.162 121.768 354.9C121.775 354.689 121.839 354.484 121.954 354.307C122.068 354.13 122.229 353.988 122.418 353.895L134.581 346.877C135.078 346.644 135.624 346.534 136.172 346.554C136.721 346.575 137.257 346.726 137.735 346.995L142.999 350.031C143.238 350.141 143.444 350.311 143.596 350.526C143.748 350.74 143.841 350.991 143.866 351.253C143.859 351.464 143.795 351.669 143.68 351.846C143.565 352.023 143.405 352.166 143.215 352.259L131.052 359.276C130.622 359.505 130.14 359.62 129.653 359.612V359.612ZM135.961 347.251C135.605 347.241 135.252 347.322 134.936 347.488L122.773 354.506C122.773 354.506 122.477 354.723 122.477 354.9C122.477 355.078 122.655 355.314 122.99 355.511L128.253 358.547C128.624 358.753 129.038 358.871 129.462 358.892C129.886 358.912 130.309 358.835 130.698 358.665L142.841 351.648C142.959 351.648 143.156 351.45 143.156 351.253C143.156 351.056 142.959 350.839 142.644 350.642L137.38 347.606C136.946 347.367 136.457 347.245 135.961 347.251V347.251Z" fill="#42E8E0"/>
<path d="M143.157 367.495C142.545 367.503 141.941 367.354 141.403 367.061L136.14 364.025C135.899 363.912 135.692 363.738 135.54 363.52C135.388 363.302 135.295 363.048 135.272 362.783C135.283 362.571 135.351 362.366 135.469 362.189C135.587 362.012 135.751 361.87 135.942 361.778L148.086 354.76C148.583 354.528 149.129 354.417 149.677 354.437C150.226 354.458 150.761 354.609 151.24 354.879L156.523 357.914C156.759 358.031 156.961 358.207 157.109 358.425C157.257 358.642 157.347 358.894 157.371 359.156C157.359 359.366 157.294 359.569 157.179 359.746C157.065 359.922 156.907 360.065 156.72 360.162L144.557 367.179C144.126 367.404 143.643 367.512 143.157 367.495ZM149.485 355.154C149.122 355.135 148.76 355.217 148.441 355.391L136.297 362.389C136.179 362.389 135.982 362.606 135.982 362.783C135.982 362.961 136.179 363.217 136.494 363.395L141.758 366.45C142.13 366.653 142.545 366.768 142.969 366.785C143.392 366.802 143.815 366.721 144.202 366.549L156.365 359.531C156.445 359.497 156.514 359.442 156.566 359.373C156.618 359.304 156.651 359.222 156.661 359.137C156.661 358.939 156.484 358.723 156.168 358.545L150.905 355.49C150.466 355.263 149.979 355.148 149.485 355.154V355.154Z" fill="#42E8E0"/>
<path d="M156.679 375.401C156.059 375.404 155.448 375.248 154.905 374.948L149.641 371.912C149.402 371.803 149.196 371.632 149.044 371.417C148.892 371.203 148.798 370.952 148.774 370.69C148.781 370.476 148.847 370.269 148.965 370.091C149.084 369.914 149.25 369.773 149.444 369.685L161.587 362.667C162.087 362.429 162.636 362.316 163.189 362.336C163.741 362.357 164.281 362.511 164.761 362.785L170.025 365.821C170.264 365.93 170.47 366.101 170.622 366.316C170.774 366.53 170.867 366.781 170.892 367.043C170.883 367.256 170.816 367.462 170.698 367.64C170.58 367.817 170.415 367.958 170.222 368.048L158.079 375.066C157.647 375.292 157.166 375.407 156.679 375.401V375.401ZM162.987 363.041C162.624 363.031 162.265 363.112 161.942 363.278L149.799 370.296C149.681 370.296 149.484 370.493 149.484 370.69C149.484 370.887 149.681 371.104 149.996 371.301L155.26 374.337C155.63 374.543 156.044 374.661 156.468 374.682C156.892 374.702 157.315 374.625 157.704 374.455L169.867 367.437C169.985 367.437 170.182 367.22 170.182 367.043C170.182 366.866 169.985 366.609 169.67 366.432L164.406 363.396C163.971 363.159 163.483 363.037 162.987 363.041V363.041Z" fill="#7CF1F5"/>
<path d="M170.183 383.287C169.57 383.298 168.965 383.148 168.428 382.853L163.145 379.798C162.906 379.69 162.7 379.52 162.551 379.305C162.402 379.089 162.314 378.837 162.297 378.575C162.304 378.365 162.369 378.16 162.483 377.983C162.598 377.805 162.758 377.663 162.948 377.57L175.111 370.552C175.608 370.32 176.154 370.209 176.702 370.229C177.251 370.25 177.787 370.401 178.265 370.67L183.528 373.706C183.768 373.816 183.974 373.987 184.126 374.201C184.278 374.416 184.371 374.667 184.396 374.929C184.389 375.142 184.323 375.349 184.204 375.527C184.086 375.705 183.92 375.846 183.725 375.934L171.582 382.952C171.154 383.187 170.671 383.303 170.183 383.287V383.287ZM176.491 370.927C176.134 370.916 175.781 370.997 175.466 371.163L163.303 378.181C163.184 378.181 163.007 378.398 163.007 378.575C163.032 378.71 163.09 378.836 163.176 378.943C163.262 379.05 163.374 379.133 163.5 379.187L168.783 382.222C169.152 382.433 169.566 382.554 169.991 382.574C170.416 382.595 170.839 382.515 171.227 382.341L183.371 375.323C183.489 375.323 183.686 375.126 183.686 374.929C183.686 374.731 183.489 374.515 183.174 374.317L177.91 371.282C177.487 371.049 177.013 370.927 176.53 370.927H176.491Z" fill="#42E8E0"/>
<path d="M183.686 391.19C183.072 391.191 182.468 391.035 181.932 390.736L176.668 387.7C176.429 387.591 176.223 387.42 176.071 387.206C175.919 386.991 175.826 386.74 175.801 386.478C175.805 386.246 175.876 386.021 176.006 385.828C176.135 385.636 176.317 385.485 176.53 385.394L188.693 378.376C189.192 378.148 189.737 378.04 190.284 378.061C190.832 378.081 191.368 378.23 191.847 378.494L197.111 381.55C197.351 381.658 197.558 381.828 197.711 382.043C197.863 382.258 197.956 382.51 197.978 382.772C197.967 382.982 197.901 383.185 197.787 383.362C197.673 383.538 197.515 383.681 197.328 383.777L185.165 390.795C184.717 391.058 184.206 391.194 183.686 391.19V391.19ZM190.014 378.83C189.652 378.819 189.292 378.9 188.969 379.066L176.806 386.084C176.806 386.084 176.511 386.281 176.511 386.478C176.511 386.675 176.708 386.892 177.023 387.07L182.287 390.125C182.659 390.327 183.072 390.443 183.495 390.463C183.919 390.484 184.341 390.409 184.731 390.243L196.894 383.226C196.894 383.226 197.19 383.009 197.19 382.831C197.19 382.654 197.012 382.398 196.677 382.22L191.414 379.184C190.986 378.947 190.503 378.825 190.014 378.83Z" fill="#42E8E0"/>
<path d="M197.19 399.074C196.576 399.076 195.972 398.92 195.435 398.621L190.172 395.585C189.933 395.476 189.727 395.305 189.575 395.09C189.422 394.876 189.329 394.625 189.305 394.363C189.311 394.15 189.378 393.942 189.496 393.765C189.615 393.587 189.78 393.446 189.975 393.358L202.118 386.34C202.615 386.107 203.161 385.996 203.71 386.017C204.258 386.038 204.794 386.189 205.272 386.458L210.555 389.494C210.79 389.608 210.991 389.78 211.139 389.994C211.288 390.208 211.379 390.457 211.403 390.716C211.405 390.929 211.345 391.138 211.229 391.317C211.114 391.496 210.948 391.636 210.753 391.721L198.59 398.739C198.16 398.97 197.678 399.086 197.19 399.074V399.074ZM203.518 386.714C203.155 386.704 202.796 386.785 202.473 386.951L190.33 393.969C190.211 393.969 190.014 394.166 190.014 394.363C190.014 394.56 190.212 394.797 190.527 394.974L195.79 398.01C196.161 398.216 196.575 398.334 196.999 398.355C197.423 398.375 197.846 398.298 198.235 398.128L210.398 391.11C210.477 391.076 210.546 391.022 210.598 390.953C210.65 390.884 210.683 390.802 210.693 390.716C210.693 390.519 210.516 390.302 210.201 390.105L204.917 387.069C204.49 386.83 204.008 386.707 203.518 386.714V386.714Z" fill="#42E8E0"/>
<path d="M91.2724 359.612C90.6521 359.614 90.0414 359.458 89.4982 359.158L84.2348 356.122C83.9957 356.013 83.7896 355.842 83.6373 355.628C83.485 355.413 83.392 355.162 83.3674 354.9C83.3741 354.687 83.4404 354.479 83.5589 354.302C83.6774 354.124 83.8432 353.983 84.0377 353.895L96.2007 346.877C96.6979 346.644 97.2435 346.534 97.792 346.554C98.3406 346.575 98.8764 346.726 99.3548 346.995L104.618 350.031C104.857 350.141 105.063 350.311 105.216 350.526C105.368 350.74 105.461 350.991 105.486 351.253C105.479 351.467 105.413 351.674 105.294 351.852C105.176 352.029 105.01 352.17 104.815 352.259L92.672 359.276C92.2405 359.503 91.7595 359.618 91.2724 359.612V359.612ZM97.5806 347.251C97.2238 347.236 96.8695 347.318 96.5555 347.488L84.3925 354.506C84.2742 354.506 84.0771 354.703 84.0771 354.9C84.0771 355.097 84.2742 355.314 84.5896 355.511L89.8728 358.547C90.2437 358.753 90.6572 358.871 91.0811 358.892C91.5051 358.912 91.9281 358.835 92.3172 358.665L104.46 351.648C104.579 351.648 104.776 351.45 104.776 351.253C104.776 351.056 104.579 350.839 104.263 350.642L98.9999 347.606C98.594 347.385 98.1413 347.263 97.6791 347.251H97.5806Z" fill="#42E8E0"/>
<path d="M104.775 367.495C104.163 367.503 103.559 367.354 103.021 367.061L97.6785 364.025C97.4427 363.908 97.2409 363.733 97.0925 363.515C96.9441 363.298 96.854 363.046 96.8308 362.783C96.842 362.574 96.9079 362.37 97.022 362.194C97.1362 362.018 97.2945 361.874 97.4813 361.778L109.644 354.76C110.142 354.528 110.687 354.417 111.236 354.437C111.784 354.458 112.32 354.609 112.798 354.879L118.062 357.914C118.302 358.027 118.509 358.201 118.661 358.419C118.814 358.637 118.906 358.891 118.929 359.156C118.918 359.369 118.85 359.574 118.732 359.751C118.614 359.928 118.451 360.07 118.259 360.162L106.116 367.179C105.701 367.392 105.241 367.5 104.775 367.495V367.495ZM111.083 355.154C110.727 355.139 110.372 355.221 110.058 355.391L97.8953 362.389C97.777 362.389 97.5996 362.606 97.5996 362.783C97.5996 362.961 97.777 363.217 98.1122 363.395L103.376 366.45C103.748 366.653 104.162 366.768 104.586 366.785C105.01 366.802 105.432 366.721 105.82 366.549L117.963 359.531C118.082 359.531 118.279 359.334 118.279 359.156C118.279 358.979 118.082 358.723 117.766 358.545L112.503 355.49C112.063 355.266 111.577 355.151 111.083 355.154V355.154Z" fill="#42E8E0"/>
<path d="M118.279 375.399C117.665 375.401 117.061 375.245 116.524 374.946L111.261 371.91C111.022 371.8 110.816 371.63 110.663 371.415C110.511 371.201 110.418 370.95 110.394 370.688C110.4 370.474 110.467 370.267 110.585 370.089C110.703 369.912 110.869 369.771 111.064 369.682L123.207 362.665C123.704 362.432 124.25 362.321 124.798 362.342C125.347 362.362 125.883 362.514 126.361 362.783L131.644 365.819C131.879 365.932 132.08 366.105 132.228 366.319C132.377 366.533 132.467 366.781 132.492 367.041C132.483 367.251 132.418 367.455 132.303 367.632C132.189 367.809 132.03 367.952 131.841 368.046L119.678 375.064C119.249 375.295 118.766 375.41 118.279 375.399V375.399ZM124.607 363.039C124.244 363.028 123.885 363.11 123.562 363.276L111.478 370.293C111.36 370.293 111.162 370.491 111.162 370.688C111.162 370.885 111.359 371.102 111.675 371.299L116.938 374.335C117.309 374.541 117.723 374.659 118.147 374.68C118.571 374.7 118.994 374.623 119.383 374.453L131.546 367.435C131.546 367.435 131.841 367.218 131.841 367.041C131.841 366.863 131.664 366.607 131.329 366.43L126.065 363.394C125.621 363.144 125.116 363.021 124.607 363.039V363.039Z" fill="#42E8E0"/>
<path d="M131.782 383.287C131.169 383.295 130.565 383.146 130.027 382.853L124.764 379.798C124.523 379.69 124.316 379.52 124.164 379.305C124.011 379.09 123.919 378.838 123.896 378.576C123.908 378.363 123.976 378.158 124.094 377.981C124.211 377.804 124.375 377.662 124.567 377.57L136.71 370.552C137.211 370.32 137.759 370.209 138.311 370.229C138.863 370.25 139.402 370.401 139.884 370.671L145.147 373.706C145.386 373.816 145.592 373.987 145.745 374.201C145.897 374.416 145.99 374.667 146.015 374.929C146.008 375.142 145.942 375.349 145.823 375.527C145.705 375.705 145.539 375.846 145.344 375.934L133.162 382.952C132.741 383.188 132.264 383.304 131.782 383.287V383.287ZM138.11 370.927C137.747 370.916 137.388 370.998 137.065 371.163L124.922 378.181C124.803 378.181 124.606 378.398 124.606 378.576C124.606 378.753 124.803 379.009 125.119 379.187L130.382 382.223C130.753 382.429 131.167 382.547 131.59 382.567C132.014 382.588 132.437 382.51 132.827 382.341L144.989 375.323C145.069 375.289 145.138 375.235 145.19 375.165C145.242 375.096 145.275 375.015 145.285 374.929C145.285 374.732 145.108 374.515 144.792 374.318L139.509 371.282C139.082 371.042 138.599 370.92 138.11 370.927V370.927Z" fill="#42E8E0"/>
<path d="M145.305 391.191C144.691 391.195 144.086 391.038 143.551 390.737L138.268 387.701C138.028 387.592 137.822 387.421 137.67 387.206C137.518 386.992 137.425 386.741 137.4 386.479C137.41 386.264 137.477 386.055 137.595 385.875C137.713 385.695 137.877 385.549 138.07 385.454L150.233 378.436C150.732 378.208 151.277 378.1 151.824 378.121C152.372 378.141 152.907 378.29 153.387 378.554L158.651 381.61C158.891 381.718 159.098 381.888 159.251 382.103C159.403 382.318 159.496 382.57 159.518 382.832C159.507 383.045 159.439 383.25 159.321 383.427C159.203 383.604 159.04 383.746 158.848 383.838L146.705 390.855C146.273 391.081 145.792 391.197 145.305 391.191ZM151.613 378.83C151.256 378.815 150.902 378.897 150.588 379.067L138.425 386.085C138.346 386.119 138.276 386.173 138.225 386.242C138.173 386.312 138.14 386.393 138.13 386.479C138.13 386.676 138.307 386.893 138.622 387.071L143.905 390.126C144.278 390.328 144.691 390.444 145.114 390.464C145.537 390.485 145.96 390.41 146.35 390.244L158.493 383.226C158.611 383.226 158.809 383.01 158.809 382.832C158.809 382.655 158.611 382.399 158.296 382.221L153.033 379.185C152.598 378.946 152.109 378.824 151.613 378.83V378.83Z" fill="#42E8E0"/>
<path d="M158.789 399.074C158.175 399.076 157.571 398.92 157.035 398.621L151.771 395.585C151.532 395.476 151.326 395.305 151.174 395.09C151.021 394.876 150.928 394.625 150.904 394.363C150.911 394.152 150.975 393.947 151.09 393.77C151.204 393.593 151.365 393.451 151.554 393.358L163.717 386.34C164.215 386.107 164.76 385.996 165.309 386.017C165.857 386.038 166.393 386.189 166.871 386.458L172.135 389.494C172.374 389.604 172.58 389.774 172.732 389.989C172.885 390.203 172.978 390.454 173.002 390.716C172.995 390.927 172.931 391.132 172.816 391.309C172.702 391.486 172.541 391.629 172.352 391.721L160.189 398.739C159.758 398.968 159.276 399.083 158.789 399.074ZM165.117 386.714C164.754 386.704 164.395 386.785 164.072 386.951L151.909 393.969C151.811 393.969 151.613 394.166 151.613 394.363C151.613 394.56 151.791 394.797 152.126 394.974L157.389 398.01C157.76 398.216 158.174 398.334 158.598 398.355C159.022 398.375 159.445 398.298 159.834 398.128L171.977 391.11C172.095 391.11 172.293 390.913 172.293 390.716C172.293 390.519 172.095 390.302 171.78 390.105L166.517 387.069C166.094 386.836 165.619 386.713 165.137 386.714H165.117Z" fill="#42E8E0"/>
<path d="M172.312 406.962C171.7 406.971 171.096 406.821 170.558 406.529L165.295 403.473C165.057 403.367 164.852 403.2 164.699 402.988C164.547 402.777 164.453 402.53 164.427 402.271C164.437 402.055 164.504 401.847 164.622 401.666C164.74 401.486 164.904 401.341 165.097 401.246L177.241 394.228C177.739 394 178.284 393.892 178.832 393.912C179.38 393.933 179.915 394.081 180.395 394.346L185.678 397.382C185.912 397.496 186.113 397.668 186.262 397.882C186.41 398.096 186.501 398.345 186.526 398.604C186.518 398.817 186.454 399.024 186.339 399.205C186.225 399.385 186.065 399.531 185.875 399.629L173.712 406.647C173.281 406.871 172.798 406.98 172.312 406.962V406.962ZM178.64 394.622C178.28 394.615 177.923 394.689 177.596 394.839L165.452 401.857C165.334 401.857 165.137 402.073 165.137 402.271C165.137 402.468 165.334 402.685 165.649 402.862L170.913 405.918C171.293 406.105 171.711 406.203 172.135 406.203C172.559 406.203 172.977 406.105 173.357 405.918L185.52 398.919C185.599 398.879 185.667 398.821 185.719 398.748C185.77 398.676 185.804 398.593 185.816 398.505C185.816 398.328 185.639 398.091 185.323 397.914L180.04 394.858C179.599 394.669 179.119 394.588 178.64 394.622V394.622Z" fill="#42E8E0"/>
<path opacity="0.4" d="M466.549 210.341L393.374 168.037C388.919 165.474 389.431 160.96 394.636 157.983C399.781 155.006 407.587 154.691 412.062 157.253L485.316 199.558C489.791 202.14 489.259 206.655 484.074 209.631C478.811 212.608 471.024 212.923 466.549 210.341Z" fill="#42E8E0"/>
<path opacity="0.4" d="M437.552 249.552L394.341 224.615C389.886 222.033 390.398 217.538 395.602 214.561C400.748 211.565 408.554 211.25 413.029 213.832L456.22 238.769C460.695 241.352 460.163 245.846 454.978 248.823C449.813 251.8 442.007 252.135 437.552 249.552Z" fill="#42E8E0"/>
<path opacity="0.4" d="M371.573 310.206L353.239 299.62C348.764 297.038 349.297 292.543 354.481 289.547C359.646 286.57 367.452 286.254 371.908 288.837L390.261 299.423C394.716 302.005 394.203 306.5 388.999 309.476C383.854 312.453 376.047 312.788 371.573 310.206Z" fill="#42E8E0"/>
<path opacity="0.4" d="M466.549 256.39L393.374 214.085C388.919 211.503 389.431 207.008 394.636 204.032C399.781 201.035 407.587 200.72 412.062 203.302L485.316 245.607C489.791 248.189 489.259 252.684 484.074 255.66C478.811 258.637 471.024 258.972 466.549 256.39Z" fill="#7CF1F5"/>
<path opacity="0.4" d="M358.523 273.185L273.145 223.903C268.67 221.32 269.203 216.806 274.387 213.829C279.552 210.853 287.358 210.537 291.813 213.12L377.191 262.402C381.666 264.985 381.133 269.479 375.949 272.456C370.784 275.433 362.978 275.768 358.523 273.185Z" fill="#7CF1F5"/>
<path opacity="0.4" d="M371.573 321.033L353.239 310.447C348.764 307.865 349.297 303.37 354.481 300.394C359.646 297.397 367.452 297.082 371.908 299.664L390.261 310.25C394.716 312.833 394.203 317.327 388.999 320.304C383.854 323.28 376.047 323.616 371.573 321.033Z" fill="#7CF1F5"/>
<path opacity="0.4" d="M225.241 270.567L206.908 259.981C202.433 257.399 202.966 252.885 208.15 249.908C213.315 246.931 221.102 246.616 225.577 249.198L243.91 259.784C248.385 262.367 247.852 266.861 242.668 269.838C237.503 272.815 229.756 273.15 225.241 270.567Z" fill="#7CF1F5"/>
<path d="M440.844 134.344C438.154 134.416 435.488 133.805 433.097 132.57L379.872 101.798C378.967 101.374 378.193 100.716 377.631 99.8899C377.069 99.0643 376.74 98.1026 376.678 97.1058C376.85 95.8231 377.348 94.606 378.125 93.5706C378.901 92.5352 379.93 91.7163 381.114 91.1919C386.377 88.1561 394.341 87.8407 398.855 90.4625L452.14 121.235C453.043 121.652 453.816 122.307 454.375 123.13C454.934 123.953 455.259 124.913 455.314 125.907C455.147 127.191 454.651 128.411 453.874 129.447C453.097 130.483 452.065 131.301 450.878 131.821C447.803 133.502 444.349 134.371 440.844 134.344V134.344ZM433.452 131.959C437.809 134.462 445.477 134.147 450.523 131.229C451.609 130.759 452.555 130.016 453.27 129.074C453.984 128.131 454.444 127.02 454.604 125.848C454.54 124.978 454.242 124.142 453.743 123.427C453.243 122.713 452.56 122.146 451.765 121.787L398.54 91.0145C394.183 88.4912 386.535 88.8066 381.469 91.7241C380.385 92.1978 379.441 92.9412 378.727 93.8833C378.013 94.8254 377.552 95.9349 377.388 97.1058C377.45 97.976 377.747 98.813 378.247 99.528C378.747 100.243 379.431 100.809 380.227 101.167L433.452 131.959Z" fill="#42E8E0"/>
<path d="M366.091 255.602C363.398 255.676 360.731 255.058 358.344 253.808L272.966 204.525C272.062 204.102 271.288 203.443 270.726 202.618C270.164 201.792 269.835 200.831 269.773 199.834C269.945 198.551 270.443 197.334 271.22 196.299C271.996 195.263 273.025 194.444 274.208 193.92C279.472 190.904 287.436 190.569 291.95 193.21L377.328 242.493C378.232 242.911 379.006 243.566 379.569 244.388C380.131 245.211 380.46 246.17 380.521 247.165C380.351 248.448 379.853 249.666 379.077 250.702C378.3 251.737 377.27 252.556 376.086 253.079C373.018 254.743 369.581 255.611 366.091 255.602V255.602ZM284.242 192.047C280.864 192.017 277.534 192.845 274.563 194.452C273.481 194.927 272.538 195.671 271.824 196.613C271.11 197.555 270.648 198.663 270.483 199.834C270.548 200.706 270.845 201.544 271.345 202.262C271.844 202.979 272.527 203.55 273.321 203.914L358.699 253.197C363.055 255.72 370.724 255.385 375.77 252.468C376.858 252 377.806 251.259 378.521 250.316C379.236 249.372 379.695 248.259 379.851 247.086C379.782 246.218 379.483 245.383 378.984 244.669C378.485 243.955 377.804 243.388 377.012 243.025L291.635 193.742C289.357 192.553 286.811 191.97 284.242 192.047V192.047Z" fill="#42E8E0"/>
<path d="M474.198 212.432C471.508 212.504 468.843 211.894 466.451 210.658L393.099 168.354C392.197 167.932 391.425 167.276 390.863 166.455C390.301 165.633 389.971 164.675 389.905 163.682C389.905 161.494 391.522 159.306 394.36 157.669C399.604 154.653 407.568 154.318 412.102 156.96L485.356 199.264C486.283 199.682 487.077 200.35 487.647 201.192C488.218 202.034 488.544 203.018 488.589 204.035C488.422 205.319 487.926 206.539 487.149 207.575C486.372 208.611 485.34 209.429 484.154 209.948C481.098 211.604 477.673 212.458 474.198 212.432V212.432ZM466.806 210.047C471.163 212.551 478.831 212.235 483.878 209.318C484.963 208.847 485.909 208.105 486.624 207.162C487.339 206.219 487.798 205.108 487.958 203.936C487.894 203.066 487.596 202.23 487.097 201.516C486.597 200.801 485.914 200.234 485.12 199.875L411.866 157.571C407.489 155.047 399.841 155.383 394.794 158.3C393.705 158.768 392.755 159.509 392.037 160.452C391.318 161.395 390.856 162.508 390.694 163.682C390.762 164.55 391.062 165.385 391.561 166.099C392.06 166.812 392.74 167.38 393.532 167.743L466.806 210.047Z" fill="#42E8E0"/>
<path d="M445.103 251.642C442.419 251.714 439.76 251.104 437.376 249.868L394.165 224.931C393.263 224.504 392.491 223.845 391.929 223.02C391.368 222.195 391.037 221.235 390.971 220.239C390.971 218.071 392.588 215.883 395.426 214.325C400.67 211.289 408.654 210.974 413.168 213.596L456.458 238.454C457.363 238.877 458.137 239.536 458.699 240.362C459.261 241.187 459.59 242.149 459.652 243.146C459.48 244.428 458.981 245.646 458.205 246.681C457.428 247.716 456.399 248.535 455.216 249.06C452.122 250.772 448.64 251.661 445.103 251.642V251.642ZM405.46 212.452C402.082 212.417 398.75 213.245 395.781 214.857C394.693 215.327 393.744 216.069 393.026 217.011C392.308 217.954 391.845 219.065 391.681 220.239C391.743 221.109 392.04 221.946 392.54 222.661C393.04 223.376 393.724 223.943 394.52 224.3L437.731 249.237C442.087 251.76 449.736 251.445 454.802 248.527C455.886 248.054 456.829 247.31 457.544 246.368C458.258 245.426 458.719 244.317 458.883 243.146C458.821 242.276 458.524 241.439 458.024 240.724C457.524 240.009 456.84 239.442 456.044 239.085L412.853 214.148C410.574 212.959 408.029 212.375 405.46 212.452V212.452Z" fill="#42E8E0"/>
<path opacity="0.4" d="M437.552 281.744L394.341 256.788C389.886 254.225 390.398 249.711 395.602 246.734C400.748 243.757 408.554 243.442 413.029 246.004L456.22 271.06C460.695 273.623 460.163 278.137 454.978 281.114C449.813 283.992 442.007 284.307 437.552 281.744Z" fill="#7CF1F5"/>
<path d="M379.143 312.3C376.452 312.372 373.787 311.761 371.395 310.526L353.062 299.92C352.159 299.5 351.386 298.845 350.824 298.023C350.262 297.2 349.932 296.242 349.869 295.248C349.869 293.06 351.485 290.891 354.304 289.334C359.567 286.298 367.532 285.983 372.046 288.605L390.399 299.191C391.301 299.617 392.073 300.277 392.634 301.102C393.196 301.927 393.526 302.887 393.592 303.882C393.592 306.051 391.976 308.239 389.137 309.796C386.072 311.465 382.633 312.326 379.143 312.3ZM364.358 287.442C360.972 287.415 357.634 288.25 354.659 289.866C353.576 290.34 352.632 291.083 351.917 292.025C351.203 292.967 350.742 294.077 350.578 295.248C350.643 296.117 350.94 296.954 351.44 297.668C351.939 298.383 352.622 298.95 353.417 299.309L371.75 309.895C376.127 312.418 383.775 312.103 388.822 309.185C389.91 308.716 390.859 307.974 391.577 307.031C392.295 306.089 392.758 304.977 392.922 303.803C392.86 302.933 392.563 302.096 392.063 301.381C391.563 300.666 390.879 300.1 390.083 299.742L371.691 289.137C369.427 287.966 366.906 287.383 364.358 287.442V287.442Z" fill="#42E8E0"/>
<path d="M232.812 267.39C230.121 267.464 227.455 266.854 225.065 265.615L206.712 255.01C205.811 254.589 205.041 253.933 204.482 253.11C203.924 252.288 203.597 251.33 203.538 250.338C203.71 249.055 204.208 247.838 204.985 246.803C205.761 245.767 206.79 244.948 207.974 244.424C213.217 241.388 221.201 241.073 225.715 243.694L244.049 254.28C244.953 254.703 245.727 255.362 246.289 256.188C246.851 257.014 247.18 257.975 247.242 258.972C247.07 260.255 246.572 261.472 245.795 262.507C245.019 263.543 243.99 264.362 242.807 264.886C239.74 266.552 236.302 267.413 232.812 267.39V267.39ZM217.929 242.551C214.55 242.519 211.22 243.346 208.25 244.956C207.164 245.427 206.218 246.169 205.503 247.112C204.789 248.054 204.329 249.166 204.169 250.338C204.233 251.207 204.531 252.043 205.03 252.758C205.53 253.473 206.213 254.039 207.008 254.399L225.341 264.985C229.697 267.508 237.346 267.192 242.412 264.275C243.498 263.804 244.444 263.062 245.158 262.119C245.873 261.177 246.333 260.065 246.493 258.893C246.431 258.023 246.134 257.186 245.634 256.471C245.134 255.756 244.45 255.19 243.654 254.832L225.321 244.246C223.043 243.057 220.497 242.474 217.929 242.551V242.551Z" fill="#42E8E0"/>
<path opacity="0.4" d="M261.177 374.237L150.902 310.583C143.391 306.246 144.338 298.755 153.011 293.669C161.685 288.662 174.696 288.11 182.305 292.447L292.56 356.1C300.071 360.437 299.125 367.928 290.451 373.014C281.797 378.021 268.688 378.573 261.177 374.237Z" fill="#7CF1F5"/>
<path opacity="0.4" d="M261.177 366.352L150.902 302.6C143.391 298.263 144.338 290.772 153.011 285.686C161.685 280.679 174.696 280.147 182.305 284.484L292.56 348.137C300.071 352.474 299.125 359.965 290.451 365.051C281.797 370.137 268.688 370.669 261.177 366.352Z" fill="#42E8E0"/>
<path d="M273.913 369.622C269.427 369.753 264.982 368.735 261.001 366.665L150.745 302.992C149.266 302.303 148 301.23 147.077 299.885C146.155 298.539 145.611 296.971 145.502 295.343C145.502 291.755 148.183 288.167 152.855 285.486C161.607 280.42 174.914 279.888 182.424 284.264L292.837 347.937C294.322 348.624 295.593 349.699 296.516 351.049C297.439 352.399 297.98 353.974 298.081 355.606C298.081 359.174 295.4 362.781 290.728 365.462C285.57 368.261 279.781 369.693 273.913 369.622V369.622ZM169.611 281.997C163.885 281.952 158.241 283.363 153.21 286.097C148.754 288.66 146.211 292.011 146.211 295.363C146.322 296.866 146.833 298.312 147.693 299.55C148.553 300.788 149.73 301.772 151.1 302.4L261.296 366.034C268.709 370.312 281.68 369.76 290.235 364.812C294.69 362.249 297.233 358.898 297.233 355.566C297.125 354.062 296.614 352.615 295.754 351.377C294.894 350.139 293.716 349.155 292.345 348.529L182.148 284.855C178.282 282.846 173.967 281.855 169.611 281.977V281.997Z" fill="#42E8E0"/>
<path opacity="0.4" d="M281.246 360.358C279.803 361.097 278.205 361.482 276.584 361.482C274.963 361.482 273.365 361.097 271.922 360.358C269.34 358.879 269.34 356.415 271.922 354.976C273.368 354.247 274.965 353.867 276.584 353.867C278.204 353.867 279.801 354.247 281.246 354.976C283.809 356.474 283.809 358.879 281.246 360.358Z" fill="#42E8E0"/>
<path d="M276.576 361.738C274.907 361.775 273.257 361.381 271.785 360.595C271.23 360.328 270.756 359.92 270.409 359.411C270.063 358.902 269.858 358.311 269.814 357.697C269.858 357.081 270.064 356.487 270.41 355.975C270.756 355.463 271.23 355.05 271.785 354.779C273.271 354.031 274.912 353.641 276.576 353.641C278.239 353.641 279.88 354.031 281.366 354.779C281.921 355.05 282.395 355.463 282.741 355.975C283.087 356.487 283.293 357.081 283.337 357.697C283.293 358.311 283.088 358.902 282.742 359.411C282.396 359.92 281.921 360.328 281.366 360.595V360.595C279.894 361.381 278.244 361.775 276.576 361.738ZM276.576 354.129C274.997 354.104 273.438 354.477 272.042 355.213C271.519 355.383 271.065 355.714 270.742 356.159C270.42 356.603 270.246 357.138 270.246 357.687C270.246 358.236 270.42 358.771 270.742 359.216C271.065 359.66 271.519 359.991 272.042 360.161C273.443 360.887 274.998 361.266 276.576 361.266C278.154 361.266 279.708 360.887 281.11 360.161V360.161C281.632 359.991 282.086 359.66 282.409 359.216C282.732 358.771 282.905 358.236 282.905 357.687C282.905 357.138 282.732 356.603 282.409 356.159C282.086 355.714 281.632 355.383 281.11 355.213C279.715 354.47 278.156 354.09 276.576 354.109V354.129Z" fill="#42E8E0"/>
<path opacity="0.4" d="M265.752 351.352C264.306 352.081 262.709 352.461 261.09 352.461C259.47 352.461 257.873 352.081 256.428 351.352C253.845 349.854 253.845 347.409 256.428 345.97C257.871 345.231 259.469 344.846 261.09 344.846C262.711 344.846 264.309 345.231 265.752 345.97C268.315 347.449 268.315 349.913 265.752 351.352Z" fill="#42E8E0"/>
<path d="M261.082 349.731C259.422 349.764 257.781 349.378 256.311 348.607C255.669 348.424 255.103 348.036 254.701 347.502C254.298 346.969 254.081 346.319 254.081 345.65C254.081 344.982 254.298 344.332 254.701 343.798C255.103 343.265 255.669 342.877 256.311 342.693C257.792 341.94 259.43 341.548 261.092 341.548C262.753 341.548 264.391 341.94 265.872 342.693C266.504 342.889 267.056 343.281 267.449 343.813C267.841 344.345 268.053 344.989 268.053 345.65C268.053 346.312 267.841 346.955 267.449 347.488C267.056 348.02 266.504 348.412 265.872 348.607C264.396 349.381 262.748 349.767 261.082 349.731V349.731ZM261.082 342.142C259.503 342.11 257.942 342.483 256.548 343.226C256.026 343.396 255.571 343.727 255.248 344.171C254.926 344.616 254.752 345.151 254.752 345.7C254.752 346.249 254.926 346.784 255.248 347.228C255.571 347.673 256.026 348.004 256.548 348.174C257.957 348.883 259.514 349.252 261.092 349.252C262.67 349.252 264.226 348.883 265.635 348.174C266.157 348.004 266.612 347.673 266.935 347.228C267.257 346.784 267.431 346.249 267.431 345.7C267.431 345.151 267.257 344.616 266.935 344.171C266.612 343.727 266.157 343.396 265.635 343.226C264.235 342.481 262.667 342.107 261.082 342.142Z" fill="#42E8E0"/>
<path d="M220.788 317.129C219.12 317.159 217.472 316.766 215.998 315.985C215.401 315.768 214.886 315.372 214.522 314.852C214.158 314.332 213.963 313.712 213.963 313.078C213.963 312.443 214.158 311.823 214.522 311.303C214.886 310.783 215.401 310.387 215.998 310.17C217.483 309.421 219.124 309.031 220.788 309.031C222.452 309.031 224.092 309.421 225.578 310.17C226.175 310.387 226.69 310.783 227.054 311.303C227.418 311.823 227.613 312.443 227.613 313.078C227.613 313.712 227.418 314.332 227.054 314.852C226.69 315.372 226.175 315.768 225.578 315.985V315.985C224.104 316.766 222.456 317.159 220.788 317.129V317.129ZM220.788 309.519C219.208 309.485 217.647 309.858 216.254 310.604C215.732 310.774 215.277 311.105 214.954 311.549C214.632 311.994 214.458 312.529 214.458 313.078C214.458 313.627 214.632 314.162 214.954 314.606C215.277 315.05 215.732 315.381 216.254 315.552C217.66 316.262 219.213 316.632 220.788 316.632C222.363 316.632 223.916 316.262 225.322 315.552V315.552C225.844 315.381 226.299 315.05 226.621 314.606C226.944 314.162 227.118 313.627 227.118 313.078C227.118 312.529 226.944 311.994 226.621 311.549C226.299 311.105 225.844 310.774 225.322 310.604C223.93 309.856 222.368 309.482 220.788 309.519V309.519Z" fill="#42E8E0"/>
<path opacity="0.4" d="M225.457 328.816C224.014 329.555 222.416 329.94 220.795 329.94C219.174 329.94 217.576 329.555 216.133 328.816C213.551 327.337 213.551 324.873 216.133 323.434C217.579 322.705 219.176 322.325 220.795 322.325C222.415 322.325 224.012 322.705 225.457 323.434C228.02 324.932 228.02 327.337 225.457 328.816Z" fill="#42E8E0"/>
<path d="M205.311 300.448C203.643 300.479 201.995 300.085 200.52 299.305C199.889 299.11 199.336 298.717 198.944 298.185C198.551 297.653 198.339 297.009 198.339 296.348C198.339 295.687 198.551 295.043 198.944 294.511C199.336 293.979 199.889 293.586 200.52 293.391C202.003 292.642 203.64 292.252 205.301 292.252C206.962 292.252 208.599 292.642 210.081 293.391C210.724 293.574 211.289 293.962 211.692 294.496C212.094 295.029 212.312 295.68 212.312 296.348C212.312 297.016 212.094 297.666 211.692 298.2C211.289 298.733 210.724 299.121 210.081 299.305C208.613 300.082 206.972 300.475 205.311 300.448V300.448ZM205.311 292.839C203.725 292.805 202.157 293.178 200.757 293.923C200.235 294.093 199.78 294.424 199.458 294.869C199.135 295.313 198.961 295.848 198.961 296.397C198.961 296.946 199.135 297.481 199.458 297.926C199.78 298.37 200.235 298.701 200.757 298.871C202.167 299.58 203.723 299.949 205.301 299.949C206.879 299.949 208.435 299.58 209.845 298.871C210.367 298.701 210.822 298.37 211.144 297.926C211.467 297.481 211.64 296.946 211.64 296.397C211.64 295.848 211.467 295.313 211.144 294.869C210.822 294.424 210.367 294.093 209.845 293.923C208.451 293.18 206.89 292.807 205.311 292.839V292.839Z" fill="#42E8E0"/>
<path opacity="0.4" d="M210.043 320.538C208.6 321.276 207.002 321.662 205.381 321.662C203.76 321.662 202.162 321.276 200.719 320.538C198.156 319.059 198.156 316.595 200.719 315.156C202.165 314.426 203.762 314.046 205.381 314.046C207 314.046 208.597 314.426 210.043 315.156C212.547 316.654 212.547 319.059 210.043 320.538Z" fill="#42E8E0"/>
<path d="M189.819 280.166C188.151 280.196 186.503 279.803 185.029 279.022C184.432 278.805 183.917 278.409 183.553 277.889C183.189 277.369 182.994 276.75 182.994 276.115C182.994 275.48 183.189 274.86 183.553 274.34C183.917 273.82 184.432 273.425 185.029 273.207C186.514 272.458 188.155 272.068 189.819 272.068C191.483 272.068 193.123 272.458 194.609 273.207C195.206 273.425 195.721 273.82 196.085 274.34C196.449 274.86 196.644 275.48 196.644 276.115C196.644 276.75 196.449 277.369 196.085 277.889C195.721 278.409 195.206 278.805 194.609 279.022V279.022C193.135 279.803 191.487 280.196 189.819 280.166ZM189.819 272.557C188.239 272.519 186.677 272.893 185.285 273.641C184.763 273.811 184.308 274.142 183.985 274.586C183.663 275.031 183.489 275.566 183.489 276.115C183.489 276.664 183.663 277.199 183.985 277.643C184.308 278.088 184.763 278.419 185.285 278.589C186.691 279.299 188.244 279.669 189.819 279.669C191.394 279.669 192.947 279.299 194.353 278.589V278.589C194.875 278.419 195.33 278.088 195.652 277.643C195.975 277.199 196.149 276.664 196.149 276.115C196.149 275.566 195.975 275.031 195.652 274.586C195.33 274.142 194.875 273.811 194.353 273.641C192.96 272.895 191.398 272.522 189.819 272.557V272.557Z" fill="#42E8E0"/>
<path opacity="0.4" d="M194.274 311.964C192.828 312.693 191.231 313.073 189.611 313.073C187.992 313.073 186.395 312.693 184.949 311.964C182.367 310.465 182.367 308.021 184.949 306.582C186.392 305.843 187.99 305.458 189.611 305.458C191.233 305.458 192.83 305.843 194.274 306.582C196.777 308.06 196.777 310.485 194.274 311.964Z" fill="#42E8E0"/>
<path opacity="0.4" d="M238.608 330.807L252.092 338.594C254.339 339.875 254.063 342.122 251.481 343.621C250.159 344.353 248.685 344.766 247.176 344.827C245.667 344.889 244.164 344.597 242.787 343.975L229.304 336.09C227.056 334.809 227.332 332.561 229.915 331.063C231.244 330.347 232.722 329.951 234.231 329.906C235.74 329.862 237.239 330.17 238.608 330.807V330.807Z" fill="#42E8E0"/>
<path d="M246.551 338.811C245.181 338.857 243.822 338.544 242.609 337.904L229.164 330.197C228.705 329.981 228.313 329.646 228.028 329.226C227.744 328.806 227.578 328.318 227.548 327.811C227.605 327.14 227.84 326.496 228.228 325.946C228.616 325.395 229.143 324.957 229.756 324.677C231.113 323.915 232.632 323.486 234.188 323.424C235.744 323.363 237.292 323.67 238.705 324.322L252.229 332.168C252.689 332.387 253.082 332.725 253.367 333.149C253.651 333.572 253.817 334.064 253.845 334.573C253.771 335.234 253.524 335.865 253.129 336.401C252.735 336.937 252.207 337.36 251.598 337.628C250.042 338.442 248.306 338.849 246.551 338.811V338.811ZM234.842 323.908C233.167 323.884 231.516 324.299 230.051 325.111C229.526 325.342 229.068 325.705 228.723 326.164C228.378 326.623 228.156 327.163 228.08 327.732C228.115 328.154 228.261 328.559 228.503 328.905C228.746 329.251 229.076 329.527 229.46 329.704L242.944 337.471C244.279 338.078 245.739 338.362 247.205 338.301C248.671 338.239 250.101 337.833 251.381 337.116C251.907 336.884 252.364 336.522 252.709 336.063C253.055 335.604 253.276 335.063 253.352 334.494C253.318 334.073 253.172 333.668 252.929 333.322C252.687 332.975 252.356 332.7 251.972 332.523L238.489 324.638C237.353 324.094 236.099 323.843 234.842 323.908Z" fill="#42E8E0"/>
<g opacity="0.8">
<path opacity="0.8" d="M338.396 417.922L340.209 417.686C340.412 417.536 340.622 417.398 340.84 417.272L480.803 336.448C483.037 335.433 485.479 334.958 487.931 335.061C490.383 335.163 492.776 335.841 494.918 337.039L576.707 384.173C577.673 384.696 578.524 385.407 579.211 386.263L580.177 385.987V388.806C580.13 389.559 579.88 390.285 579.453 390.906C579.026 391.528 578.438 392.021 577.752 392.334L437.789 473.158C435.552 474.164 433.112 474.634 430.662 474.531C428.212 474.429 425.819 473.756 423.674 472.567L341.865 425.413C340.917 425.011 340.095 424.362 339.484 423.533C338.874 422.704 338.498 421.726 338.396 420.702V420.702V417.922Z" fill="#9FFFF8"/>
<path opacity="0.8" d="M437.631 470.319L577.594 389.495C581.202 387.406 580.749 383.759 576.569 381.354L494.957 334.141C492.816 332.943 490.422 332.265 487.97 332.162C485.519 332.059 483.077 332.535 480.843 333.549L340.88 414.373C337.272 416.463 337.725 420.11 341.905 422.515L423.556 469.668C425.688 470.869 428.072 471.554 430.517 471.667C432.961 471.78 435.398 471.318 437.631 470.319V470.319Z" fill="#7CF1F5"/>
<path opacity="0.8" d="M415.04 464.839L568.132 376.445L551.888 367.062L398.796 455.456L415.04 464.839Z" fill="url(#paint5_linear)"/>
</g>
<g opacity="0.1">
<path opacity="0.1" d="M489.612 419.32C489.612 401.086 476.798 378.908 461.008 369.781C453.123 365.208 445.928 364.794 440.763 367.81L435.342 370.984L436.919 371.122C433.71 375.518 432.116 380.886 432.404 386.321C432.404 404.555 445.218 426.732 461.008 435.86C465.41 438.692 470.612 440.02 475.832 439.644L475.714 441.084L481.194 437.87L481.411 437.752C486.497 434.677 489.612 428.29 489.612 419.32Z" fill="#9FFFF8"/>
<path opacity="0.1" d="M475.775 441.058C486.948 434.607 486.95 413.694 475.78 394.346C464.61 374.999 446.497 364.544 435.324 370.994C424.151 377.445 424.149 398.359 435.319 417.706C446.49 437.054 464.602 447.509 475.775 441.058Z" fill="#42E8E0"/>
</g>
<path d="M489.612 419.32C489.612 401.086 476.798 378.908 461.008 369.781C453.123 365.208 445.928 364.794 440.763 367.81L435.342 370.984L436.919 371.122C433.71 375.518 432.116 380.886 432.404 386.321C432.404 404.555 445.218 426.732 461.008 435.86C465.41 438.692 470.612 440.02 475.832 439.644L475.714 441.084L481.194 437.87L481.411 437.752C486.497 434.677 489.612 428.29 489.612 419.32Z" fill="#9FFFF8"/>
<path d="M475.775 441.058C486.948 434.607 486.95 413.694 475.78 394.346C464.61 374.999 446.497 364.544 435.324 370.994C424.151 377.445 424.149 398.359 435.319 417.706C446.49 437.054 464.602 447.509 475.775 441.058Z" fill="#42E8E0"/>
<defs>
<linearGradient id="paint0_linear" x1="0.334717" y1="150.109" x2="607.802" y2="243.479" gradientUnits="userSpaceOnUse">
<stop stop-color="#FDFDFE"/>
<stop offset="1" stop-color="#E0E3EF"/>
</linearGradient>
<linearGradient id="paint1_linear" x1="0.390869" y1="125.559" x2="202.015" y2="610.157" gradientUnits="userSpaceOnUse">
<stop stop-color="#474C57"/>
<stop offset="1" stop-color="#2C313C"/>
</linearGradient>
<linearGradient id="paint2_linear" x1="7.35547" y1="129.688" x2="203.917" y2="602.139" gradientUnits="userSpaceOnUse">
<stop stop-color="#474C57"/>
<stop offset="1" stop-color="#2C313C"/>
</linearGradient>
<radialGradient id="paint3_radial" cx="0" cy="0" r="1" gradientUnits="userSpaceOnUse" gradientTransform="translate(202.65 319.218) scale(447.901)">
<stop stop-color="#7CF1F5"/>
<stop offset="0.11" stop-color="#6CE1E5"/>
<stop offset="0.22" stop-color="#4BC5C9"/>
<stop offset="0.34" stop-color="#3DB4B8"/>
<stop offset="0.46" stop-color="#26A0A5"/>
<stop offset="0.58" stop-color="#4AC4C8"/>
<stop offset="0.71" stop-color="#44A6A9"/>
<stop offset="0.85" stop-color="#1CD4DA"/>
<stop offset="1" stop-color="#2CB3B8"/>
</radialGradient>
<linearGradient id="paint4_linear" x1="134859" y1="85923.5" x2="114906" y2="40124.9" gradientUnits="userSpaceOnUse">
<stop stop-color="#42E8E0"/>
<stop offset="0.11" stop-color="#37B6BF"/>
<stop offset="0.22" stop-color="#2C87A1"/>
<stop offset="0.34" stop-color="#235F87"/>
<stop offset="0.46" stop-color="#1C3F72"/>
<stop offset="0.58" stop-color="#162561"/>
<stop offset="0.71" stop-color="#121355"/>
<stop offset="0.85" stop-color="#10084E"/>
<stop offset="1" stop-color="#0F054C"/>
</linearGradient>
<linearGradient id="paint5_linear" x1="398.796" y1="367.062" x2="458.481" y2="510.473" gradientUnits="userSpaceOnUse">
<stop stop-color="#474C57"/>
<stop offset="1" stop-color="#2C313C"/>
</linearGradient>
</defs>
</svg>
