<svg width="649" height="518" viewBox="0 0 649 518" fill="none" xmlns="http://www.w3.org/2000/svg">
<path d="M201.115 505.961C196.319 506.078 191.572 504.979 187.316 502.767L5.75806 397.992C2.13085 395.883 0.120117 392.965 0.120117 389.752C0.120117 385.809 2.99823 382.024 8.00536 379.127L354.069 179.374C363.492 173.933 377.725 173.361 385.945 178.073L567.424 282.848C571.071 284.957 573.062 287.875 573.062 291.088C573.062 295.031 570.183 298.796 565.176 301.713L219.113 501.466C213.59 504.462 207.398 506.008 201.115 505.961ZM187.631 502.018C195.516 506.592 209.532 505.961 218.738 500.697L564.861 300.944C569.632 298.185 572.372 294.577 572.372 291.088C572.372 288.17 570.499 285.489 567.108 283.518L385.61 178.664C377.725 174.091 363.709 174.721 354.522 179.965L8.41933 379.817C3.62905 382.557 0.908637 386.184 0.908637 389.673C1.02441 391.286 1.57239 392.839 2.49505 394.167C3.4177 395.496 4.681 396.551 6.15232 397.223L187.631 502.018Z" fill="#7CF1F5"/>
<path d="M572.766 242.613L546.685 247.088L385.826 154.219C377.764 149.567 363.669 150.139 354.285 155.52L46.5441 333.135L0.454834 341.02V357.363C0.454834 360.339 2.18959 363.277 5.87594 365.248L187.355 470.023C195.437 474.695 209.532 474.104 218.896 468.722L564.999 269.068C570.006 266.17 572.588 262.464 572.667 258.955L572.766 242.613Z" fill="url(#paint0_linear)"/>
<path d="M187.434 453.755L5.9552 348.901C-2.10746 344.249 -1.10209 336.108 8.22221 330.726L354.345 130.953C363.669 125.572 377.764 125.039 385.886 129.652L567.365 234.427C575.447 239.099 574.422 247.221 565.117 252.603L218.916 452.454C209.611 457.816 195.516 458.408 187.434 453.755Z" fill="url(#paint1_linear)"/>
<path d="M564.999 252.606L218.916 452.457C209.611 457.819 195.516 458.371 187.375 453.759L5.95494 348.905C4.59063 348.252 3.3973 347.291 2.46988 346.097C1.54247 344.902 0.906539 343.508 0.61269 342.025C0.100149 345.376 1.85461 348.668 5.95494 351.034L187.434 455.809C195.516 460.481 209.611 459.889 218.975 454.508L564.999 254.735C570.578 251.502 573.14 247.303 572.608 243.439C572.174 246.672 569.612 249.964 564.999 252.606Z" fill="white"/>
<path opacity="0.51" d="M187.788 449.699L12.7753 348.63C4.89009 344.116 5.9546 336.231 14.9635 331.026L354.679 134.96C363.688 129.756 377.33 129.184 385.136 133.698L560.149 234.767C568.034 239.282 566.989 247.147 557.961 252.352L218.265 448.438C209.256 453.642 195.614 454.194 187.788 449.699Z" fill="url(#paint2_linear)"/>
<path style="mix-blend-mode:lighten" opacity="0.5" d="M187.788 445.184L12.7753 344.115C4.89009 339.6 5.9546 331.715 14.9635 326.511L354.679 130.444C363.688 125.24 377.33 124.668 385.136 129.183L560.149 230.252C568.034 234.766 566.989 242.632 557.961 247.836L218.265 443.922C209.256 449.126 195.614 449.698 187.788 445.184Z" fill="url(#paint3_radial)"/>
<path style="mix-blend-mode:lighten" opacity="0.8" d="M201.016 448.773C196.326 448.901 191.679 447.836 187.513 445.678L12.4998 344.589C10.9265 343.863 9.57902 342.725 8.6003 341.295C7.62158 339.865 7.04811 338.197 6.94071 336.467C6.94071 332.682 9.75969 328.878 14.688 326.039L354.384 129.953C363.551 124.67 377.468 124.039 385.413 128.691L560.445 229.76C562.014 230.496 563.356 231.64 564.33 233.072C565.305 234.505 565.876 236.173 565.985 237.902C565.985 241.687 563.166 245.491 558.257 248.33L218.541 444.416C213.164 447.332 207.133 448.832 201.016 448.773ZM188.084 444.692C195.713 449.108 209.138 448.635 217.989 443.431L557.685 247.364C562.239 244.723 564.861 241.273 564.861 237.902C564.746 236.372 564.222 234.901 563.345 233.642C562.468 232.384 561.269 231.383 559.873 230.746L384.861 129.677C377.212 125.261 363.807 125.734 354.956 130.938L15.2596 327.005C10.6862 329.647 8.08408 333.096 8.08408 336.467C8.19149 337.994 8.70746 339.464 9.57797 340.723C10.4485 341.982 11.6415 342.984 13.0321 343.623L188.084 444.692Z" fill="url(#paint4_linear)"/>
<path d="M201.016 448.593C196.359 448.73 191.744 447.671 187.611 445.518L12.5789 344.449C11.0385 343.727 9.71961 342.606 8.75931 341.202C7.79901 339.798 7.23238 338.162 7.11835 336.465C7.11835 332.739 9.91762 328.993 14.767 326.174L354.483 130.088C363.59 124.825 377.429 124.174 385.334 128.827L560.347 229.896C561.893 230.611 563.219 231.73 564.183 233.135C565.147 234.54 565.715 236.179 565.827 237.879C565.827 241.605 563.028 245.351 558.159 248.17L218.463 444.256C213.11 447.16 207.106 448.653 201.016 448.593ZM187.986 444.847C195.674 449.283 209.178 448.79 218.068 443.586L557.764 247.499C562.397 244.838 565.038 241.329 565.038 237.899C564.925 236.336 564.393 234.832 563.498 233.545C562.603 232.258 561.379 231.236 559.953 230.586L384.94 129.517C377.252 125.081 363.768 125.574 354.877 130.778L15.1613 326.864C10.5484 329.526 7.90688 333.015 7.90688 336.465C8.01776 338.024 8.54682 339.524 9.43839 340.807C10.33 342.091 11.551 343.11 12.9731 343.759L187.986 444.847Z" fill="#42E8E0"/>
<path d="M22.89 349.831C22.8199 349.828 22.7519 349.806 22.693 349.768C22.634 349.73 22.5864 349.676 22.5549 349.614C22.5057 349.522 22.4946 349.415 22.5242 349.315C22.5537 349.215 22.6214 349.132 22.7126 349.082C30.4795 344.823 37.3791 335.282 39.863 325.426L71.5616 199.42C75.5043 183.945 87.687 173.26 96.6958 173.004C101.269 172.846 104.581 175.488 106.217 180.377L115.187 208.764C115.536 210.123 116.192 211.384 117.104 212.45C118.017 213.516 119.161 214.359 120.45 214.914C123.506 216.117 127.409 215.506 131.47 213.219L137.877 209.611C145.111 205.511 151.774 196.542 154.435 187.296C158.694 172.531 170.206 162.734 178.643 162.103C180.641 161.893 182.653 162.339 184.374 163.374C186.095 164.409 187.433 165.976 188.184 167.839L198.041 189.346C198.516 190.474 199.226 191.488 200.124 192.321C201.021 193.153 202.085 193.786 203.245 194.176C205.033 194.601 206.89 194.656 208.7 194.337C210.51 194.018 212.236 193.333 213.772 192.323L221.085 188.163C228.833 183.787 235.831 173.911 238.118 164.133L269.875 27.9946C273.443 12.6972 285.882 1.50016 294.832 0.987621C296.988 0.836543 299.129 1.44051 300.888 2.69588C302.647 3.95126 303.914 5.77974 304.472 7.86749L352.848 143.888C353.244 145.175 353.922 146.357 354.833 147.35C355.743 148.342 356.863 149.119 358.111 149.624C359.943 150.136 361.864 150.245 363.742 149.946C365.62 149.647 367.411 148.945 368.993 147.89L393.733 133.893C393.777 133.856 393.828 133.83 393.883 133.815C393.939 133.8 393.997 133.797 394.053 133.807C394.11 133.816 394.163 133.838 394.21 133.871C394.258 133.904 394.297 133.946 394.326 133.995C394.355 134.045 394.373 134.1 394.379 134.157C394.384 134.214 394.377 134.272 394.358 134.326C394.339 134.38 394.309 134.429 394.269 134.47C394.229 134.511 394.181 134.543 394.127 134.564L369.367 148.56C367.693 149.683 365.793 150.426 363.8 150.736C361.808 151.046 359.772 150.915 357.835 150.354C356.478 149.814 355.259 148.975 354.269 147.9C353.28 146.826 352.544 145.542 352.118 144.144L303.723 8.12375C303.23 6.18169 302.064 4.4776 300.432 3.31511C298.8 2.15261 296.809 1.60723 294.813 1.77615C286.158 2.26898 274.074 13.2295 270.585 28.172L238.808 164.311C236.442 174.443 229.464 184.3 221.421 188.853L214.087 192.993C212.462 194.068 210.632 194.798 208.713 195.137C206.794 195.476 204.825 195.417 202.93 194.965C201.669 194.536 200.513 193.845 199.538 192.938C198.563 192.031 197.791 190.928 197.272 189.701L187.416 168.214C186.738 166.489 185.512 165.036 183.927 164.078C182.342 163.119 180.485 162.709 178.643 162.911C170.561 163.522 159.285 173.122 155.125 187.552C152.405 196.975 145.604 206.122 138.192 210.321L131.785 213.948C127.527 216.353 123.387 216.964 120.095 215.683C118.699 215.084 117.459 214.174 116.468 213.023C115.477 211.872 114.763 210.509 114.378 209.04L105.429 180.653C103.97 176.06 100.895 173.674 96.6564 173.812C88.1206 174.069 75.9971 184.733 72.2516 199.656L40.5135 325.662C37.9902 335.736 30.9329 345.375 22.9886 349.771C22.9594 349.797 22.926 349.817 22.89 349.831Z" fill="#42E8E0"/>
<path d="M49.4421 365.465C49.3573 365.462 49.2754 365.433 49.2087 365.38C49.142 365.328 49.094 365.255 49.0719 365.173C49.0497 365.091 49.0546 365.004 49.0858 364.926C49.117 364.847 49.1728 364.78 49.245 364.735C57.0317 360.457 63.9116 350.936 66.3954 341.079L98.0941 215.073C102.037 199.599 114.239 188.914 123.228 188.658C127.821 188.48 131.232 191.142 132.769 196.03L141.719 224.417C142.073 225.796 142.742 227.074 143.672 228.151C144.602 229.228 145.769 230.076 147.081 230.627C150.137 231.829 154.06 231.218 158.101 228.932L164.507 225.324C171.762 221.224 178.405 212.254 181.086 203.009C185.325 188.263 196.955 178.446 205.274 177.816C207.273 177.599 209.287 178.042 211.01 179.078C212.733 180.114 214.069 181.685 214.815 183.552L224.672 205.059C225.146 206.184 225.854 207.196 226.747 208.029C227.641 208.861 228.7 209.495 229.856 209.889C231.645 210.315 233.501 210.37 235.312 210.052C237.122 209.733 238.848 209.047 240.383 208.036L247.716 203.876C255.464 199.5 262.462 189.624 264.729 179.846L296.506 43.7073C300.074 28.4297 312.513 17.2129 321.443 16.7004H322.114C324.17 16.6881 326.173 17.359 327.807 18.6077C329.441 19.8565 330.614 21.6124 331.142 23.5999L379.538 159.62C379.931 160.906 380.605 162.088 381.513 163.08C382.42 164.073 383.536 164.85 384.782 165.357C386.613 165.868 388.534 165.978 390.412 165.678C392.29 165.379 394.081 164.678 395.663 163.622L420.64 149.508C420.729 149.458 420.834 149.446 420.932 149.473C421.03 149.501 421.112 149.566 421.162 149.655C421.212 149.744 421.224 149.849 421.196 149.947C421.169 150.045 421.103 150.128 421.014 150.178L396.057 164.292C391.859 166.658 387.758 167.308 384.525 166.086C383.165 165.55 381.945 164.713 380.954 163.637C379.964 162.562 379.231 161.276 378.809 159.877L330.413 23.7971C329.92 21.855 328.754 20.1509 327.122 18.9884C325.491 17.8259 323.499 17.2805 321.503 17.4495C312.829 17.9423 300.745 28.9028 297.275 43.8453L265.498 179.984C263.132 190.117 256.134 199.973 248.111 204.527L240.777 208.667C239.151 209.739 237.322 210.468 235.403 210.807C233.484 211.146 231.516 211.088 229.62 210.638C228.361 210.21 227.207 209.522 226.232 208.619C225.258 207.715 224.484 206.617 223.962 205.394L214.106 183.887C213.428 182.163 212.203 180.709 210.617 179.751C209.032 178.792 207.175 178.383 205.333 178.584C197.271 179.195 185.995 188.796 181.835 203.226C179.115 212.649 172.314 221.815 164.902 225.994L158.495 229.622C154.237 232.027 150.078 232.638 146.805 231.356C145.388 230.771 144.125 229.867 143.113 228.715C142.101 227.563 141.368 226.194 140.97 224.713L132.02 196.326C130.581 191.733 127.506 189.328 123.248 189.486C114.732 189.742 102.608 200.426 98.8629 215.33L67.1642 341.296C64.6212 351.37 57.5837 361.009 49.6393 365.405L49.4421 365.465Z" fill="#42E8E0"/>
<path d="M326.687 18.669C326.622 18.6866 326.554 18.6866 326.489 18.669L299.62 2.89853C299.536 2.84207 299.476 2.75671 299.45 2.65861C299.425 2.56051 299.436 2.45649 299.482 2.36626C299.507 2.32077 299.541 2.28083 299.581 2.24894C299.622 2.21704 299.668 2.1939 299.718 2.18094C299.768 2.16798 299.821 2.16549 299.872 2.17363C299.923 2.18178 299.971 2.20038 300.015 2.22827L326.884 17.9988C326.929 18.0232 326.969 18.0568 327.001 18.0974C327.033 18.138 327.056 18.1847 327.069 18.2347C327.082 18.2847 327.084 18.3368 327.076 18.3878C327.068 18.4388 327.05 18.4876 327.022 18.531C326.982 18.5805 326.931 18.6191 326.872 18.6432C326.813 18.6674 326.75 18.6762 326.687 18.669Z" fill="#42E8E0"/>
<path d="M211.306 180.159C211.242 180.176 211.174 180.176 211.109 180.159L183.925 164.171C183.841 164.115 183.78 164.03 183.755 163.932C183.729 163.833 183.741 163.729 183.787 163.639C183.811 163.594 183.845 163.554 183.885 163.522C183.926 163.49 183.973 163.467 184.023 163.454C184.073 163.441 184.125 163.438 184.176 163.447C184.227 163.455 184.276 163.473 184.319 163.501L211.503 179.37C211.549 179.395 211.589 179.428 211.621 179.469C211.653 179.509 211.676 179.556 211.689 179.606C211.702 179.656 211.704 179.708 211.696 179.759C211.688 179.81 211.669 179.859 211.641 179.903C211.618 179.974 211.573 180.037 211.513 180.082C211.454 180.128 211.381 180.155 211.306 180.159Z" fill="#42E8E0"/>
<path d="M128.846 191.198C128.782 191.216 128.714 191.216 128.649 191.198L100.322 174.6C100.276 174.575 100.236 174.542 100.204 174.501C100.172 174.461 100.149 174.414 100.136 174.364C100.123 174.314 100.121 174.262 100.129 174.211C100.137 174.16 100.156 174.111 100.184 174.068C100.237 173.98 100.322 173.916 100.422 173.891C100.521 173.865 100.627 173.879 100.716 173.93L129.044 190.528C129.089 190.553 129.129 190.586 129.161 190.627C129.193 190.667 129.216 190.714 129.229 190.764C129.242 190.814 129.244 190.866 129.236 190.917C129.228 190.968 129.209 191.017 129.182 191.06C129.14 191.107 129.088 191.144 129.03 191.168C128.972 191.192 128.909 191.202 128.846 191.198Z" fill="#42E8E0"/>
<path d="M22.89 349.831C22.8199 349.828 22.7519 349.806 22.693 349.768C22.634 349.73 22.5864 349.676 22.5549 349.614C22.5057 349.522 22.4946 349.415 22.5242 349.315C22.5537 349.215 22.6214 349.132 22.7126 349.082C30.4795 344.823 37.3791 335.282 39.863 325.426L71.5616 199.42C75.5043 183.945 87.687 173.26 96.6958 173.004C101.269 172.846 104.581 175.488 106.217 180.377L115.187 208.764C115.536 210.123 116.192 211.384 117.104 212.45C118.017 213.516 119.161 214.359 120.45 214.914C123.506 216.117 127.409 215.506 131.47 213.219L137.877 209.611C145.111 205.511 151.774 196.542 154.435 187.296C158.694 172.531 170.206 162.734 178.643 162.103C180.641 161.893 182.653 162.339 184.374 163.374C186.095 164.409 187.433 165.976 188.184 167.839L198.041 189.346C198.516 190.474 199.226 191.488 200.124 192.321C201.021 193.153 202.085 193.786 203.245 194.176C205.033 194.601 206.89 194.656 208.7 194.337C210.51 194.018 212.236 193.333 213.772 192.323L221.085 188.163C228.833 183.787 235.831 173.911 238.118 164.133L269.875 27.9946C273.443 12.6972 285.882 1.50016 294.832 0.987621C296.988 0.836543 299.129 1.44051 300.888 2.69588C302.647 3.95126 303.914 5.77974 304.472 7.86749L352.848 143.888C353.244 145.175 353.922 146.357 354.833 147.35C355.743 148.342 356.863 149.119 358.111 149.624C359.943 150.136 361.864 150.245 363.742 149.946C365.62 149.647 367.411 148.945 368.993 147.89L393.733 133.893C393.777 133.856 393.828 133.83 393.883 133.815C393.939 133.8 393.997 133.797 394.053 133.807C394.11 133.816 394.163 133.838 394.21 133.871C394.258 133.904 394.297 133.946 394.326 133.995C394.355 134.045 394.373 134.1 394.379 134.157C394.384 134.214 394.377 134.272 394.358 134.326C394.339 134.38 394.309 134.429 394.269 134.47C394.229 134.511 394.181 134.543 394.127 134.564L369.367 148.56C367.693 149.683 365.793 150.426 363.8 150.736C361.808 151.046 359.772 150.915 357.835 150.354C356.478 149.814 355.259 148.975 354.269 147.9C353.28 146.826 352.544 145.542 352.118 144.144L303.723 8.12375C303.23 6.18169 302.064 4.4776 300.432 3.31511C298.8 2.15261 296.809 1.60723 294.813 1.77615C286.158 2.26898 274.074 13.2295 270.585 28.172L238.808 164.311C236.442 174.443 229.464 184.3 221.421 188.853L214.087 192.993C212.462 194.068 210.632 194.798 208.713 195.137C206.794 195.476 204.825 195.417 202.93 194.965C201.669 194.536 200.513 193.845 199.538 192.938C198.563 192.031 197.791 190.928 197.272 189.701L187.416 168.214C186.738 166.489 185.512 165.036 183.927 164.078C182.342 163.119 180.485 162.709 178.643 162.911C170.561 163.522 159.285 173.122 155.125 187.552C152.405 196.975 145.604 206.122 138.192 210.321L131.785 213.948C127.527 216.353 123.387 216.964 120.095 215.683C118.699 215.084 117.459 214.174 116.468 213.023C115.477 211.872 114.763 210.509 114.378 209.04L105.429 180.653C103.97 176.06 100.895 173.674 96.6564 173.812C88.1206 174.069 75.9971 184.733 72.2516 199.656L40.5135 325.662C37.9902 335.736 30.9329 345.375 22.9886 349.771C22.9594 349.797 22.926 349.817 22.89 349.831Z" fill="#42E8E0"/>
<path d="M49.4421 365.465C49.3573 365.462 49.2754 365.433 49.2087 365.38C49.142 365.328 49.094 365.255 49.0719 365.173C49.0497 365.091 49.0546 365.004 49.0858 364.926C49.117 364.847 49.1728 364.78 49.245 364.735C57.0317 360.457 63.9116 350.936 66.3954 341.079L98.0941 215.073C102.037 199.599 114.239 188.914 123.228 188.658C127.821 188.48 131.232 191.142 132.769 196.03L141.719 224.417C142.073 225.796 142.742 227.074 143.672 228.151C144.602 229.228 145.769 230.076 147.081 230.627C150.137 231.829 154.06 231.218 158.101 228.932L164.507 225.324C171.762 221.224 178.405 212.254 181.086 203.009C185.325 188.263 196.955 178.446 205.274 177.816C207.273 177.599 209.287 178.042 211.01 179.078C212.733 180.114 214.069 181.685 214.815 183.552L224.672 205.059C225.146 206.184 225.854 207.196 226.747 208.029C227.641 208.861 228.7 209.495 229.856 209.889C231.645 210.315 233.501 210.37 235.312 210.052C237.122 209.733 238.848 209.047 240.383 208.036L247.716 203.876C255.464 199.5 262.462 189.624 264.729 179.846L296.506 43.7073C300.074 28.4297 312.513 17.2129 321.443 16.7004H322.114C324.17 16.6881 326.173 17.359 327.807 18.6077C329.441 19.8565 330.614 21.6124 331.142 23.5999L379.538 159.62C379.931 160.906 380.605 162.088 381.513 163.08C382.42 164.073 383.536 164.85 384.782 165.357C386.613 165.868 388.534 165.978 390.412 165.678C392.29 165.379 394.081 164.678 395.663 163.622L420.64 149.508C420.729 149.458 420.834 149.446 420.932 149.473C421.03 149.501 421.112 149.566 421.162 149.655C421.212 149.744 421.224 149.849 421.196 149.947C421.169 150.045 421.103 150.128 421.014 150.178L396.057 164.292C391.859 166.658 387.758 167.308 384.525 166.086C383.165 165.55 381.945 164.713 380.954 163.637C379.964 162.562 379.231 161.276 378.809 159.877L330.413 23.7971C329.92 21.855 328.754 20.1509 327.122 18.9884C325.491 17.8259 323.499 17.2805 321.503 17.4495C312.829 17.9423 300.745 28.9028 297.275 43.8453L265.498 179.984C263.132 190.117 256.134 199.973 248.111 204.527L240.777 208.667C239.151 209.739 237.322 210.468 235.403 210.807C233.484 211.146 231.516 211.088 229.62 210.638C228.361 210.21 227.207 209.522 226.232 208.619C225.258 207.715 224.484 206.617 223.962 205.394L214.106 183.887C213.428 182.163 212.203 180.709 210.617 179.751C209.032 178.792 207.175 178.383 205.333 178.584C197.271 179.195 185.995 188.796 181.835 203.226C179.115 212.649 172.314 221.815 164.902 225.994L158.495 229.622C154.237 232.027 150.078 232.638 146.805 231.356C145.388 230.771 144.125 229.867 143.113 228.715C142.101 227.563 141.368 226.194 140.97 224.713L132.02 196.326C130.581 191.733 127.506 189.328 123.248 189.486C114.732 189.742 102.608 200.426 98.8629 215.33L67.1642 341.296C64.6212 351.37 57.5837 361.009 49.6393 365.405L49.4421 365.465Z" fill="#42E8E0"/>
<path style="mix-blend-mode:lighten" opacity="0.5" d="M393.929 134.249L369.169 148.245C361.599 152.523 354.897 150.847 352.492 144.026L304.096 8.00609C298.577 -7.52783 275.295 6.25163 270.209 28.074L238.432 164.213C236.106 174.069 229.108 184.044 221.222 188.519L213.889 192.659C206.773 196.601 200.366 195.438 197.626 189.505L187.769 167.998C181.619 154.672 160.624 167.012 154.75 187.395C152.049 196.798 145.386 205.768 137.994 209.947L131.607 213.574C123.82 217.951 117.019 216.058 114.752 208.883L105.684 180.535C100.637 164.508 77.297 177.598 71.7774 199.558L40.1378 325.564C37.6343 335.421 30.6164 345.159 22.7903 349.437L393.929 134.249Z" fill="url(#paint5_linear)"/>
<path style="mix-blend-mode:lighten" opacity="0.5" d="M421.093 149.231L395.88 163.483C388.31 167.781 381.607 166.086 379.183 159.285L330.807 23.2641C325.287 7.7302 302.006 21.5294 296.9 43.3518L265.142 179.49C262.816 189.446 255.818 199.322 247.933 203.777L240.599 207.917C233.483 211.859 227.076 210.716 224.336 204.782L214.48 183.275C208.349 169.949 187.354 182.27 181.48 202.673C178.759 212.076 172.096 221.046 164.724 225.205L158.317 228.832C150.55 233.228 143.729 231.316 141.462 224.141L132.513 195.754C127.466 179.747 104.126 192.836 98.606 214.777L66.7891 340.822C64.2855 350.679 57.2677 360.398 49.4416 364.675L421.093 149.231Z" fill="url(#paint6_linear)"/>
<path opacity="0.4" d="M130.7 160.227C130.688 161.63 131.093 163.006 131.863 164.179C132.633 165.353 133.734 166.271 135.026 166.819C136.318 167.367 137.744 167.52 139.123 167.257C140.502 166.995 141.772 166.33 142.772 165.345C143.773 164.361 144.46 163.102 144.745 161.728C145.03 160.354 144.902 158.926 144.375 157.625C143.849 156.324 142.949 155.208 141.788 154.418C140.628 153.629 139.259 153.201 137.856 153.189C136.924 153.181 135.999 153.357 135.135 153.707C134.271 154.056 133.485 154.572 132.82 155.226C132.156 155.879 131.626 156.657 131.263 157.515C130.899 158.373 130.708 159.295 130.7 160.227Z" fill="#42E8E0"/>
<path d="M134.722 160.271C134.718 160.878 134.894 161.473 135.228 161.98C135.562 162.488 136.038 162.885 136.598 163.122C137.157 163.359 137.774 163.425 138.371 163.311C138.967 163.198 139.517 162.911 139.951 162.485C140.384 162.06 140.682 161.516 140.807 160.921C140.932 160.327 140.877 159.709 140.651 159.145C140.425 158.581 140.037 158.097 139.536 157.754C139.035 157.41 138.444 157.223 137.837 157.215C137.431 157.21 137.029 157.285 136.652 157.436C136.276 157.587 135.933 157.811 135.644 158.095C135.354 158.379 135.124 158.717 134.965 159.091C134.807 159.464 134.725 159.865 134.722 160.271Z" fill="#42E8E0"/>
<path opacity="0.4" d="M253.689 38.0419C254.138 34.1484 251.347 30.6275 247.453 30.1777C243.56 29.7279 240.039 32.5195 239.589 36.4131C239.139 40.3066 241.931 43.8275 245.824 44.2773C249.718 44.7271 253.239 41.9355 253.689 38.0419Z" fill="#42E8E0"/>
<path d="M243.538 37.183C243.526 37.7967 243.697 38.4 244.029 38.9162C244.361 39.4325 244.839 39.8383 245.402 40.0822C245.966 40.3261 246.589 40.397 247.192 40.286C247.796 40.1749 248.353 39.8869 248.792 39.4584C249.232 39.03 249.534 38.4806 249.661 37.88C249.787 37.2794 249.732 36.6548 249.503 36.0855C249.274 35.5162 248.88 35.0279 248.372 34.6828C247.865 34.3377 247.266 34.1512 246.652 34.1472C246.249 34.142 245.848 34.2164 245.473 34.3662C245.097 34.5159 244.756 34.7381 244.466 35.02C244.177 35.3019 243.946 35.638 243.787 36.0092C243.628 36.3803 243.543 36.7792 243.538 37.183Z" fill="#42E8E0"/>
<path opacity="0.4" d="M36.5299 184.201C36.5182 185.604 36.923 186.98 37.6931 188.153C38.4632 189.327 39.5639 190.246 40.8562 190.793C42.1484 191.341 43.574 191.494 44.9529 191.231C46.3317 190.969 47.6018 190.304 48.6025 189.32C49.6032 188.335 50.2896 187.077 50.5749 185.702C50.8602 184.328 50.7316 182.9 50.2053 181.599C49.6791 180.298 48.7788 179.182 47.6183 178.392C46.4578 177.603 45.0893 177.175 43.6858 177.163C42.7538 177.156 41.8294 177.331 40.9654 177.681C40.1014 178.03 39.3147 178.547 38.6502 179.2C37.9857 179.854 37.4565 180.632 37.0927 181.49C36.7289 182.348 36.5376 183.269 36.5299 184.201Z" fill="#42E8E0"/>
<path d="M40.6307 184.241C40.6229 184.854 40.7972 185.456 41.1317 185.969C41.4661 186.483 41.9455 186.886 42.5092 187.127C43.0728 187.368 43.6953 187.436 44.2977 187.322C44.9 187.209 45.4552 186.919 45.8928 186.49C46.3303 186.061 46.6306 185.511 46.7554 184.911C46.8803 184.311 46.8242 183.687 46.5941 183.119C46.3641 182.551 45.9706 182.064 45.4634 181.72C44.9562 181.376 44.3583 181.19 43.7453 181.186C43.3398 181.181 42.9373 181.256 42.5609 181.407C42.1846 181.558 41.8418 181.782 41.5523 182.066C41.2628 182.35 41.0323 182.688 40.8741 183.061C40.716 183.435 40.6332 183.836 40.6307 184.241Z" fill="#42E8E0"/>
<path style="mix-blend-mode:lighten" opacity="0.8" d="M452.063 517.964L287.045 422.691L483.21 309.439L648.228 404.712L452.063 517.964Z" fill="url(#paint7_radial)"/>
<path d="M483.036 309.086L286.838 422.269L287.232 422.952L483.43 309.769L483.036 309.086Z" fill="#42E8E0"/>
<g opacity="0.4">
<path opacity="0.4" d="M125.398 336.762L137.541 329.744C138.271 329.33 138.172 328.62 137.344 328.128L132.081 325.092C131.655 324.856 131.181 324.723 130.695 324.703C130.209 324.682 129.725 324.775 129.281 324.974L117.118 331.991C116.409 332.405 116.488 333.135 117.316 333.608L122.599 336.663C123.024 336.902 123.499 337.035 123.986 337.052C124.473 337.069 124.957 336.97 125.398 336.762Z" fill="#7CF1F5"/>
<path opacity="0.4" d="M138.883 344.666L151.046 337.648C151.756 337.234 151.657 336.505 150.829 336.032L145.566 332.996C145.142 332.756 144.667 332.62 144.18 332.599C143.694 332.579 143.209 332.674 142.766 332.878L130.603 339.895C129.894 340.309 129.992 341.019 130.82 341.512L136.084 344.548C136.509 344.783 136.984 344.917 137.469 344.937C137.955 344.958 138.439 344.865 138.883 344.666Z" fill="#7CF1F5"/>
<path opacity="0.4" d="M152.386 352.55L164.549 345.532C165.259 345.118 165.18 344.409 164.352 343.916L159.069 340.88C158.644 340.644 158.169 340.511 157.683 340.491C157.197 340.47 156.713 340.563 156.27 340.762L144.126 347.779C143.397 348.193 143.496 348.923 144.324 349.396L149.587 352.432C150.011 352.672 150.486 352.808 150.972 352.828C151.459 352.849 151.944 352.753 152.386 352.55Z" fill="#7CF1F5"/>
<path opacity="0.4" d="M165.907 360.457L178.051 353.439C178.78 353.025 178.681 352.296 177.853 351.823L172.59 348.767C172.165 348.532 171.69 348.398 171.204 348.378C170.718 348.357 170.235 348.45 169.791 348.649L157.628 355.667C156.918 356.081 156.997 356.81 157.825 357.283L163.088 360.339C163.517 360.574 163.995 360.708 164.484 360.728C164.973 360.749 165.46 360.656 165.907 360.457Z" fill="#7CF1F5"/>
<path opacity="0.4" d="M179.413 368.343L191.556 361.325C192.286 360.911 192.187 360.182 191.359 359.708L186.096 356.673C185.672 356.433 185.197 356.297 184.71 356.276C184.224 356.256 183.739 356.351 183.296 356.554L171.133 363.572C170.424 363.986 170.503 364.716 171.331 365.189L176.653 368.225C177.073 368.454 177.541 368.584 178.019 368.604C178.498 368.625 178.974 368.535 179.413 368.343Z" fill="#7CF1F5"/>
<path opacity="0.4" d="M192.914 376.225L205.077 369.227C205.787 368.794 205.688 368.084 204.86 367.591L199.597 364.555C199.172 364.32 198.697 364.186 198.211 364.166C197.726 364.145 197.242 364.238 196.798 364.437L184.655 371.455C183.925 371.869 184.024 372.598 184.852 373.071L190.115 376.127C190.54 376.365 191.016 376.499 191.503 376.516C191.99 376.533 192.474 376.433 192.914 376.225Z" fill="#7CF1F5"/>
<path opacity="0.4" d="M206.419 384.131L218.582 377.114C219.292 376.7 219.213 375.97 218.385 375.497L213.102 372.56C212.678 372.32 212.203 372.184 211.716 372.163C211.23 372.143 210.745 372.238 210.302 372.442L198.159 379.459C197.43 379.873 197.528 380.583 198.356 381.076L203.62 384.112C204.053 384.332 204.531 384.448 205.017 384.451C205.503 384.455 205.983 384.345 206.419 384.131Z" fill="#7CF1F5"/>
<path opacity="0.4" d="M220.021 392.017L232.164 385C232.893 384.586 232.795 383.876 231.967 383.383L226.625 380.446C226.199 380.21 225.725 380.077 225.239 380.057C224.753 380.036 224.269 380.129 223.825 380.328L211.662 387.345C210.953 387.759 211.032 388.489 211.86 388.962L217.123 391.998C217.568 392.236 218.065 392.362 218.569 392.365C219.074 392.369 219.572 392.249 220.021 392.017Z" fill="#7CF1F5"/>
<path opacity="0.4" d="M103.968 350.321L116.131 343.303C116.841 342.89 116.762 342.16 115.934 341.687L110.67 338.651C110.241 338.415 109.764 338.282 109.275 338.262C108.786 338.241 108.299 338.334 107.851 338.533L95.7082 345.551C94.9788 345.965 95.0773 346.694 95.9053 347.167L101.169 350.203C101.593 350.443 102.067 350.579 102.554 350.6C103.041 350.62 103.525 350.525 103.968 350.321Z" fill="#7CF1F5"/>
<path opacity="0.4" d="M117.512 358.232L129.656 351.214C130.385 350.8 130.286 350.071 129.459 349.598L124.195 346.542C123.77 346.307 123.295 346.173 122.809 346.153C122.324 346.132 121.84 346.225 121.396 346.424L109.233 353.442C108.523 353.856 108.602 354.585 109.43 355.058L114.713 358.114C115.139 358.349 115.613 358.482 116.099 358.503C116.585 358.523 117.069 358.431 117.512 358.232Z" fill="#7CF1F5"/>
<path opacity="0.4" d="M130.996 366.116L143.159 359.098C143.868 358.684 143.77 357.955 142.942 357.481L137.678 354.446C137.254 354.206 136.78 354.07 136.293 354.049C135.806 354.029 135.322 354.124 134.879 354.327L122.716 361.345C122.006 361.759 122.085 362.469 122.933 362.962L128.196 365.997C128.622 366.233 129.096 366.366 129.582 366.387C130.068 366.407 130.552 366.315 130.996 366.116Z" fill="#7CF1F5"/>
<path opacity="0.4" d="M144.501 374.002L156.664 366.984C157.373 366.57 157.294 365.86 156.467 365.367L151.183 362.332C150.758 362.096 150.284 361.963 149.798 361.942C149.312 361.922 148.828 362.015 148.384 362.213L136.241 369.231C135.512 369.645 135.61 370.375 136.438 370.848L141.701 373.883C142.125 374.123 142.6 374.259 143.087 374.28C143.573 374.3 144.058 374.205 144.501 374.002Z" fill="#7CF1F5"/>
<path opacity="0.4" d="M158.003 381.904L170.166 374.886C170.876 374.472 170.797 373.743 169.969 373.27L164.706 370.214C164.275 369.981 163.797 369.852 163.308 369.834C162.819 369.817 162.333 369.914 161.887 370.116L149.744 377.133C149.014 377.547 149.113 378.257 149.941 378.75L155.204 381.786C155.63 382.021 156.104 382.155 156.59 382.175C157.076 382.196 157.56 382.103 158.003 381.904Z" fill="#7CF1F5"/>
<path opacity="0.4" d="M171.527 389.791L183.671 382.773C184.4 382.359 184.301 381.63 183.474 381.157L178.21 378.121C177.785 377.886 177.31 377.752 176.824 377.732C176.339 377.711 175.855 377.804 175.411 378.003L163.248 385.021C162.538 385.435 162.617 386.164 163.445 386.637L168.728 389.673C169.152 389.913 169.627 390.049 170.113 390.069C170.6 390.09 171.085 389.995 171.527 389.791Z" fill="#7CF1F5"/>
<path opacity="0.4" d="M185.031 397.697L197.194 390.679C197.904 390.265 197.805 389.536 196.977 389.062L191.714 386.007C191.288 385.771 190.814 385.638 190.328 385.618C189.842 385.597 189.358 385.69 188.915 385.889L176.752 392.906C176.042 393.32 176.14 394.05 176.968 394.523L182.232 397.578C182.657 397.814 183.132 397.947 183.618 397.968C184.103 397.988 184.587 397.896 185.031 397.697Z" fill="#7CF1F5"/>
<path opacity="0.4" d="M198.533 405.581L210.696 398.563C211.406 398.149 211.327 397.42 210.499 396.947L205.216 393.911C204.792 393.671 204.317 393.535 203.831 393.514C203.344 393.494 202.86 393.589 202.417 393.793L190.274 400.81C189.544 401.224 189.643 401.934 190.471 402.427L195.734 405.463C196.16 405.698 196.634 405.832 197.12 405.852C197.606 405.873 198.09 405.78 198.533 405.581Z" fill="#7CF1F5"/>
<path opacity="0.4" d="M92.6151 366.116L104.758 359.098C105.488 358.684 105.389 357.955 104.561 357.481L99.2979 354.446C98.874 354.206 98.3992 354.07 97.9125 354.049C97.4258 354.029 96.9412 354.124 96.4986 354.327L84.3356 361.345C83.6259 361.759 83.7048 362.469 84.5327 362.962L89.7962 365.997C90.2251 366.233 90.7027 366.367 91.1918 366.387C91.6808 366.408 92.1679 366.315 92.6151 366.116Z" fill="#7CF1F5"/>
<path opacity="0.4" d="M106.119 374.002L118.262 366.984C118.992 366.57 118.893 365.86 118.065 365.367L112.802 362.332C112.376 362.096 111.902 361.963 111.416 361.942C110.93 361.922 110.446 362.015 110.003 362.213L97.8001 369.231C97.0904 369.645 97.1693 370.375 97.9972 370.848L103.28 373.883C103.709 374.13 104.191 374.269 104.685 374.29C105.179 374.311 105.671 374.212 106.119 374.002Z" fill="#7CF1F5"/>
<path opacity="0.4" d="M119.622 381.906L131.785 374.888C132.495 374.474 132.416 373.745 131.568 373.272L126.305 370.216C125.878 369.982 125.403 369.852 124.917 369.834C124.431 369.817 123.947 369.914 123.506 370.118L111.362 377.135C110.633 377.549 110.732 378.259 111.559 378.752L116.823 381.788C117.248 382.023 117.723 382.157 118.209 382.177C118.694 382.198 119.178 382.105 119.622 381.906Z" fill="#7CF1F5"/>
<path opacity="0.4" d="M133.125 389.791L145.288 382.773C145.998 382.359 145.919 381.63 145.091 381.157L139.808 378.121C139.382 377.886 138.908 377.752 138.422 377.732C137.936 377.711 137.452 377.804 137.008 378.003L124.865 385.021C124.136 385.435 124.234 386.164 125.062 386.637L130.326 389.673C130.75 389.913 131.224 390.049 131.711 390.069C132.198 390.09 132.682 389.995 133.125 389.791Z" fill="#7CF1F5"/>
<path opacity="0.4" d="M146.649 397.697L158.792 390.679C159.521 390.265 159.423 389.536 158.595 389.062L153.332 386.007C152.906 385.771 152.432 385.638 151.946 385.618C151.46 385.597 150.976 385.69 150.532 385.889L138.369 392.906C137.66 393.32 137.738 394.05 138.566 394.523L143.85 397.578C144.275 397.814 144.749 397.947 145.235 397.968C145.721 397.988 146.205 397.896 146.649 397.697Z" fill="#7CF1F5"/>
<path opacity="0.4" d="M160.153 405.581L172.316 398.563C173.025 398.149 172.927 397.42 172.099 396.947L166.796 393.911C166.372 393.671 165.897 393.535 165.411 393.514C164.924 393.494 164.439 393.589 163.997 393.793L151.834 400.81C151.124 401.224 151.203 401.934 152.051 402.427L157.314 405.463C157.744 405.705 158.226 405.841 158.719 405.862C159.213 405.883 159.704 405.786 160.153 405.581Z" fill="#7CF1F5"/>
<path opacity="0.4" d="M173.657 413.467L185.82 406.449C186.529 406.035 186.451 405.325 185.623 404.832L180.339 401.796C179.914 401.561 179.44 401.428 178.954 401.407C178.468 401.387 177.984 401.479 177.54 401.678L165.397 408.696C164.668 409.11 164.766 409.839 165.594 410.312L170.857 413.348C171.281 413.588 171.756 413.724 172.243 413.745C172.73 413.765 173.214 413.67 173.657 413.467Z" fill="#7CF1F5"/>
</g>
<path d="M124.154 331.163C123.541 331.174 122.936 331.024 122.399 330.729L117.116 327.693C116.882 327.579 116.681 327.407 116.532 327.193C116.384 326.979 116.293 326.73 116.268 326.471C116.27 326.256 116.331 326.046 116.446 325.865C116.561 325.683 116.725 325.538 116.919 325.446L129.082 318.428C129.58 318.2 130.125 318.092 130.673 318.112C131.221 318.133 131.756 318.281 132.236 318.546L137.499 321.602C137.737 321.708 137.942 321.875 138.095 322.086C138.247 322.297 138.341 322.545 138.367 322.804C138.357 323.019 138.29 323.228 138.172 323.408C138.054 323.589 137.89 323.734 137.697 323.829L125.553 330.847C125.12 331.066 124.639 331.175 124.154 331.163ZM130.462 318.822C130.105 318.807 129.751 318.888 129.437 319.059L117.274 326.057C117.195 326.097 117.127 326.156 117.075 326.228C117.024 326.3 116.991 326.383 116.978 326.471C116.978 326.668 117.155 326.885 117.471 327.062L122.754 330.118C123.126 330.32 123.54 330.435 123.963 330.456C124.386 330.476 124.808 330.401 125.198 330.236L137.342 323.218C137.46 323.218 137.657 323.001 137.657 322.824C137.657 322.646 137.46 322.39 137.145 322.213L131.881 319.157C131.437 318.954 130.95 318.859 130.462 318.881V318.822Z" fill="#42E8E0"/>
<path d="M137.657 339.05C137.043 339.051 136.439 338.895 135.903 338.596L130.64 335.56C130.4 335.451 130.194 335.28 130.042 335.066C129.89 334.851 129.797 334.6 129.772 334.338C129.779 334.127 129.844 333.923 129.958 333.745C130.073 333.568 130.233 333.426 130.423 333.333L142.586 326.315C143.082 326.078 143.628 325.964 144.177 325.985C144.727 326.005 145.263 326.159 145.74 326.433L151.003 329.469C151.242 329.579 151.448 329.749 151.601 329.964C151.753 330.179 151.846 330.429 151.871 330.691C151.861 330.902 151.796 331.106 151.682 331.282C151.568 331.459 151.408 331.602 151.22 331.697L139.057 338.715C138.626 338.943 138.145 339.058 137.657 339.05ZM143.966 326.69C143.609 326.681 143.257 326.763 142.941 326.926L130.778 333.944C130.778 333.944 130.482 334.141 130.482 334.338C130.482 334.535 130.679 334.752 130.994 334.949L136.258 337.985C136.629 338.192 137.042 338.31 137.466 338.33C137.89 338.351 138.313 338.273 138.702 338.104L150.865 331.086C150.964 331.086 151.161 330.888 151.161 330.691C151.161 330.494 150.964 330.258 150.648 330.08L145.385 327.222C144.96 326.948 144.47 326.791 143.966 326.768V326.69Z" fill="#42E8E0"/>
<path d="M151.162 346.935C150.55 346.943 149.945 346.794 149.408 346.501L144.144 343.446C143.904 343.338 143.697 343.167 143.544 342.953C143.392 342.738 143.299 342.486 143.277 342.223C143.288 342.011 143.356 341.806 143.474 341.629C143.592 341.452 143.755 341.31 143.947 341.218L156.09 334.2C156.588 333.967 157.133 333.857 157.682 333.877C158.23 333.898 158.766 334.049 159.244 334.318L164.528 337.354C164.764 337.465 164.967 337.636 165.116 337.851C165.265 338.066 165.354 338.316 165.375 338.576C165.372 338.791 165.309 339 165.194 339.181C165.08 339.362 164.917 339.507 164.725 339.602L152.562 346.619C152.13 346.843 151.648 346.952 151.162 346.935ZM157.49 334.594C157.129 334.578 156.77 334.652 156.445 334.811L144.302 341.829C144.184 341.829 143.986 342.046 143.986 342.223C143.986 342.401 144.184 342.657 144.499 342.834L149.762 345.87C150.132 346.081 150.546 346.202 150.97 346.222C151.395 346.243 151.819 346.163 152.207 345.989L164.37 338.971C164.449 338.937 164.519 338.882 164.57 338.813C164.622 338.744 164.655 338.662 164.666 338.576C164.666 338.379 164.488 338.163 164.173 337.985L158.909 335.107C158.48 334.846 157.992 334.697 157.49 334.673V334.594Z" fill="#42E8E0"/>
<path d="M164.685 354.915C164.064 354.917 163.454 354.761 162.91 354.462L157.647 351.426C157.408 351.316 157.202 351.146 157.05 350.931C156.897 350.716 156.804 350.466 156.78 350.204C156.786 349.99 156.853 349.783 156.971 349.605C157.09 349.428 157.255 349.287 157.45 349.198L169.613 342.18C170.1 341.928 170.641 341.796 171.19 341.796C171.739 341.796 172.28 341.928 172.767 342.18L178.03 345.236C178.271 345.344 178.478 345.514 178.63 345.729C178.783 345.944 178.875 346.196 178.898 346.458C178.887 346.671 178.819 346.876 178.701 347.053C178.583 347.23 178.419 347.372 178.227 347.464L166.084 354.481C165.662 354.742 165.18 354.891 164.685 354.915ZM170.993 342.555C170.636 342.54 170.282 342.621 169.968 342.792L157.805 349.809C157.686 349.809 157.489 350.007 157.489 350.204C157.489 350.401 157.686 350.618 158.002 350.815L163.265 353.851C163.64 354.057 164.056 354.175 164.484 354.196C164.911 354.216 165.337 354.139 165.729 353.969L177.873 346.951C177.991 346.951 178.188 346.734 178.188 346.557C178.188 346.379 177.991 346.123 177.676 345.946L172.412 342.989C171.984 342.724 171.495 342.575 170.993 342.555Z" fill="#42E8E0"/>
<path d="M178.188 362.802C177.574 362.806 176.969 362.649 176.434 362.348L171.151 359.312C170.916 359.198 170.715 359.026 170.567 358.812C170.418 358.598 170.328 358.349 170.303 358.09C170.312 357.88 170.377 357.676 170.492 357.499C170.606 357.322 170.765 357.179 170.954 357.085L183.117 350.067C183.614 349.834 184.159 349.724 184.708 349.744C185.256 349.765 185.792 349.916 186.271 350.185L191.534 353.221C191.773 353.331 191.979 353.501 192.132 353.716C192.284 353.93 192.377 354.181 192.401 354.443C192.395 354.657 192.328 354.864 192.21 355.042C192.091 355.219 191.926 355.36 191.731 355.449L179.588 362.466C179.157 362.695 178.676 362.81 178.188 362.802ZM184.496 350.441C184.14 350.431 183.787 350.512 183.471 350.678L171.308 357.696C171.23 357.731 171.162 357.786 171.11 357.855C171.058 357.924 171.025 358.005 171.013 358.09C171.038 358.225 171.096 358.351 171.182 358.458C171.268 358.564 171.379 358.648 171.506 358.701L176.789 361.737C177.16 361.943 177.573 362.061 177.997 362.082C178.421 362.102 178.844 362.025 179.233 361.855L191.376 354.837C191.495 354.837 191.692 354.64 191.692 354.443C191.692 354.246 191.495 354.029 191.179 353.832L185.916 350.875C185.501 350.615 185.025 350.465 184.536 350.441H184.496Z" fill="#42E8E0"/>
<path d="M191.692 370.687C191.08 370.696 190.475 370.546 189.938 370.254L184.674 367.218C184.433 367.105 184.227 366.931 184.074 366.713C183.922 366.495 183.83 366.241 183.807 365.976C183.818 365.766 183.884 365.563 183.998 365.387C184.112 365.21 184.27 365.067 184.457 364.971L196.62 357.953C197.119 357.725 197.664 357.617 198.211 357.637C198.759 357.658 199.294 357.806 199.774 358.071L205.038 361.107C205.278 361.22 205.485 361.394 205.637 361.612C205.79 361.83 205.882 362.084 205.905 362.349C205.894 362.559 205.828 362.762 205.714 362.938C205.6 363.115 205.441 363.258 205.255 363.354L193.092 370.372C192.659 370.594 192.178 370.702 191.692 370.687ZM198.02 358.347C197.657 358.336 197.298 358.418 196.975 358.584L184.832 365.601C184.714 365.601 184.516 365.799 184.516 365.976C184.516 366.153 184.714 366.41 185.029 366.587L190.292 369.643C190.672 369.83 191.091 369.928 191.515 369.928C191.938 369.928 192.357 369.83 192.737 369.643L204.9 362.644C204.9 362.644 205.195 362.428 205.195 362.25C205.195 362.073 205.018 361.817 204.683 361.639L199.42 358.761C198.993 358.512 198.513 358.37 198.02 358.347Z" fill="#42E8E0"/>
<path d="M205.215 378.593C204.595 378.595 203.984 378.439 203.441 378.14L198.178 375.104C197.939 374.994 197.733 374.824 197.58 374.609C197.428 374.394 197.335 374.144 197.311 373.882C197.317 373.668 197.384 373.461 197.502 373.283C197.62 373.105 197.786 372.965 197.981 372.876L210.163 365.858C210.661 365.626 211.206 365.515 211.755 365.536C212.303 365.556 212.839 365.707 213.318 365.977L218.601 369.012C218.84 369.122 219.046 369.293 219.198 369.507C219.35 369.722 219.444 369.973 219.468 370.235C219.461 370.448 219.395 370.655 219.277 370.833C219.158 371.011 218.992 371.152 218.798 371.24L206.635 378.258C206.2 378.493 205.71 378.609 205.215 378.593ZM211.524 366.233C211.161 366.222 210.802 366.304 210.479 366.469L198.336 373.487C198.217 373.487 198.02 373.684 198.02 373.882C198.02 374.079 198.217 374.296 198.533 374.493L203.796 377.529C204.167 377.735 204.581 377.853 205.005 377.873C205.428 377.894 205.851 377.816 206.241 377.647L218.404 370.629C218.483 370.595 218.552 370.541 218.604 370.471C218.656 370.402 218.689 370.321 218.699 370.235C218.699 370.038 218.522 369.821 218.206 369.624L212.923 366.647C212.502 366.387 212.019 366.244 211.524 366.233Z" fill="#42E8E0"/>
<path d="M218.719 386.475C218.101 386.483 217.49 386.334 216.945 386.041L211.682 382.986C211.441 382.878 211.234 382.708 211.082 382.493C210.929 382.278 210.837 382.026 210.814 381.764C210.825 381.551 210.893 381.346 211.011 381.169C211.129 380.992 211.293 380.85 211.485 380.758L223.647 373.74C224.146 373.512 224.691 373.404 225.239 373.425C225.786 373.445 226.322 373.594 226.802 373.859L232.065 376.894C232.304 377.004 232.51 377.175 232.662 377.389C232.815 377.604 232.908 377.855 232.932 378.117C232.923 378.332 232.855 378.541 232.738 378.721C232.62 378.901 232.455 379.047 232.262 379.142L220.119 386.16C219.686 386.379 219.205 386.487 218.719 386.475ZM225.027 374.135C224.672 374.113 224.318 374.188 224.002 374.351L211.839 381.369C211.721 381.369 211.544 381.586 211.544 381.764C211.569 381.898 211.627 382.025 211.713 382.131C211.799 382.238 211.91 382.322 212.036 382.375L217.32 385.41C217.689 385.621 218.103 385.742 218.528 385.762C218.952 385.783 219.376 385.703 219.764 385.529L231.848 378.471C231.966 378.471 232.164 378.274 232.164 378.077C232.164 377.88 231.966 377.663 231.651 377.486L226.447 374.529C226.012 374.287 225.525 374.151 225.027 374.135Z" fill="#42E8E0"/>
<path d="M102.767 344.785C102.15 344.781 101.542 344.632 100.993 344.351L95.8279 341.295C95.5875 341.187 95.3803 341.017 95.2278 340.802C95.0753 340.587 94.983 340.336 94.9605 340.073C94.9715 339.861 95.0396 339.655 95.1575 339.478C95.2755 339.302 95.439 339.16 95.6307 339.068L107.774 332.05C108.275 331.817 108.823 331.706 109.375 331.727C109.927 331.748 110.466 331.899 110.948 332.168L116.211 335.204C116.45 335.314 116.656 335.484 116.809 335.699C116.961 335.913 117.054 336.164 117.079 336.426C117.069 336.641 117.002 336.85 116.884 337.031C116.766 337.211 116.602 337.356 116.408 337.451L104.245 344.449C103.797 344.705 103.282 344.822 102.767 344.785ZM109.075 332.444C108.714 332.427 108.355 332.502 108.03 332.661L95.8279 339.679C95.7096 339.679 95.5124 339.896 95.5124 340.073C95.5124 340.251 95.7096 340.507 96.025 340.684L101.288 343.72C101.659 343.926 102.073 344.044 102.497 344.065C102.921 344.085 103.344 344.008 103.733 343.838L115.896 336.821C116.014 336.821 116.211 336.623 116.191 336.426C116.172 336.229 116.014 336.012 115.699 335.815L110.416 332.779C110.004 332.557 109.543 332.441 109.075 332.444Z" fill="#42E8E0"/>
<path d="M116.269 352.67C115.656 352.681 115.052 352.532 114.515 352.237L109.232 349.201C108.992 349.091 108.786 348.921 108.634 348.706C108.482 348.491 108.389 348.241 108.364 347.979C108.374 347.763 108.441 347.555 108.559 347.374C108.677 347.194 108.841 347.049 109.034 346.954L121.197 339.936C121.696 339.708 122.241 339.6 122.789 339.62C123.336 339.641 123.872 339.789 124.352 340.054L129.615 343.109C129.855 343.217 130.062 343.388 130.215 343.603C130.367 343.817 130.46 344.069 130.482 344.332C130.471 344.544 130.403 344.749 130.285 344.926C130.167 345.103 130.004 345.245 129.812 345.337L117.669 352.355C117.235 352.574 116.755 352.682 116.269 352.67ZM122.577 340.33C122.221 340.314 121.866 340.396 121.552 340.566L109.389 347.584C109.31 347.618 109.241 347.673 109.189 347.742C109.137 347.811 109.104 347.893 109.094 347.979C109.094 348.176 109.271 348.393 109.586 348.57L114.87 351.626C115.242 351.828 115.655 351.943 116.078 351.964C116.501 351.984 116.924 351.909 117.314 351.744L129.457 344.726C129.575 344.726 129.773 344.509 129.773 344.332C129.773 344.154 129.575 343.898 129.26 343.721L123.997 340.685C123.562 340.445 123.073 340.323 122.577 340.33Z" fill="#42E8E0"/>
<path d="M129.773 360.576C129.159 360.578 128.555 360.422 128.018 360.123L122.755 357.087C122.516 356.978 122.31 356.807 122.157 356.592C122.005 356.378 121.912 356.127 121.888 355.865C121.895 355.654 121.959 355.449 122.074 355.272C122.188 355.095 122.349 354.952 122.538 354.86L134.701 347.842C135.198 347.609 135.744 347.498 136.292 347.519C136.841 347.54 137.377 347.691 137.855 347.96L143.119 350.996C143.358 351.105 143.564 351.276 143.716 351.491C143.868 351.705 143.961 351.956 143.986 352.218C143.979 352.429 143.915 352.634 143.8 352.811C143.685 352.988 143.525 353.131 143.335 353.223L131.172 360.241C130.742 360.47 130.26 360.585 129.773 360.576ZM136.081 348.216C135.725 348.206 135.372 348.287 135.056 348.453L122.893 355.471C122.893 355.471 122.597 355.688 122.597 355.865C122.597 356.042 122.775 356.279 123.11 356.476L128.373 359.512C128.744 359.718 129.158 359.836 129.582 359.857C130.006 359.877 130.429 359.8 130.818 359.63L142.961 352.612C143.079 352.612 143.276 352.415 143.276 352.218C143.276 352.021 143.079 351.804 142.764 351.607L137.5 348.571C137.066 348.332 136.577 348.209 136.081 348.216Z" fill="#42E8E0"/>
<path d="M143.277 368.46C142.665 368.468 142.061 368.319 141.523 368.026L136.26 364.99C136.019 364.877 135.812 364.703 135.66 364.485C135.508 364.267 135.415 364.013 135.392 363.748C135.403 363.536 135.471 363.33 135.589 363.154C135.707 362.977 135.871 362.835 136.062 362.743L148.206 355.725C148.703 355.492 149.249 355.382 149.797 355.402C150.346 355.423 150.881 355.574 151.36 355.843L156.643 358.879C156.879 358.996 157.081 359.172 157.229 359.389C157.377 359.607 157.467 359.859 157.491 360.121C157.479 360.331 157.414 360.534 157.299 360.711C157.185 360.887 157.027 361.03 156.84 361.126L144.677 368.144C144.246 368.368 143.763 368.477 143.277 368.46ZM149.605 356.119C149.242 356.1 148.88 356.182 148.561 356.356L136.417 363.354C136.299 363.354 136.102 363.571 136.102 363.748C136.102 363.926 136.299 364.182 136.614 364.359L141.878 367.415C142.25 367.618 142.665 367.733 143.089 367.75C143.512 367.767 143.935 367.686 144.322 367.514L156.485 360.496C156.565 360.462 156.634 360.407 156.686 360.338C156.738 360.269 156.771 360.187 156.781 360.101C156.781 359.904 156.604 359.687 156.288 359.51L151.025 356.454C150.586 356.228 150.099 356.112 149.605 356.119Z" fill="#42E8E0"/>
<path d="M156.799 376.366C156.179 376.368 155.568 376.212 155.025 375.913L149.762 372.877C149.522 372.767 149.316 372.597 149.164 372.382C149.012 372.168 148.919 371.917 148.894 371.655C148.901 371.441 148.967 371.234 149.086 371.056C149.204 370.879 149.37 370.738 149.564 370.649L161.708 363.632C162.207 363.394 162.756 363.281 163.309 363.301C163.862 363.322 164.401 363.476 164.881 363.75L170.145 366.786C170.384 366.895 170.59 367.066 170.742 367.28C170.895 367.495 170.988 367.746 171.012 368.008C171.003 368.221 170.936 368.427 170.818 368.604C170.7 368.782 170.535 368.923 170.342 369.013L158.199 376.031C157.767 376.257 157.286 376.372 156.799 376.366ZM163.107 364.006C162.745 363.995 162.385 364.077 162.062 364.243L149.919 371.261C149.801 371.261 149.604 371.458 149.604 371.655C149.604 371.852 149.801 372.069 150.116 372.266L155.38 375.302C155.751 375.508 156.164 375.626 156.588 375.647C157.012 375.667 157.435 375.59 157.824 375.42L169.987 368.402C170.105 368.402 170.303 368.185 170.303 368.008C170.303 367.83 170.105 367.574 169.79 367.397L164.527 364.361C164.091 364.124 163.603 364.002 163.107 364.006Z" fill="#7CF1F5"/>
<path d="M170.303 384.252C169.69 384.263 169.085 384.113 168.548 383.818L163.265 380.762C163.026 380.655 162.821 380.485 162.671 380.269C162.522 380.054 162.434 379.802 162.417 379.54C162.425 379.329 162.489 379.125 162.603 378.947C162.718 378.77 162.879 378.628 163.068 378.535L175.231 371.517C175.728 371.284 176.274 371.174 176.822 371.194C177.371 371.215 177.907 371.366 178.385 371.635L183.649 374.671C183.888 374.781 184.094 374.951 184.246 375.166C184.398 375.381 184.491 375.631 184.516 375.893C184.509 376.107 184.443 376.314 184.324 376.492C184.206 376.67 184.04 376.81 183.846 376.899L171.702 383.917C171.274 384.152 170.791 384.268 170.303 384.252ZM176.611 371.892C176.255 371.881 175.901 371.962 175.586 372.128L163.423 379.146C163.305 379.146 163.127 379.363 163.127 379.54C163.152 379.675 163.211 379.801 163.297 379.908C163.383 380.015 163.494 380.098 163.62 380.151L168.903 383.187C169.272 383.398 169.686 383.519 170.111 383.539C170.536 383.56 170.96 383.48 171.348 383.306L183.491 376.288C183.609 376.288 183.806 376.09 183.806 375.893C183.806 375.696 183.609 375.479 183.294 375.282L178.03 372.246C177.608 372.014 177.133 371.892 176.65 371.892H176.611Z" fill="#42E8E0"/>
<path d="M183.807 392.154C183.193 392.156 182.588 392 182.052 391.701L176.789 388.665C176.549 388.556 176.343 388.385 176.191 388.17C176.039 387.956 175.946 387.705 175.921 387.443C175.925 387.211 175.996 386.986 176.126 386.793C176.255 386.601 176.437 386.45 176.651 386.359L188.814 379.341C189.312 379.113 189.857 379.005 190.405 379.025C190.952 379.046 191.488 379.195 191.968 379.459L197.231 382.515C197.471 382.623 197.679 382.793 197.831 383.008C197.984 383.223 198.076 383.474 198.099 383.737C198.087 383.947 198.021 384.15 197.907 384.326C197.793 384.503 197.635 384.646 197.448 384.742L185.285 391.76C184.837 392.023 184.326 392.159 183.807 392.154ZM190.134 379.794C189.772 379.784 189.412 379.865 189.09 380.031L176.927 387.049C176.927 387.049 176.631 387.246 176.631 387.443C176.631 387.64 176.828 387.857 177.143 388.034L182.407 391.09C182.779 391.292 183.192 391.408 183.616 391.428C184.039 391.449 184.461 391.373 184.851 391.208L197.014 384.19C197.014 384.19 197.31 383.974 197.31 383.796C197.31 383.619 197.133 383.362 196.797 383.185L191.534 380.149C191.106 379.912 190.624 379.79 190.134 379.794Z" fill="#42E8E0"/>
<path d="M197.31 400.039C196.696 400.041 196.092 399.885 195.556 399.586L190.292 396.55C190.053 396.44 189.847 396.27 189.695 396.055C189.543 395.841 189.45 395.59 189.425 395.328C189.432 395.114 189.498 394.907 189.616 394.729C189.735 394.552 189.901 394.411 190.095 394.323L202.239 387.305C202.736 387.072 203.281 386.961 203.83 386.982C204.378 387.002 204.914 387.154 205.393 387.423L210.676 390.459C210.91 390.573 211.111 390.745 211.26 390.959C211.408 391.173 211.499 391.422 211.523 391.681C211.526 391.894 211.465 392.103 211.349 392.282C211.234 392.46 211.068 392.601 210.873 392.686L198.71 399.704C198.28 399.935 197.798 400.051 197.31 400.039ZM203.638 387.679C203.275 387.669 202.916 387.75 202.593 387.916L190.45 394.934C190.332 394.934 190.135 395.131 190.135 395.328C190.135 395.525 190.332 395.762 190.647 395.939L195.911 398.975C196.282 399.181 196.695 399.299 197.119 399.32C197.543 399.34 197.966 399.263 198.355 399.093L210.518 392.075C210.598 392.041 210.667 391.987 210.719 391.918C210.771 391.849 210.803 391.767 210.814 391.681C210.814 391.484 210.636 391.267 210.321 391.07L205.038 388.034C204.611 387.795 204.128 387.672 203.638 387.679Z" fill="#42E8E0"/>
<path d="M91.3924 360.576C90.7721 360.579 90.1615 360.423 89.6183 360.123L84.3549 357.087C84.1157 356.978 83.9096 356.807 83.7574 356.592C83.6051 356.378 83.512 356.127 83.4875 355.865C83.4942 355.652 83.5605 355.444 83.679 355.267C83.7974 355.089 83.9633 354.948 84.1577 354.86L96.3207 347.842C96.8179 347.609 97.3635 347.498 97.9121 347.519C98.4607 347.54 98.9964 347.691 99.4748 347.96L104.738 350.996C104.977 351.105 105.183 351.276 105.336 351.491C105.488 351.705 105.581 351.956 105.606 352.218C105.599 352.432 105.533 352.639 105.414 352.817C105.296 352.994 105.13 353.135 104.935 353.223L92.7921 360.241C92.3605 360.467 91.8796 360.583 91.3924 360.576ZM97.7006 348.216C97.3438 348.201 96.9895 348.283 96.6756 348.453L84.5126 355.471C84.3943 355.471 84.1972 355.668 84.1972 355.865C84.1972 356.062 84.3943 356.279 84.7097 356.476L89.9928 359.512C90.3637 359.718 90.7772 359.836 91.2012 359.857C91.6252 359.877 92.0481 359.8 92.4372 359.63L104.581 352.612C104.699 352.612 104.896 352.415 104.896 352.218C104.896 352.021 104.699 351.804 104.383 351.607L99.12 348.571C98.714 348.35 98.2614 348.228 97.7992 348.216H97.7006Z" fill="#42E8E0"/>
<path d="M104.895 368.46C104.283 368.468 103.679 368.319 103.141 368.026L97.7987 364.99C97.5629 364.873 97.3611 364.697 97.2127 364.48C97.0643 364.263 96.9742 364.011 96.951 363.748C96.9622 363.538 97.0281 363.335 97.1423 363.159C97.2564 362.982 97.4148 362.839 97.6016 362.743L109.765 355.725C110.262 355.492 110.807 355.382 111.356 355.402C111.905 355.423 112.44 355.574 112.919 355.843L118.182 358.879C118.423 358.992 118.63 359.166 118.782 359.384C118.934 359.602 119.026 359.856 119.049 360.121C119.038 360.333 118.97 360.539 118.852 360.716C118.734 360.893 118.571 361.035 118.379 361.126L106.236 368.144C105.821 368.356 105.361 368.465 104.895 368.46ZM111.204 356.119C110.847 356.104 110.492 356.186 110.179 356.356L98.0155 363.354C97.8973 363.354 97.7198 363.571 97.7198 363.748C97.7198 363.926 97.8973 364.182 98.2324 364.359L103.496 367.415C103.868 367.618 104.283 367.733 104.706 367.75C105.13 367.767 105.553 367.686 105.94 367.514L118.083 360.496C118.202 360.496 118.399 360.299 118.399 360.121C118.399 359.944 118.202 359.687 117.886 359.51L112.623 356.454C112.184 356.231 111.697 356.116 111.204 356.119Z" fill="#42E8E0"/>
<path d="M118.399 376.364C117.785 376.365 117.181 376.209 116.644 375.911L111.381 372.875C111.142 372.765 110.936 372.594 110.784 372.38C110.631 372.165 110.538 371.915 110.514 371.653C110.52 371.439 110.587 371.232 110.705 371.054C110.824 370.876 110.989 370.735 111.184 370.647L123.327 363.629C123.824 363.397 124.37 363.286 124.919 363.307C125.467 363.327 126.003 363.478 126.481 363.748L131.764 366.783C131.999 366.897 132.2 367.07 132.348 367.284C132.497 367.498 132.588 367.746 132.612 368.006C132.603 368.216 132.538 368.42 132.423 368.597C132.309 368.773 132.15 368.916 131.962 369.011L119.799 376.029C119.369 376.26 118.887 376.375 118.399 376.364ZM124.727 364.004C124.364 363.993 124.005 364.075 123.682 364.24L111.598 371.258C111.48 371.258 111.282 371.455 111.282 371.653C111.282 371.85 111.48 372.067 111.795 372.264L117.058 375.3C117.429 375.506 117.843 375.624 118.267 375.644C118.691 375.665 119.114 375.587 119.503 375.418L131.666 368.4C131.666 368.4 131.962 368.183 131.962 368.006C131.962 367.828 131.784 367.572 131.449 367.395L126.186 364.359C125.741 364.109 125.236 363.986 124.727 364.004Z" fill="#42E8E0"/>
<path d="M131.902 384.252C131.289 384.26 130.685 384.111 130.147 383.818L124.884 380.763C124.643 380.655 124.436 380.484 124.284 380.27C124.131 380.055 124.039 379.803 124.016 379.54C124.028 379.328 124.096 379.123 124.214 378.946C124.331 378.769 124.495 378.627 124.687 378.535L136.83 371.517C137.331 371.284 137.879 371.174 138.431 371.194C138.983 371.215 139.522 371.366 140.004 371.635L145.267 374.671C145.506 374.781 145.712 374.952 145.865 375.166C146.017 375.381 146.11 375.632 146.135 375.894C146.128 376.107 146.062 376.314 145.943 376.492C145.825 376.67 145.659 376.811 145.464 376.899L133.282 383.917C132.861 384.153 132.384 384.269 131.902 384.252ZM138.23 371.892C137.867 371.881 137.508 371.963 137.185 372.128L125.042 379.146C124.923 379.146 124.726 379.363 124.726 379.54C124.726 379.718 124.923 379.974 125.239 380.152L130.502 383.187C130.873 383.394 131.287 383.512 131.71 383.532C132.134 383.553 132.557 383.475 132.947 383.306L145.11 376.288C145.189 376.254 145.258 376.199 145.31 376.13C145.362 376.061 145.395 375.979 145.405 375.894C145.405 375.696 145.228 375.48 144.912 375.282L139.629 372.247C139.202 372.007 138.719 371.885 138.23 371.892Z" fill="#42E8E0"/>
<path d="M145.425 392.155C144.811 392.16 144.206 392.003 143.671 391.702L138.388 388.666C138.148 388.557 137.942 388.386 137.79 388.171C137.638 387.957 137.545 387.706 137.52 387.444C137.53 387.229 137.597 387.02 137.715 386.84C137.833 386.659 137.997 386.514 138.19 386.419L150.353 379.401C150.852 379.173 151.397 379.065 151.945 379.085C152.492 379.106 153.028 379.255 153.508 379.519L158.771 382.575C159.011 382.683 159.218 382.853 159.371 383.068C159.523 383.283 159.616 383.535 159.638 383.797C159.627 384.009 159.559 384.215 159.441 384.392C159.323 384.569 159.16 384.711 158.968 384.802L146.825 391.82C146.393 392.046 145.912 392.161 145.425 392.155ZM151.733 379.795C151.377 379.78 151.022 379.862 150.708 380.032L138.545 387.05C138.466 387.084 138.397 387.138 138.345 387.207C138.293 387.276 138.26 387.358 138.25 387.444C138.25 387.641 138.427 387.858 138.742 388.035L144.026 391.091C144.398 391.293 144.811 391.409 145.234 391.429C145.657 391.45 146.08 391.374 146.47 391.209L158.613 384.191C158.732 384.191 158.929 383.974 158.929 383.797C158.929 383.62 158.732 383.363 158.416 383.186L153.153 380.15C152.718 379.911 152.229 379.788 151.733 379.795Z" fill="#42E8E0"/>
<path d="M158.909 400.039C158.295 400.041 157.691 399.885 157.155 399.586L151.891 396.55C151.652 396.44 151.446 396.27 151.294 396.055C151.142 395.841 151.049 395.59 151.024 395.328C151.031 395.117 151.095 394.912 151.21 394.735C151.324 394.558 151.485 394.415 151.675 394.323L163.837 387.305C164.335 387.072 164.88 386.961 165.429 386.982C165.977 387.002 166.513 387.154 166.992 387.423L172.255 390.459C172.494 390.568 172.7 390.739 172.852 390.954C173.005 391.168 173.098 391.419 173.122 391.681C173.115 391.892 173.051 392.097 172.936 392.274C172.822 392.451 172.661 392.593 172.472 392.686L160.309 399.704C159.878 399.933 159.397 400.048 158.909 400.039ZM165.237 387.679C164.874 387.669 164.515 387.75 164.192 387.916L152.029 394.934C151.931 394.934 151.734 395.131 151.734 395.328C151.734 395.525 151.911 395.762 152.246 395.939L157.51 398.975C157.88 399.181 158.294 399.299 158.718 399.32C159.142 399.34 159.565 399.263 159.954 399.093L172.097 392.075C172.216 392.075 172.413 391.878 172.413 391.681C172.413 391.484 172.216 391.267 171.9 391.07L166.637 388.034C166.214 387.8 165.739 387.678 165.257 387.679H165.237Z" fill="#42E8E0"/>
<path d="M172.433 407.927C171.82 407.936 171.216 407.786 170.678 407.493L165.415 404.438C165.177 404.332 164.972 404.164 164.819 403.953C164.667 403.742 164.573 403.494 164.547 403.235C164.557 403.02 164.624 402.812 164.742 402.631C164.86 402.451 165.024 402.306 165.218 402.21L177.361 395.193C177.859 394.965 178.404 394.856 178.952 394.877C179.5 394.898 180.035 395.046 180.515 395.311L185.798 398.347C186.032 398.46 186.233 398.633 186.382 398.847C186.53 399.061 186.621 399.309 186.646 399.569C186.638 399.782 186.574 399.989 186.459 400.169C186.345 400.35 186.185 400.496 185.995 400.594L173.832 407.612C173.401 407.836 172.919 407.944 172.433 407.927ZM178.761 395.587C178.4 395.58 178.043 395.654 177.716 395.804L165.572 402.821C165.454 402.821 165.257 403.038 165.257 403.235C165.257 403.433 165.454 403.649 165.77 403.827L171.033 406.882C171.413 407.07 171.831 407.168 172.255 407.168C172.679 407.168 173.097 407.07 173.477 406.882L185.64 399.884C185.719 399.844 185.787 399.785 185.839 399.713C185.89 399.641 185.924 399.558 185.936 399.47C185.936 399.293 185.759 399.056 185.443 398.879L180.16 395.823C179.719 395.633 179.239 395.552 178.761 395.587Z" fill="#42E8E0"/>
<path opacity="0.4" d="M466.669 211.306L393.494 169.001C389.039 166.439 389.552 161.924 394.756 158.948C399.901 155.971 407.707 155.656 412.182 158.218L485.436 200.523C489.911 203.105 489.379 207.619 484.194 210.596C478.931 213.573 471.144 213.888 466.669 211.306Z" fill="#42E8E0"/>
<path opacity="0.4" d="M437.672 250.517L394.461 225.58C390.006 222.998 390.518 218.503 395.723 215.526C400.868 212.53 408.674 212.215 413.149 214.797L456.34 239.734C460.815 242.316 460.283 246.811 455.098 249.788C449.934 252.764 442.127 253.1 437.672 250.517Z" fill="#42E8E0"/>
<path opacity="0.4" d="M371.692 311.171L353.359 300.585C348.884 298.002 349.417 293.508 354.601 290.511C359.766 287.535 367.572 287.219 372.028 289.802L390.38 300.388C394.836 302.97 394.323 307.465 389.119 310.441C383.974 313.418 376.167 313.753 371.692 311.171Z" fill="#42E8E0"/>
<path opacity="0.4" d="M466.669 257.355L393.494 215.05C389.039 212.468 389.552 207.973 394.756 204.997C399.901 202 407.707 201.685 412.182 204.267L485.436 246.571C489.911 249.154 489.379 253.648 484.194 256.625C478.931 259.602 471.144 259.937 466.669 257.355Z" fill="#7CF1F5"/>
<path opacity="0.4" d="M358.643 274.15L273.265 224.868C268.79 222.285 269.323 217.771 274.507 214.794C279.672 211.817 287.478 211.502 291.934 214.084L377.311 263.367C381.786 265.95 381.254 270.444 376.069 273.421C370.904 276.398 363.098 276.733 358.643 274.15Z" fill="#7CF1F5"/>
<path opacity="0.4" d="M371.692 321.998L353.359 311.412C348.884 308.83 349.417 304.335 354.601 301.358C359.766 298.362 367.572 298.047 372.028 300.629L390.38 311.215C394.836 313.797 394.323 318.292 389.119 321.269C383.974 324.245 376.167 324.58 371.692 321.998Z" fill="#7CF1F5"/>
<path opacity="0.4" d="M225.361 271.532L207.028 260.946C202.553 258.364 203.086 253.849 208.27 250.873C213.435 247.896 221.222 247.581 225.697 250.163L244.03 260.749C248.505 263.331 247.972 267.826 242.788 270.803C237.623 273.779 229.876 274.114 225.361 271.532Z" fill="#7CF1F5"/>
<path d="M440.964 135.309C438.274 135.381 435.608 134.77 433.217 133.535L379.992 102.762C379.087 102.339 378.313 101.68 377.751 100.855C377.189 100.029 376.86 99.0674 376.798 98.0707C376.97 96.788 377.468 95.5708 378.245 94.5354C379.021 93.5001 380.05 92.6811 381.234 92.1567C386.497 89.1209 394.461 88.8055 398.975 91.4273L452.26 122.199C453.163 122.617 453.936 123.272 454.495 124.095C455.054 124.918 455.379 125.878 455.434 126.871C455.267 128.156 454.771 129.376 453.994 130.412C453.217 131.448 452.185 132.266 450.998 132.785C447.923 134.467 444.469 135.336 440.964 135.309ZM433.572 132.923C437.929 135.427 445.597 135.112 450.644 132.194C451.729 131.724 452.675 130.981 453.39 130.038C454.104 129.096 454.564 127.985 454.724 126.812C454.66 125.943 454.362 125.107 453.863 124.392C453.363 123.677 452.68 123.111 451.885 122.751L398.66 91.9793C394.303 89.456 386.655 89.7714 381.589 92.689C380.505 93.1626 379.561 93.906 378.847 94.8481C378.133 95.7903 377.672 96.8997 377.508 98.0707C377.57 98.9408 377.867 99.7778 378.367 100.493C378.867 101.208 379.551 101.774 380.347 102.132L433.572 132.923Z" fill="#42E8E0"/>
<path d="M366.211 256.567C363.518 256.641 360.851 256.023 358.464 254.773L273.087 205.49C272.182 205.067 271.408 204.408 270.846 203.583C270.284 202.757 269.955 201.795 269.893 200.799C270.065 199.516 270.563 198.299 271.34 197.263C272.116 196.228 273.145 195.409 274.328 194.885C279.592 191.869 287.556 191.533 292.07 194.175L377.448 243.458C378.352 243.876 379.127 244.531 379.689 245.353C380.251 246.176 380.58 247.135 380.641 248.13C380.471 249.413 379.974 250.631 379.197 251.667C378.42 252.702 377.39 253.521 376.206 254.044C373.138 255.708 369.701 256.575 366.211 256.567ZM284.362 193.012C280.985 192.982 277.654 193.809 274.683 195.417C273.601 195.892 272.658 196.636 271.944 197.578C271.23 198.52 270.768 199.628 270.603 200.799C270.668 201.67 270.965 202.509 271.465 203.227C271.964 203.944 272.647 204.515 273.441 204.879L358.819 254.162C363.175 256.685 370.844 256.35 375.89 253.433C376.978 252.965 377.926 252.224 378.641 251.28C379.356 250.337 379.815 249.224 379.971 248.051C379.903 247.182 379.603 246.348 379.104 245.634C378.605 244.92 377.924 244.353 377.132 243.99L291.755 194.707C289.477 193.518 286.931 192.935 284.362 193.012Z" fill="#42E8E0"/>
<path d="M474.318 213.397C471.628 213.469 468.963 212.859 466.571 211.623L393.219 169.319C392.317 168.897 391.545 168.241 390.983 167.419C390.421 166.598 390.09 165.64 390.025 164.647C390.025 162.459 391.642 160.27 394.48 158.634C399.724 155.618 407.688 155.283 412.222 157.924L485.476 200.229C486.403 200.647 487.197 201.315 487.767 202.157C488.338 202.999 488.664 203.983 488.709 204.999C488.542 206.284 488.046 207.504 487.269 208.54C486.492 209.576 485.46 210.394 484.274 210.913C481.218 212.568 477.793 213.423 474.318 213.397ZM466.926 211.012C471.283 213.515 478.951 213.2 483.998 210.282C485.083 209.812 486.029 209.07 486.744 208.127C487.458 207.184 487.918 206.073 488.078 204.901C488.014 204.031 487.716 203.195 487.217 202.48C486.717 201.766 486.034 201.199 485.24 200.84L411.986 158.536C407.609 156.012 399.961 156.347 394.914 159.265C393.825 159.733 392.875 160.474 392.157 161.417C391.438 162.36 390.976 163.472 390.814 164.647C390.882 165.515 391.181 166.349 391.681 167.063C392.18 167.777 392.86 168.345 393.652 168.708L466.926 211.012Z" fill="#42E8E0"/>
<path d="M445.223 252.607C442.539 252.679 439.88 252.068 437.496 250.833L394.285 225.896C393.382 225.469 392.611 224.809 392.049 223.984C391.488 223.16 391.157 222.2 391.091 221.204C391.091 219.036 392.708 216.847 395.546 215.29C400.79 212.254 408.774 211.939 413.288 214.561L456.578 239.419C457.483 239.842 458.257 240.501 458.819 241.326C459.381 242.152 459.71 243.114 459.772 244.111C459.599 245.393 459.101 246.61 458.325 247.646C457.548 248.681 456.519 249.5 455.336 250.024C452.242 251.737 448.76 252.626 445.223 252.607ZM405.58 213.417C402.202 213.382 398.87 214.21 395.901 215.822C394.813 216.292 393.864 217.033 393.146 217.976C392.428 218.919 391.965 220.03 391.801 221.204C391.863 222.074 392.16 222.911 392.66 223.626C393.16 224.341 393.844 224.907 394.639 225.265L437.851 250.202C442.207 252.725 449.856 252.41 454.922 249.492C456.005 249.019 456.949 248.275 457.664 247.333C458.378 246.391 458.839 245.282 459.003 244.111C458.94 243.24 458.644 242.403 458.144 241.688C457.644 240.973 456.96 240.407 456.164 240.05L412.973 215.113C410.694 213.924 408.149 213.34 405.58 213.417Z" fill="#42E8E0"/>
<path opacity="0.4" d="M437.672 282.709L394.461 257.752C390.006 255.19 390.518 250.675 395.723 247.699C400.868 244.722 408.674 244.407 413.149 246.969L456.34 272.025C460.815 274.587 460.283 279.102 455.098 282.078C449.934 284.956 442.127 285.272 437.672 282.709Z" fill="#7CF1F5"/>
<path d="M379.263 313.265C376.572 313.336 373.907 312.726 371.516 311.49L353.182 300.885C352.279 300.465 351.506 299.81 350.944 298.987C350.382 298.165 350.052 297.207 349.989 296.213C349.989 294.025 351.605 291.856 354.424 290.299C359.688 287.263 367.652 286.948 372.166 289.569L390.519 300.155C391.421 300.582 392.193 301.242 392.754 302.067C393.316 302.891 393.647 303.851 393.713 304.847C393.713 307.016 392.096 309.204 389.257 310.761C386.192 312.429 382.753 313.291 379.263 313.265ZM364.478 288.406C361.092 288.38 357.755 289.214 354.779 290.831C353.696 291.305 352.752 292.048 352.038 292.99C351.323 293.932 350.862 295.042 350.699 296.213C350.763 297.082 351.061 297.918 351.56 298.633C352.06 299.348 352.743 299.914 353.537 300.274L371.871 310.86C376.247 313.383 383.896 313.067 388.942 310.15C390.03 309.68 390.979 308.939 391.697 307.996C392.415 307.054 392.879 305.942 393.042 304.768C392.98 303.898 392.683 303.061 392.183 302.346C391.684 301.631 391 301.065 390.204 300.707L371.811 290.102C369.548 288.931 367.026 288.348 364.478 288.406Z" fill="#42E8E0"/>
<path d="M232.932 268.354C230.241 268.429 227.575 267.818 225.185 266.58L206.832 255.975C205.931 255.554 205.161 254.898 204.602 254.075C204.043 253.253 203.717 252.295 203.658 251.303C203.83 250.02 204.328 248.803 205.105 247.767C205.881 246.732 206.91 245.913 208.093 245.389C213.337 242.353 221.321 242.037 225.835 244.659L244.168 255.245C245.073 255.668 245.847 256.327 246.409 257.153C246.971 257.978 247.3 258.94 247.362 259.937C247.19 261.22 246.692 262.437 245.915 263.472C245.139 264.507 244.11 265.326 242.927 265.851C239.86 267.517 236.422 268.378 232.932 268.354ZM218.049 243.516C214.67 243.483 211.34 244.311 208.369 245.921C207.284 246.391 206.338 247.134 205.623 248.077C204.909 249.019 204.449 250.13 204.289 251.303C204.353 252.172 204.651 253.008 205.15 253.723C205.65 254.438 206.333 255.004 207.128 255.363L225.461 265.949C229.817 268.473 237.466 268.157 242.532 265.24C243.618 264.769 244.564 264.027 245.278 263.084C245.993 262.141 246.453 261.03 246.613 259.858C246.551 258.988 246.254 258.151 245.754 257.436C245.254 256.721 244.57 256.155 243.774 255.797L225.441 245.211C223.163 244.022 220.617 243.439 218.049 243.516Z" fill="#42E8E0"/>
<path style="mix-blend-mode:lighten" opacity="0.5" d="M489.083 203.698V100.066H390.38V164.469C390.407 165.517 390.728 166.537 391.307 167.412C391.885 168.286 392.698 168.981 393.652 169.417L465.368 210.814C470.237 213.633 478.773 213.278 484.411 210.026C487.486 208.251 489.063 205.984 489.063 203.836L489.083 203.698Z" fill="url(#paint8_radial)"/>
<path opacity="0.4" d="M261.297 375.201L151.022 311.548C143.511 307.211 144.458 299.72 153.131 294.634C161.805 289.627 174.816 289.075 182.425 293.412L292.681 357.065C300.191 361.402 299.245 368.893 290.571 373.979C281.917 378.986 268.808 379.538 261.297 375.201Z" fill="#7CF1F5"/>
<path opacity="0.4" d="M261.297 367.317L151.022 303.565C143.511 299.228 144.458 291.737 153.131 286.651C161.805 281.644 174.816 281.112 182.425 285.449L292.681 349.102C300.191 353.439 299.245 360.93 290.571 366.016C281.917 371.102 268.808 371.634 261.297 367.317Z" fill="#42E8E0"/>
<path d="M274.033 370.587C269.547 370.718 265.102 369.7 261.121 367.63L150.865 303.956C149.386 303.268 148.12 302.195 147.197 300.849C146.275 299.504 145.731 297.935 145.622 296.308C145.622 292.72 148.303 289.132 152.975 286.451C161.727 281.385 175.034 280.853 182.544 285.229L292.957 348.902C294.442 349.589 295.713 350.664 296.636 352.014C297.559 353.364 298.1 354.938 298.201 356.571C298.201 360.139 295.52 363.746 290.848 366.427C285.69 369.226 279.901 370.658 274.033 370.587ZM169.731 282.962C164.005 282.917 158.361 284.328 153.33 287.062C148.874 289.625 146.331 292.976 146.331 296.327C146.442 297.831 146.953 299.277 147.813 300.515C148.673 301.753 149.85 302.737 151.22 303.365L261.416 366.999C268.829 371.277 281.8 370.725 290.355 365.777C294.81 363.214 297.353 359.863 297.353 356.531C297.245 355.027 296.734 353.58 295.874 352.342C295.014 351.104 293.836 350.12 292.465 349.494L182.268 285.82C178.402 283.811 174.087 282.82 169.731 282.942V282.962Z" fill="#42E8E0"/>
<path opacity="0.4" d="M281.366 361.323C279.923 362.062 278.325 362.447 276.704 362.447C275.083 362.447 273.485 362.062 272.042 361.323C269.46 359.844 269.46 357.38 272.042 355.941C273.488 355.212 275.085 354.832 276.704 354.832C278.324 354.832 279.921 355.212 281.366 355.941C283.929 357.439 283.929 359.844 281.366 361.323Z" fill="#42E8E0"/>
<path d="M276.696 362.703C275.027 362.739 273.378 362.346 271.905 361.56C271.35 361.293 270.876 360.885 270.53 360.376C270.183 359.867 269.978 359.276 269.934 358.662C269.979 358.045 270.184 357.452 270.53 356.94C270.876 356.428 271.35 356.015 271.905 355.744C273.391 354.995 275.032 354.605 276.696 354.605C278.36 354.605 280 354.995 281.486 355.744C282.041 356.015 282.516 356.428 282.862 356.94C283.208 357.452 283.413 358.045 283.457 358.662C283.414 359.276 283.208 359.867 282.862 360.376C282.516 360.885 282.041 361.293 281.486 361.56C280.014 362.346 278.364 362.739 276.696 362.703ZM276.696 355.094C275.117 355.069 273.558 355.442 272.162 356.178C271.64 356.348 271.185 356.679 270.862 357.123C270.54 357.568 270.366 358.103 270.366 358.652C270.366 359.201 270.54 359.736 270.862 360.18C271.185 360.625 271.64 360.956 272.162 361.126C273.563 361.852 275.118 362.231 276.696 362.231C278.274 362.231 279.829 361.852 281.23 361.126C281.752 360.956 282.207 360.625 282.529 360.18C282.852 359.736 283.025 359.201 283.025 358.652C283.025 358.103 282.852 357.568 282.529 357.123C282.207 356.679 281.752 356.348 281.23 356.178C279.835 355.435 278.276 355.055 276.696 355.074V355.094Z" fill="#42E8E0"/>
<path opacity="0.4" d="M265.872 352.317C264.426 353.046 262.829 353.426 261.21 353.426C259.59 353.426 257.994 353.046 256.548 352.317C253.965 350.818 253.965 348.374 256.548 346.935C257.991 346.196 259.589 345.811 261.21 345.811C262.831 345.811 264.429 346.196 265.872 346.935C268.435 348.413 268.435 350.878 265.872 352.317Z" fill="#42E8E0"/>
<path d="M261.202 350.696C259.542 350.729 257.901 350.342 256.431 349.572C255.788 349.389 255.223 349.001 254.821 348.467C254.418 347.934 254.201 347.284 254.201 346.615C254.201 345.947 254.418 345.297 254.821 344.763C255.223 344.23 255.788 343.842 256.431 343.658C257.912 342.905 259.55 342.513 261.212 342.513C262.873 342.513 264.511 342.905 265.992 343.658C266.624 343.854 267.176 344.246 267.569 344.778C267.961 345.31 268.173 345.954 268.173 346.615C268.173 347.276 267.961 347.92 267.569 348.452C267.176 348.985 266.624 349.377 265.992 349.572C264.516 350.346 262.868 350.732 261.202 350.696ZM261.202 343.106C259.622 343.075 258.062 343.448 256.668 344.191C256.146 344.361 255.691 344.692 255.368 345.136C255.046 345.58 254.872 346.115 254.872 346.665C254.872 347.214 255.046 347.749 255.368 348.193C255.691 348.637 256.146 348.968 256.668 349.139C258.077 349.848 259.633 350.217 261.212 350.217C262.79 350.217 264.346 349.848 265.755 349.139C266.277 348.968 266.732 348.637 267.055 348.193C267.377 347.749 267.551 347.214 267.551 346.665C267.551 346.115 267.377 345.58 267.055 345.136C266.732 344.692 266.277 344.361 265.755 344.191C264.355 343.445 262.787 343.072 261.202 343.106Z" fill="#42E8E0"/>
<path d="M220.908 318.094C219.24 318.124 217.592 317.73 216.118 316.95C215.521 316.733 215.006 316.337 214.642 315.817C214.278 315.297 214.083 314.677 214.083 314.042C214.083 313.408 214.278 312.788 214.642 312.268C215.006 311.748 215.521 311.352 216.118 311.135C217.603 310.386 219.244 309.996 220.908 309.996C222.572 309.996 224.212 310.386 225.698 311.135C226.295 311.352 226.81 311.748 227.174 312.268C227.538 312.788 227.733 313.408 227.733 314.042C227.733 314.677 227.538 315.297 227.174 315.817C226.81 316.337 226.295 316.733 225.698 316.95C224.224 317.73 222.576 318.124 220.908 318.094ZM220.908 310.484C219.328 310.45 217.767 310.823 216.374 311.568C215.852 311.739 215.397 312.07 215.074 312.514C214.752 312.958 214.578 313.493 214.578 314.042C214.578 314.592 214.752 315.127 215.074 315.571C215.397 316.015 215.852 316.346 216.374 316.516C217.78 317.227 219.333 317.597 220.908 317.597C222.483 317.597 224.036 317.227 225.442 316.516C225.964 316.346 226.419 316.015 226.741 315.571C227.064 315.127 227.238 314.592 227.238 314.042C227.238 313.493 227.064 312.958 226.741 312.514C226.419 312.07 225.964 311.739 225.442 311.568C224.05 310.821 222.488 310.447 220.908 310.484Z" fill="#42E8E0"/>
<path opacity="0.4" d="M225.578 329.781C224.135 330.52 222.537 330.905 220.916 330.905C219.294 330.905 217.697 330.52 216.253 329.781C213.671 328.302 213.671 325.838 216.253 324.399C217.699 323.67 219.296 323.29 220.916 323.29C222.535 323.29 224.132 323.67 225.578 324.399C228.14 325.897 228.14 328.302 225.578 329.781Z" fill="#42E8E0"/>
<path d="M205.431 301.413C203.763 301.443 202.115 301.05 200.641 300.27C200.009 300.074 199.456 299.682 199.064 299.15C198.671 298.618 198.46 297.974 198.46 297.313C198.46 296.652 198.671 296.008 199.064 295.476C199.456 294.943 200.009 294.551 200.641 294.356C202.123 293.607 203.761 293.217 205.421 293.217C207.082 293.217 208.719 293.607 210.202 294.356C210.844 294.539 211.409 294.927 211.812 295.461C212.214 295.994 212.432 296.644 212.432 297.313C212.432 297.981 212.214 298.631 211.812 299.165C211.409 299.698 210.844 300.086 210.202 300.27C208.733 301.047 207.092 301.44 205.431 301.413ZM205.431 293.804C203.845 293.769 202.277 294.143 200.877 294.888C200.355 295.058 199.9 295.389 199.578 295.834C199.255 296.278 199.082 296.813 199.082 297.362C199.082 297.911 199.255 298.446 199.578 298.89C199.9 299.335 200.355 299.666 200.877 299.836C202.287 300.545 203.843 300.914 205.421 300.914C206.999 300.914 208.555 300.545 209.965 299.836C210.487 299.666 210.942 299.335 211.264 298.89C211.587 298.446 211.761 297.911 211.761 297.362C211.761 296.813 211.587 296.278 211.264 295.834C210.942 295.389 210.487 295.058 209.965 294.888C208.571 294.145 207.01 293.772 205.431 293.804Z" fill="#42E8E0"/>
<path opacity="0.4" d="M210.163 321.502C208.72 322.241 207.122 322.626 205.501 322.626C203.88 322.626 202.282 322.241 200.839 321.502C198.276 320.024 198.276 317.56 200.839 316.121C202.285 315.391 203.881 315.011 205.501 315.011C207.12 315.011 208.717 315.391 210.163 316.121C212.667 317.619 212.667 320.024 210.163 321.502Z" fill="#42E8E0"/>
<path d="M189.939 281.131C188.271 281.161 186.623 280.768 185.149 279.987C184.552 279.77 184.037 279.374 183.673 278.854C183.309 278.334 183.114 277.714 183.114 277.08C183.114 276.445 183.309 275.825 183.673 275.305C184.037 274.785 184.552 274.389 185.149 274.172C186.634 273.423 188.275 273.033 189.939 273.033C191.603 273.033 193.243 273.423 194.729 274.172C195.326 274.389 195.841 274.785 196.205 275.305C196.569 275.825 196.764 276.445 196.764 277.08C196.764 277.714 196.569 278.334 196.205 278.854C195.841 279.374 195.326 279.77 194.729 279.987C193.255 280.768 191.607 281.161 189.939 281.131ZM189.939 273.521C188.359 273.484 186.797 273.858 185.405 274.606C184.883 274.776 184.428 275.107 184.106 275.551C183.783 275.995 183.609 276.531 183.609 277.08C183.609 277.629 183.783 278.164 184.106 278.608C184.428 279.052 184.883 279.383 185.405 279.554C186.811 280.264 188.364 280.634 189.939 280.634C191.514 280.634 193.067 280.264 194.473 279.554C194.995 279.383 195.45 279.052 195.772 278.608C196.095 278.164 196.269 277.629 196.269 277.08C196.269 276.531 196.095 275.995 195.772 275.551C195.45 275.107 194.995 274.776 194.473 274.606C193.08 273.86 191.518 273.487 189.939 273.521Z" fill="#42E8E0"/>
<path opacity="0.4" d="M194.394 312.929C192.948 313.658 191.351 314.038 189.732 314.038C188.112 314.038 186.515 313.658 185.069 312.929C182.487 311.43 182.487 308.986 185.069 307.547C186.513 306.808 188.11 306.423 189.732 306.423C191.353 306.423 192.951 306.808 194.394 307.547C196.897 309.025 196.897 311.45 194.394 312.929Z" fill="#42E8E0"/>
<path opacity="0.4" d="M238.728 331.772L252.212 339.559C254.459 340.84 254.183 343.087 251.601 344.585C250.279 345.317 248.805 345.731 247.296 345.792C245.787 345.854 244.284 345.562 242.907 344.94L229.423 337.055C227.176 335.774 227.452 333.526 230.035 332.028C231.364 331.312 232.842 330.915 234.351 330.871C235.86 330.826 237.359 331.135 238.728 331.772Z" fill="#42E8E0"/>
<path d="M246.671 339.776C245.301 339.822 243.942 339.509 242.729 338.869L229.284 331.161C228.825 330.946 228.433 330.611 228.148 330.191C227.864 329.771 227.698 329.282 227.668 328.776C227.726 328.105 227.96 327.461 228.348 326.911C228.736 326.36 229.263 325.922 229.876 325.642C231.234 324.88 232.752 324.451 234.308 324.389C235.864 324.327 237.412 324.635 238.826 325.287L252.349 333.133C252.809 333.352 253.203 333.69 253.487 334.113C253.771 334.537 253.937 335.029 253.965 335.538C253.891 336.199 253.644 336.829 253.25 337.366C252.855 337.902 252.327 338.325 251.718 338.593C250.162 339.407 248.426 339.814 246.671 339.776ZM234.962 324.873C233.288 324.849 231.636 325.264 230.172 326.075C229.646 326.307 229.188 326.67 228.843 327.129C228.498 327.588 228.277 328.128 228.2 328.697C228.235 329.119 228.381 329.523 228.623 329.87C228.866 330.216 229.196 330.492 229.58 330.669L243.064 338.436C244.399 339.043 245.859 339.327 247.325 339.266C248.791 339.204 250.221 338.798 251.501 338.081C252.027 337.849 252.484 337.487 252.829 337.028C253.175 336.568 253.396 336.028 253.472 335.459C253.438 335.038 253.292 334.633 253.049 334.287C252.807 333.94 252.477 333.664 252.093 333.488L238.609 325.602C237.473 325.059 236.219 324.808 234.962 324.873Z" fill="#42E8E0"/>
<g opacity="0.8">
<path opacity="0.8" d="M338.516 418.887L340.329 418.65C340.532 418.501 340.742 418.363 340.96 418.236L480.923 337.413C483.157 336.398 485.599 335.923 488.051 336.025C490.503 336.128 492.896 336.806 495.038 338.004L576.827 385.138C577.793 385.661 578.644 386.371 579.331 387.228L580.297 386.952V389.771C580.251 390.523 580 391.249 579.573 391.871C579.146 392.493 578.558 392.986 577.872 393.299L437.909 474.123C435.672 475.129 433.232 475.599 430.782 475.496C428.332 475.394 425.939 474.721 423.794 473.532L341.985 426.378C341.037 425.976 340.215 425.327 339.605 424.498C338.994 423.669 338.618 422.691 338.516 421.666V418.887Z" fill="#9FFFF8"/>
<path opacity="0.8" d="M437.752 471.284L577.715 390.46C581.322 388.37 580.869 384.724 576.69 382.319L495.077 335.106C492.936 333.908 490.543 333.23 488.091 333.127C485.639 333.024 483.197 333.499 480.963 334.514L341 415.338C337.392 417.428 337.846 421.074 342.025 423.479L423.677 470.633C425.809 471.834 428.192 472.519 430.637 472.632C433.081 472.745 435.518 472.283 437.752 471.284Z" fill="#7CF1F5"/>
<path opacity="0.8" d="M415.16 465.804L568.252 377.41L552.008 368.027L398.916 456.42L415.16 465.804Z" fill="url(#paint9_linear)"/>
</g>
<g opacity="0.1">
<path opacity="0.1" d="M489.732 420.285C489.732 402.051 476.919 379.873 461.128 370.746C453.243 366.173 446.048 365.759 440.883 368.775L435.462 371.949L437.039 372.087C433.831 376.483 432.236 381.851 432.525 387.285C432.525 405.52 445.338 427.697 461.128 436.824C465.53 439.657 470.732 440.985 475.953 440.609L475.834 442.048L481.315 438.835L481.531 438.717C486.617 435.642 489.732 429.255 489.732 420.285Z" fill="#9FFFF8"/>
<path opacity="0.1" d="M475.896 442.023C487.069 435.572 487.071 414.658 475.901 395.311C464.73 375.963 446.617 365.508 435.444 371.959C424.272 378.41 424.269 399.323 435.44 418.671C446.61 438.019 464.723 448.474 475.896 442.023Z" fill="#42E8E0"/>
</g>
<path d="M489.732 420.285C489.732 402.051 476.919 379.873 461.128 370.746C453.243 366.173 446.048 365.759 440.883 368.775L435.462 371.949L437.039 372.087C433.831 376.483 432.236 381.851 432.525 387.285C432.525 405.52 445.338 427.697 461.128 436.824C465.53 439.657 470.732 440.985 475.953 440.609L475.834 442.048L481.315 438.835L481.531 438.717C486.617 435.642 489.732 429.255 489.732 420.285Z" fill="#9FFFF8"/>
<path d="M475.896 442.023C487.069 435.572 487.071 414.658 475.901 395.311C464.73 375.963 446.617 365.508 435.444 371.959C424.272 378.41 424.269 399.323 435.44 418.671C446.61 438.019 464.723 448.474 475.896 442.023Z" fill="#42E8E0"/>
<defs>
<linearGradient id="paint0_linear" x1="0.454834" y1="151.074" x2="607.922" y2="244.444" gradientUnits="userSpaceOnUse">
<stop stop-color="#FDFDFE"/>
<stop offset="1" stop-color="#E0E3EF"/>
</linearGradient>
<linearGradient id="paint1_linear" x1="0.510933" y1="126.523" x2="202.135" y2="611.122" gradientUnits="userSpaceOnUse">
<stop stop-color="#474C57"/>
<stop offset="1" stop-color="#2C313C"/>
</linearGradient>
<linearGradient id="paint2_linear" x1="7.47551" y1="130.652" x2="204.037" y2="603.104" gradientUnits="userSpaceOnUse">
<stop stop-color="#474C57"/>
<stop offset="1" stop-color="#2C313C"/>
</linearGradient>
<radialGradient id="paint3_radial" cx="0" cy="0" r="1" gradientUnits="userSpaceOnUse" gradientTransform="translate(202.77 320.183) scale(447.901)">
<stop stop-color="#7CF1F5"/>
<stop offset="0.11" stop-color="#6CE1E5"/>
<stop offset="0.22" stop-color="#4BC5C9"/>
<stop offset="0.34" stop-color="#3DB4B8"/>
<stop offset="0.46" stop-color="#26A0A5"/>
<stop offset="0.58" stop-color="#4AC4C8"/>
<stop offset="0.71" stop-color="#44A6A9"/>
<stop offset="0.85" stop-color="#1CD4DA"/>
<stop offset="1" stop-color="#2CB3B8"/>
</radialGradient>
<linearGradient id="paint4_linear" x1="134859" y1="85924.5" x2="114906" y2="40125.9" gradientUnits="userSpaceOnUse">
<stop stop-color="#42E8E0"/>
<stop offset="0.11" stop-color="#37B6BF"/>
<stop offset="0.22" stop-color="#2C87A1"/>
<stop offset="0.34" stop-color="#235F87"/>
<stop offset="0.46" stop-color="#1C3F72"/>
<stop offset="0.58" stop-color="#162561"/>
<stop offset="0.71" stop-color="#121355"/>
<stop offset="0.85" stop-color="#10084E"/>
<stop offset="1" stop-color="#0F054C"/>
</linearGradient>
<linearGradient id="paint5_linear" x1="-227483" y1="33360.9" x2="-196326" y2="91868.7" gradientUnits="userSpaceOnUse">
<stop stop-color="#42E8E0"/>
<stop offset="0.11" stop-color="#37B6BF"/>
<stop offset="0.22" stop-color="#2C87A1"/>
<stop offset="0.34" stop-color="#235F87"/>
<stop offset="0.46" stop-color="#1C3F72"/>
<stop offset="0.58" stop-color="#162561"/>
<stop offset="0.71" stop-color="#121355"/>
<stop offset="0.85" stop-color="#10084E"/>
<stop offset="1" stop-color="#0F054C"/>
</linearGradient>
<linearGradient id="paint6_linear" x1="-220932" y1="42820.1" x2="-198402" y2="78952.7" gradientUnits="userSpaceOnUse">
<stop stop-color="#42E8E0"/>
<stop offset="0.11" stop-color="#37B6BF"/>
<stop offset="0.22" stop-color="#2C87A1"/>
<stop offset="0.34" stop-color="#235F87"/>
<stop offset="0.46" stop-color="#1C3F72"/>
<stop offset="0.58" stop-color="#162561"/>
<stop offset="0.71" stop-color="#121355"/>
<stop offset="0.85" stop-color="#10084E"/>
<stop offset="1" stop-color="#0F054C"/>
</linearGradient>
<radialGradient id="paint7_radial" cx="0" cy="0" r="1" gradientUnits="userSpaceOnUse" gradientTransform="translate(-340822 -205670) rotate(29.8865) scale(53139.1 26508.1)">
<stop stop-color="#42E8E0"/>
<stop offset="0.11" stop-color="#37B6BF"/>
<stop offset="0.22" stop-color="#2C87A1"/>
<stop offset="0.34" stop-color="#235F87"/>
<stop offset="0.46" stop-color="#1C3F72"/>
<stop offset="0.58" stop-color="#162561"/>
<stop offset="0.71" stop-color="#121355"/>
<stop offset="0.85" stop-color="#10084E"/>
<stop offset="1" stop-color="#0F054C"/>
</radialGradient>
<radialGradient id="paint8_radial" cx="0" cy="0" r="1" gradientUnits="userSpaceOnUse" gradientTransform="translate(27267.3 19277.8) scale(5693.22 6497.71)">
<stop stop-color="#42E8E0"/>
<stop offset="0.11" stop-color="#37B6BF"/>
<stop offset="0.22" stop-color="#2C87A1"/>
<stop offset="0.34" stop-color="#235F87"/>
<stop offset="0.46" stop-color="#1C3F72"/>
<stop offset="0.58" stop-color="#162561"/>
<stop offset="0.71" stop-color="#121355"/>
<stop offset="0.85" stop-color="#10084E"/>
<stop offset="1" stop-color="#0F054C"/>
</radialGradient>
<linearGradient id="paint9_linear" x1="398.916" y1="368.027" x2="458.601" y2="511.438" gradientUnits="userSpaceOnUse">
<stop stop-color="#474C57"/>
<stop offset="1" stop-color="#2C313C"/>
</linearGradient>
</defs>
</svg>
