<svg width="211" height="40" viewBox="0 0 211 40" fill="none" xmlns="http://www.w3.org/2000/svg">
<path d="M0.760498 35.0514V0H12.1173C16.4213 0 19.2258 0.175912 20.5331 0.526185C22.5418 1.05237 24.2234 2.19618 25.578 3.95763C26.9326 5.71907 27.6099 7.9943 27.6099 10.7841C27.6099 12.9361 27.2193 14.7448 26.4382 16.211C25.657 17.678 24.6651 18.8288 23.4616 19.6657C22.2582 20.5026 21.0353 21.0567 19.7915 21.3272C18.1021 21.6619 15.6556 21.8293 12.4513 21.8293H7.83649V35.0522H0.760498V35.0514ZM7.83726 5.92985V15.8762H11.7112C14.5002 15.8762 16.3655 15.6933 17.3063 15.326C18.2463 14.9595 18.984 14.386 19.518 13.6049C20.0511 12.8237 20.3185 11.9155 20.3185 10.8786C20.3185 9.60385 19.9442 8.55225 19.1948 7.72307C18.4454 6.89465 17.4977 6.37622 16.35 6.16931C15.5053 6.00967 13.8074 5.92985 11.2571 5.92985H7.83726Z" fill="#24507B"/>
<path d="M61.4061 35.0514H53.707L50.6468 27.0889H36.6358L33.743 35.0514H26.2354L39.8875 0H47.3711L61.4061 35.0514ZM48.3754 21.1838L43.546 8.17718L38.8119 21.1838H48.3754Z" fill="#24507B"/>
<path d="M69.9086 35.0514V20.2988L57.0693 0H65.3659L73.6151 13.8676L81.697 0H89.8501L76.9629 20.3469V35.0514H69.9086Z" fill="#24507B"/>
<path d="M93.313 35.0514V0H119.303V5.92985H100.391V13.7002H117.988V19.606H100.391V29.1463H119.973V35.0522H93.313V35.0514Z" fill="#64B3DF"/>
<path d="M125.973 35.0514V0H151.963V5.92985H133.05V13.7002H150.648V19.606H133.05V29.1463H152.632V35.0522H125.973V35.0514Z" fill="#64B3DF"/>
<path d="M158.657 35.0514V0H173.553C177.298 0 180.02 0.314626 181.717 0.944654C183.415 1.57468 184.774 2.69447 185.794 4.30402C186.814 5.91435 187.325 7.75561 187.325 9.82703C187.325 12.4572 186.552 14.6293 185.006 16.3427C183.46 18.0561 181.148 19.1364 178.072 19.5828C179.603 20.4755 180.865 21.4558 181.862 22.5237C182.858 23.5915 184.202 25.4886 185.89 28.2141L190.17 35.0522H181.706L176.589 27.4252C174.772 24.6989 173.529 22.9817 172.859 22.2718C172.19 21.5627 171.48 21.0769 170.731 20.8134C169.982 20.5499 168.795 20.4189 167.168 20.4189H165.734V35.0522H158.657V35.0514ZM165.734 14.8239H170.971C174.366 14.8239 176.485 14.6805 177.33 14.3938C178.175 14.107 178.836 13.6134 179.315 12.9113C179.793 12.21 180.033 11.3335 180.033 10.2811C180.033 9.10169 179.718 8.14928 179.088 7.42394C178.458 6.69859 177.57 6.2406 176.422 6.04919C175.849 5.96937 174.127 5.92985 171.258 5.92985H165.735V14.8239H165.734Z" fill="#64B3DF"/>
<path d="M210.198 25.2609C210.198 27.9647 209.246 30.2717 207.342 32.1835C205.437 34.0961 203.136 35.0531 200.435 35.0531C197.733 35.0531 195.437 34.0961 193.541 32.1835C191.654 30.2787 190.712 27.9709 190.712 25.2609C190.712 22.5766 191.665 20.2858 193.567 18.3818C195.464 16.4871 197.752 15.5393 200.435 15.5393C203.136 15.5393 205.437 16.4871 207.342 18.3818C209.247 20.2765 210.198 22.5719 210.198 25.2609ZM200.436 16.8668C198.125 16.8668 196.151 17.6905 194.51 19.3373C192.882 20.9771 192.067 22.9539 192.067 25.2757C192.067 27.6137 192.878 29.606 194.498 31.2543C196.129 32.9003 198.105 33.7241 200.436 33.7241C202.765 33.7241 204.742 32.9003 206.372 31.2543C208.004 29.606 208.817 27.6137 208.817 25.2757C208.817 22.9539 208.004 20.9771 206.372 19.3373C204.737 17.6898 202.754 16.8668 200.436 16.8668ZM200.248 19.8821C201.578 19.8821 202.553 20.0099 203.171 20.2665C204.279 20.7283 204.832 21.6319 204.832 22.9811C204.832 23.9366 204.483 24.6441 203.787 25.0951C203.418 25.3346 202.903 25.5043 202.238 25.6104C203.078 25.7437 203.689 26.0948 204.077 26.6636C204.465 27.227 204.659 27.778 204.659 28.3204V29.1016C204.659 29.3511 204.666 29.6169 204.685 29.899C204.703 30.1795 204.736 30.367 204.778 30.4569L204.844 30.5894H203.078C203.067 30.5522 203.062 30.5174 203.051 30.4833C203.04 30.4461 203.036 30.4081 203.025 30.3608L202.985 30.0183V29.1705C202.985 27.936 202.647 27.12 201.975 26.7225C201.577 26.4939 200.877 26.3761 199.876 26.3761H198.389V30.5902H196.503V19.8821H200.248ZM202.999 23.1353C202.999 22.3603 202.76 21.8326 202.287 21.5691C201.811 21.3033 201.048 21.17 200.002 21.17H198.39V25.0471H200.095C200.894 25.0471 201.495 24.9672 201.893 24.8076C202.63 24.517 202.999 23.9583 202.999 23.1353Z" fill="white"/>
</svg>
