<svg width="112" height="40" viewBox="0 0 112 40" fill="none" xmlns="http://www.w3.org/2000/svg">
<g clip-path="url(#clip0)">
<path d="M0.0563965 36.3828L1.19462 36.2686C1.23238 36.5911 1.38079 36.8905 1.61455 37.1158C1.85474 37.3057 2.15603 37.4014 2.46177 37.3847C2.76597 37.4083 3.06867 37.3234 3.31637 37.1453C3.40402 37.0803 3.47553 36.996 3.52535 36.8989C3.57518 36.8018 3.60198 36.6945 3.60368 36.5854C3.61076 36.4517 3.56737 36.3203 3.48213 36.217C3.36498 36.1001 3.22071 36.0141 3.0622 35.9666C2.92591 35.9334 2.60543 35.8524 2.12657 35.7308C1.64855 35.6436 1.19721 35.4469 0.807847 35.1562C0.638774 35.0133 0.50326 34.8349 0.410945 34.6337C0.318629 34.4326 0.271779 34.2135 0.273728 33.9922C0.271189 33.6929 0.359844 33.3999 0.527895 33.1523C0.706865 32.8855 0.964296 32.6808 1.26461 32.5666C1.62755 32.4223 2.01608 32.3533 2.40652 32.364C2.99401 32.3199 3.5776 32.49 4.0494 32.8429C4.23243 33.0025 4.3791 33.1995 4.4795 33.4207C4.5799 33.6418 4.6317 33.8819 4.6314 34.1248L3.45634 34.1727C3.43244 33.9249 3.31683 33.695 3.13219 33.528C2.91606 33.3806 2.65644 33.3105 2.39547 33.3291C2.11354 33.3129 1.83372 33.3864 1.59613 33.5391C1.53638 33.5795 1.48805 33.6346 1.45579 33.6991C1.42353 33.7636 1.40843 33.8354 1.41195 33.9074C1.40949 33.9782 1.42391 34.0485 1.45402 34.1125C1.48412 34.1766 1.52905 34.2326 1.58508 34.2758C1.91761 34.4644 2.28238 34.5893 2.66069 34.6442C3.09683 34.7324 3.52095 34.8722 3.92416 35.0604C4.18771 35.1962 4.40929 35.4012 4.5651 35.6535C4.72507 35.9347 4.80411 36.2547 4.79348 36.578C4.79403 36.9101 4.69805 37.2352 4.51721 37.5137C4.32597 37.8151 4.04329 38.0475 3.71051 38.1767C3.307 38.3282 2.87784 38.3995 2.44704 38.3867C1.84241 38.4255 1.24424 38.2436 0.763644 37.8746C0.346208 37.4858 0.0931939 36.9521 0.0563965 36.3828Z" fill="#4D67AC"/>
<path d="M5.99414 33.5205V32.4817H7.09922V33.5205H5.99414ZM5.99414 38.3091V34.0804H7.09922V38.2833L5.99414 38.3091Z" fill="#4D67AC"/>
<path d="M12.3189 38.2835H11.2138V36.136C11.2302 35.8395 11.2066 35.5422 11.1438 35.2519C11.1015 35.1266 11.0202 35.0182 10.9118 34.9425C10.8029 34.8695 10.6745 34.831 10.5434 34.832C10.3591 34.829 10.1786 34.8845 10.0277 34.9904C9.87811 35.0902 9.76751 35.2385 9.7146 35.4103C9.63533 35.7257 9.59817 36.0503 9.6041 36.3754V38.2835H8.49902V34.0806H9.53411V34.6994C9.75925 34.3818 10.0859 34.1503 10.4602 34.0432C10.8345 33.936 11.2341 33.9596 11.5932 34.11C11.7719 34.184 11.9299 34.3003 12.0537 34.4489C12.1574 34.5883 12.2314 34.7475 12.271 34.9167C12.316 35.1596 12.3357 35.4065 12.3299 35.6534L12.3189 38.2835Z" fill="#4D67AC"/>
<path d="M13.5786 38.5596L14.8421 38.6995C14.8475 38.8215 14.9004 38.9365 14.9894 39.02C15.138 39.1158 15.3141 39.1598 15.4904 39.1452C15.7164 39.1603 15.9425 39.1158 16.146 39.0163C16.2505 38.952 16.3287 38.8528 16.3671 38.7364C16.4114 38.5695 16.4288 38.3967 16.4186 38.2243V37.6129C16.2816 37.8195 16.0954 37.9888 15.8769 38.1058C15.6583 38.2228 15.4141 38.2838 15.1662 38.2833C14.8975 38.2875 14.6323 38.2218 14.3965 38.0927C14.1608 37.9635 13.9628 37.7754 13.8217 37.5466C13.5514 37.127 13.4164 36.6345 13.4349 36.1358C13.3948 35.552 13.5763 34.9745 13.9433 34.5187C14.1011 34.3389 14.2963 34.1957 14.5151 34.099C14.7339 34.0023 14.9712 33.9544 15.2104 33.9588C15.4646 33.958 15.715 34.0201 15.9393 34.1397C16.1637 34.2592 16.3549 34.4325 16.496 34.6439V34.0803H17.5348V37.8597C17.5478 38.2322 17.5056 38.6046 17.4095 38.9647C17.3452 39.183 17.2275 39.3818 17.0669 39.5431C16.8956 39.6953 16.6933 39.8084 16.4739 39.8746C16.1684 39.9604 15.8518 40.0001 15.5346 39.9925C15.0019 40.0399 14.4685 39.9105 14.0169 39.6241C13.875 39.5134 13.7605 39.3713 13.6826 39.209C13.6046 39.0467 13.5652 38.8685 13.5675 38.6885C13.5712 38.6774 13.5749 38.6148 13.5786 38.5596ZM14.5768 36.0989C14.5495 36.4465 14.6404 36.793 14.8347 37.0824C14.9094 37.1792 15.0054 37.2575 15.1153 37.3112C15.2252 37.3648 15.346 37.3924 15.4683 37.3919C15.5988 37.3932 15.728 37.3654 15.8465 37.3106C15.965 37.2558 16.0698 37.1754 16.1534 37.0751C16.3571 36.8032 16.4564 36.4673 16.4334 36.1284C16.461 35.7827 16.3657 35.4383 16.1645 35.1559C16.0859 35.0541 15.9848 34.9718 15.8692 34.9155C15.7535 34.8593 15.6264 34.8306 15.4977 34.8318C15.372 34.8295 15.2474 34.8562 15.1337 34.9098C15.02 34.9635 14.9202 35.0427 14.8421 35.1412C14.6468 35.4207 14.5532 35.7588 14.5768 36.0989Z" fill="#4D67AC"/>
<path d="M18.8757 38.2833V32.4817H19.9808V38.2833H18.8757Z" fill="#4D67AC"/>
<path d="M23.8191 36.9609L24.9241 37.1451C24.8052 37.518 24.5687 37.8423 24.25 38.0697C23.9051 38.2922 23.4999 38.4029 23.0897 38.3864C22.7802 38.4096 22.4698 38.3562 22.1858 38.2309C21.9018 38.1057 21.6531 37.9124 21.4616 37.6681C21.1675 37.2348 21.0215 36.7179 21.0453 36.1947C21.0111 35.5981 21.2076 35.0112 21.5942 34.5555C21.7679 34.3615 21.9818 34.2076 22.2209 34.1045C22.4601 34.0015 22.7189 33.9518 22.9792 33.9588C23.2558 33.9477 23.5315 33.9981 23.7863 34.1064C24.0411 34.2146 24.2687 34.3781 24.4526 34.585C24.8136 34.9976 24.9868 35.6336 24.972 36.4931H22.1872C22.1754 36.7746 22.2716 37.05 22.4561 37.263C22.5383 37.3525 22.6387 37.4234 22.7505 37.471C22.8623 37.5187 22.983 37.5419 23.1044 37.5392C23.2645 37.5438 23.4215 37.4945 23.5502 37.3992C23.6818 37.2834 23.7755 37.1307 23.8191 36.9609ZM23.878 35.83C23.8866 35.5622 23.7976 35.3004 23.6275 35.0933C23.5523 35.0109 23.4607 34.9451 23.3586 34.9C23.2564 34.855 23.1461 34.8317 23.0345 34.8317C22.9229 34.8317 22.8125 34.855 22.7104 34.9C22.6082 34.9451 22.5166 35.0109 22.4414 35.0933C22.2695 35.2986 22.1849 35.5631 22.2057 35.83H23.878Z" fill="#4D67AC"/>
<path d="M28.6372 38.2833V32.4817H32.9286V33.4615H29.8123V34.7508H32.7112V35.7306H29.8123V37.3072H33.0465V38.287L28.6372 38.2833Z" fill="#4D67AC"/>
<path d="M37.0359 38.2835V37.6536C36.8825 37.8795 36.6747 38.0632 36.4318 38.1878C36.1883 38.3185 35.9162 38.3868 35.6398 38.3867C35.3742 38.3905 35.1119 38.3271 34.8773 38.2025C34.6618 38.0868 34.4908 37.9028 34.3911 37.6794C34.2767 37.3826 34.2252 37.0652 34.24 36.7475V34.0806H35.3451V36.0144C35.3272 36.3838 35.347 36.7541 35.404 37.1195C35.4423 37.2468 35.5212 37.3581 35.6287 37.4363C35.7505 37.5178 35.8948 37.5591 36.0413 37.5542C36.2239 37.5567 36.4027 37.5027 36.5533 37.3995C36.693 37.3039 36.7998 37.1676 36.8591 37.009C36.9374 36.6363 36.9659 36.2547 36.9438 35.8745V34.0806H38.0489V38.2835H37.0359Z" fill="#4D67AC"/>
<path d="M40.5243 38.2835H39.4192V34.0805H40.4543V34.6809C40.5758 34.4638 40.7384 34.2723 40.9331 34.1174C41.0765 34.0238 41.2445 33.9751 41.4157 33.9774C41.6762 33.9796 41.9311 34.0535 42.1524 34.191L41.8135 35.1635C41.6565 35.0575 41.4725 34.9987 41.2831 34.994C41.1397 34.991 40.9996 35.0365 40.8853 35.123C40.756 35.2502 40.6675 35.4131 40.6311 35.5908C40.5481 36.0549 40.516 36.5268 40.5353 36.9979L40.5243 38.2835Z" fill="#4D67AC"/>
<path d="M42.587 36.1249C42.5891 35.7484 42.6826 35.378 42.8595 35.0456C43.0326 34.7103 43.302 34.4345 43.6331 34.2537C43.9722 34.0697 44.3524 33.9747 44.7382 33.9774C45.0279 33.9681 45.3164 34.0186 45.5857 34.1257C45.8551 34.2328 46.0995 34.3942 46.3037 34.5999C46.6971 35.0315 46.9152 35.5944 46.9152 36.1783C46.9152 36.7623 46.6971 37.3252 46.3037 37.7568C46.103 37.9636 45.8615 38.1263 45.5946 38.2348C45.3276 38.3432 45.041 38.3949 44.7529 38.3866C44.3689 38.3892 43.9899 38.2995 43.6478 38.1251C43.3067 37.9594 43.0269 37.6899 42.8485 37.3552C42.6611 36.973 42.5712 36.5503 42.587 36.1249ZM43.7252 36.1839C43.7023 36.5302 43.8086 36.8727 44.0236 37.1453C44.1146 37.2511 44.2278 37.3356 44.3551 37.3929C44.4824 37.4502 44.6207 37.4788 44.7603 37.4768C44.9001 37.4804 45.0389 37.4524 45.1664 37.395C45.294 37.3376 45.4069 37.2523 45.497 37.1453C45.713 36.8705 45.8194 36.5252 45.7954 36.1765C45.8181 35.8324 45.7118 35.4922 45.497 35.2225C45.4071 35.115 45.2943 35.0291 45.1668 34.9711C45.0393 34.913 44.9003 34.8844 44.7603 34.8872C44.6205 34.886 44.482 34.9153 44.3548 34.9732C44.2275 35.0311 44.1144 35.1162 44.0236 35.2225C43.8077 35.4945 43.7013 35.8374 43.7252 36.1839Z" fill="#4D67AC"/>
<path d="M50.562 38.2833V32.4816H52.4406C52.9078 32.4626 53.3757 32.4923 53.8367 32.5701C54.1731 32.6621 54.4672 32.8678 54.6692 33.1521C54.9052 33.4805 55.0233 33.879 55.0044 34.2829C55.0152 34.5937 54.9494 34.9023 54.8129 35.1817C54.6934 35.4007 54.5244 35.5886 54.3193 35.7306C54.1384 35.8621 53.933 35.9561 53.7152 36.0068C53.3132 36.0704 52.9064 36.0976 52.4996 36.0879H51.7371V38.2759L50.562 38.2833ZM51.7371 33.4615V35.1191H52.378C52.6879 35.1376 52.9988 35.1065 53.2989 35.027C53.4478 34.9707 53.5755 34.8696 53.6646 34.7377C53.7537 34.6057 53.7996 34.4494 53.7962 34.2903C53.8062 34.0973 53.7401 33.9082 53.612 33.7635C53.4897 33.6253 53.3229 33.5341 53.1405 33.5057C52.8621 33.4692 52.5812 33.4557 52.3007 33.4652L51.7371 33.4615Z" fill="#4D67AC"/>
<path d="M57.0154 35.3626L56.0172 35.1784C56.0944 34.8115 56.3009 34.4847 56.5992 34.2575C56.9729 34.0374 57.4041 33.9347 57.8369 33.9628C58.2136 33.9425 58.5903 34.0027 58.9419 34.1396C59.1557 34.2318 59.3349 34.389 59.454 34.589C59.5783 34.9063 59.6299 35.2474 59.605 35.5873V36.8876C59.5978 37.1613 59.6163 37.4351 59.6602 37.7053C59.7041 37.9004 59.7708 38.0896 59.8591 38.2689H58.7541C58.7246 38.1952 58.6915 38.0884 58.6472 37.9448C58.6288 37.8821 58.6141 37.8379 58.6067 37.8158C58.4322 37.9927 58.2261 38.1351 57.9989 38.2358C57.7798 38.3279 57.5441 38.3742 57.3064 38.3721C56.931 38.3889 56.5641 38.2565 56.2861 38.0037C56.1645 37.8901 56.0688 37.7517 56.0052 37.5979C55.9417 37.4442 55.9118 37.2785 55.9177 37.1123C55.9155 36.8884 55.9741 36.6682 56.0872 36.475C56.202 36.2892 56.3684 36.1407 56.566 36.0477C56.849 35.9258 57.1459 35.8392 57.4501 35.7899C57.8186 35.7304 58.1811 35.6379 58.5331 35.5136V35.4031C58.5413 35.3186 58.5311 35.2333 58.5031 35.1532C58.4751 35.073 58.43 34.9999 58.371 34.939C58.1917 34.8276 57.9803 34.7796 57.7706 34.8027C57.6078 34.7925 57.4459 34.8323 57.3064 34.9169C57.1643 35.0305 57.0623 35.1867 57.0154 35.3626ZM58.5146 36.2724C58.2918 36.3417 58.0656 36.3995 57.8369 36.4455C57.627 36.4787 57.4234 36.5433 57.2328 36.6371C57.1668 36.6797 57.1124 36.738 57.0745 36.8068C57.0365 36.8756 57.0163 36.9527 57.0154 37.0312C57.0149 37.107 57.0301 37.1821 57.0598 37.2518C57.0896 37.3215 57.1334 37.3844 57.1886 37.4364C57.2475 37.4936 57.3174 37.5383 57.3939 37.5681C57.4705 37.5978 57.5522 37.6119 57.6343 37.6096C57.8412 37.6072 58.0416 37.5373 58.2052 37.4106C58.3302 37.3188 58.423 37.1899 58.4704 37.0423C58.508 36.8644 58.5229 36.6824 58.5146 36.5008V36.2724Z" fill="#4D67AC"/>
<path d="M60.4082 34.0806H61.5943L62.5999 37.0643L63.5871 34.0806H64.7364L63.263 38.1325L62.9941 38.8692C62.9204 39.0662 62.8266 39.2551 62.7141 39.4328C62.6316 39.5545 62.5281 39.6605 62.4084 39.7459C62.2794 39.833 62.136 39.8966 61.9848 39.9338C61.7986 39.9833 61.6065 40.0069 61.4138 40.0038C61.2019 40.0046 60.9905 39.9811 60.7839 39.9338L60.6808 39.0644C60.836 39.0962 60.9939 39.1135 61.1523 39.116C61.2597 39.1245 61.3677 39.1084 61.4679 39.0688C61.5681 39.0292 61.658 38.9672 61.7306 38.8876C61.866 38.7131 61.9638 38.5124 62.0179 38.2983L60.4082 34.0806Z" fill="#4D67AC"/>
<path d="M65.5945 34.0804H66.6185V34.655C66.7695 34.448 66.9666 34.2789 67.1942 34.1613C67.4218 34.0437 67.6737 33.9806 67.9299 33.9772C68.1748 33.9708 68.4172 34.0279 68.6334 34.143C68.8394 34.2637 69.0087 34.4382 69.1234 34.6476C69.2869 34.4415 69.4897 34.27 69.7201 34.143C69.9317 34.0331 70.1668 33.9762 70.4052 33.9772C70.6794 33.9677 70.9509 34.034 71.1898 34.1688C71.406 34.2961 71.5753 34.4899 71.6724 34.7213C71.7626 35.0018 71.8013 35.2963 71.7866 35.5906V38.2833H70.6815V35.8779C70.7062 35.6023 70.6658 35.3247 70.5636 35.0676C70.5135 34.9895 70.4433 34.9264 70.3603 34.8849C70.2773 34.8434 70.1847 34.8251 70.0921 34.8318C69.9249 34.8314 69.7623 34.8861 69.6291 34.9872C69.496 35.0884 69.3998 35.2305 69.3554 35.3917C69.2817 35.6753 69.2506 35.9683 69.2633 36.261V38.2833H68.1583V35.9774C68.172 35.7108 68.1522 35.4435 68.0993 35.1817C68.0684 35.0757 68.0037 34.9826 67.9151 34.9165C67.8132 34.8551 67.6951 34.8256 67.5763 34.8318C67.4125 34.8294 67.2519 34.877 67.1158 34.9681C66.9758 35.0656 66.8721 35.2068 66.8211 35.3696C66.7494 35.6535 66.7196 35.9464 66.7327 36.2389V38.2833H65.6276L65.5945 34.0804Z" fill="#4D67AC"/>
<path d="M75.5881 36.9609L76.6932 37.1451C76.5728 37.5182 76.335 37.8425 76.0154 38.0697C75.672 38.2926 75.2678 38.4033 74.8588 38.3864C74.5493 38.4096 74.2388 38.3562 73.9548 38.2309C73.6709 38.1057 73.4221 37.9124 73.2306 37.6681C72.9365 37.2348 72.7905 36.7179 72.8144 36.1947C72.7802 35.5981 72.9767 35.0112 73.3632 34.5555C73.5369 34.3615 73.7508 34.2076 73.99 34.1045C74.2292 34.0015 74.4879 33.9518 74.7483 33.9588C75.0249 33.9477 75.3005 33.9981 75.5553 34.1064C75.8101 34.2146 76.0377 34.3781 76.2217 34.585C76.5827 34.9976 76.7558 35.6336 76.7411 36.4931H73.9415C73.9333 36.7747 74.0305 37.0492 74.2141 37.263C74.2963 37.3525 74.3967 37.4234 74.5085 37.471C74.6203 37.5187 74.7409 37.5419 74.8624 37.5392C75.0215 37.5444 75.1774 37.495 75.3045 37.3992C75.4424 37.2863 75.5416 37.133 75.5881 36.9609ZM75.647 35.83C75.6556 35.5622 75.5666 35.3004 75.3966 35.0933C75.3213 35.0109 75.2297 34.9451 75.1276 34.9C75.0255 34.855 74.9151 34.8317 74.8035 34.8317C74.6919 34.8317 74.5815 34.855 74.4794 34.9C74.3773 34.9451 74.2857 35.0109 74.2104 35.0933C74.0386 35.2986 73.9539 35.5631 73.9747 35.83H75.647Z" fill="#4D67AC"/>
<path d="M81.7212 38.2834H80.6161V36.1359C80.6318 35.8392 80.607 35.5418 80.5425 35.2518C80.5016 35.1268 80.4215 35.0183 80.3141 34.9424C80.1997 34.8664 80.0646 34.8278 79.9273 34.8319C79.7431 34.8294 79.5627 34.8848 79.4116 34.9903C79.263 35.0911 79.1527 35.239 79.0985 35.4102C79.0279 35.7268 78.9994 36.0513 79.0138 36.3753V38.2834H77.9087V34.0804H78.9438V34.6993C79.0975 34.4732 79.3039 34.2881 79.5452 34.1597C79.7865 34.0313 80.0555 33.9637 80.3288 33.9625C80.5603 33.9595 80.7898 34.0047 81.0029 34.0952C81.1822 34.1681 81.3404 34.2846 81.4633 34.434C81.5671 34.5734 81.6411 34.7327 81.6807 34.9019C81.7272 35.1446 81.7482 35.3915 81.7433 35.6386L81.7212 38.2834Z" fill="#4D67AC"/>
<path d="M85.0145 34.0805V34.9682H84.2556V36.6701C84.2505 36.8704 84.2567 37.0708 84.2741 37.2705C84.2897 37.3274 84.3249 37.377 84.3735 37.4105C84.4273 37.4484 84.4919 37.4678 84.5577 37.4657C84.7088 37.4553 84.8571 37.4192 84.996 37.3589L85.0955 38.2208C84.8187 38.3346 84.5217 38.391 84.2225 38.3866C84.0372 38.3895 83.8532 38.3557 83.681 38.2871C83.5359 38.2366 83.4082 38.1459 83.3127 38.0256C83.2301 37.8937 83.1773 37.7453 83.1579 37.5909C83.1291 37.3305 83.1181 37.0683 83.1248 36.8063V34.9646H82.6165V34.0805H83.1248V33.2406L84.2299 32.585V34.0805H85.0145Z" fill="#4D67AC"/>
<path d="M85.6406 37.0973L86.7457 36.9242C86.7776 37.1174 86.88 37.292 87.033 37.4141C87.2117 37.535 87.4255 37.5933 87.6408 37.5799C87.8681 37.5952 88.0945 37.5398 88.2891 37.4215C88.3354 37.3868 88.3728 37.3417 88.3984 37.2899C88.424 37.2381 88.437 37.1809 88.4365 37.1231C88.438 37.0844 88.4316 37.0459 88.4177 37.0098C88.4037 36.9736 88.3825 36.9408 88.3554 36.9132C88.246 36.8356 88.1198 36.7851 87.9871 36.7658C87.3912 36.6694 86.8128 36.4857 86.2705 36.2206C86.1121 36.1198 85.9826 35.9795 85.8948 35.8136C85.807 35.6476 85.7638 35.4617 85.7696 35.274C85.7669 35.0975 85.8047 34.9227 85.8801 34.7631C85.9554 34.6035 86.0663 34.4632 86.2042 34.3531C86.5943 34.0742 87.071 33.9436 87.5487 33.9847C87.9962 33.9553 88.443 34.0523 88.838 34.2647C89.1252 34.4605 89.3319 34.7535 89.42 35.0898L88.3702 35.285C88.33 35.1358 88.2388 35.0054 88.1123 34.9167C87.9484 34.8214 87.7601 34.7766 87.5708 34.7877C87.3509 34.7702 87.1304 34.8135 86.9336 34.913C86.8944 34.936 86.8619 34.9688 86.8393 35.0082C86.8167 35.0476 86.8048 35.0922 86.8046 35.1377C86.8048 35.178 86.815 35.2176 86.8343 35.2529C86.8536 35.2883 86.8814 35.3183 86.9151 35.3403C87.2488 35.4903 87.6004 35.5967 87.9613 35.6571C88.4072 35.7313 88.8319 35.9009 89.2063 36.1543C89.3269 36.256 89.4227 36.3838 89.4866 36.5281C89.5504 36.6723 89.5805 36.8292 89.5747 36.9868C89.5738 37.1787 89.5301 37.3679 89.4466 37.5407C89.3631 37.7134 89.242 37.8652 89.0921 37.9851C88.6809 38.2904 88.1738 38.4381 87.6629 38.4013C87.1851 38.427 86.7109 38.3062 86.3037 38.0551C85.9708 37.8298 85.7343 37.4882 85.6406 37.0973Z" fill="#4D67AC"/>
<path d="M98.5147 38.2833H97.2512L96.7502 36.972H94.4112L93.9323 38.2833H92.6909L94.9379 32.4817H96.1682L98.5147 38.2833ZM96.3634 35.9921L95.5531 33.8409L94.7685 35.9921H96.3634Z" fill="#4D67AC"/>
<path d="M100.434 38.2835H99.3289V34.0805H100.364V34.6809C100.483 34.4622 100.646 34.2703 100.843 34.1173C100.985 34.0239 101.152 33.9751 101.322 33.9774C101.582 33.9796 101.837 34.0535 102.058 34.191L101.694 35.1635C101.54 35.0536 101.359 34.9897 101.171 34.9793C101.027 34.9751 100.887 35.0207 100.773 35.1082C100.641 35.234 100.551 35.3973 100.515 35.576C100.434 36.0404 100.403 36.5122 100.423 36.9832L100.434 38.2835Z" fill="#4D67AC"/>
<path d="M105.211 36.9609L106.317 37.145C106.196 37.5182 105.958 37.8425 105.639 38.0696C105.295 38.2921 104.891 38.4028 104.482 38.3864C104.173 38.4099 103.862 38.3567 103.578 38.2314C103.294 38.1061 103.045 37.9126 102.854 37.6681C102.558 37.2355 102.412 36.7181 102.438 36.1947C102.402 35.5985 102.597 35.0116 102.983 34.5555C103.157 34.362 103.371 34.2085 103.61 34.1055C103.849 34.0025 104.108 33.9525 104.368 33.9587C104.645 33.9468 104.921 33.9969 105.175 34.1052C105.43 34.2136 105.658 34.3775 105.841 34.585C106.205 34.9975 106.379 35.6335 106.364 36.4931H103.565C103.554 36.7751 103.652 37.0505 103.837 37.2629C103.92 37.3524 104.02 37.4234 104.132 37.471C104.244 37.5186 104.364 37.5419 104.486 37.5392C104.645 37.5438 104.801 37.4945 104.928 37.3992C105.065 37.2853 105.164 37.1324 105.211 36.9609ZM105.27 35.83C105.278 35.5617 105.188 35.2998 105.016 35.0933C104.944 35.0119 104.855 34.947 104.755 34.9032C104.655 34.8593 104.547 34.8375 104.438 34.8391C104.323 34.8362 104.209 34.8588 104.104 34.9053C103.999 34.9518 103.905 35.0211 103.83 35.108C103.661 35.3146 103.578 35.5785 103.598 35.8447L105.27 35.83Z" fill="#4D67AC"/>
<path d="M108.324 35.3625L107.322 35.1783C107.406 34.8095 107.619 34.4829 107.923 34.2574C108.295 34.0367 108.725 33.934 109.157 33.9627C109.533 33.9424 109.91 34.0027 110.262 34.1396C110.477 34.231 110.657 34.3884 110.777 34.589C110.898 34.9071 110.948 35.2477 110.925 35.5872V36.8875C110.919 37.1611 110.936 37.4346 110.976 37.7053C111.02 37.9003 111.087 38.0895 111.175 38.2688H110.07C110.041 38.1952 110.004 38.0884 109.96 37.9447C109.941 37.8821 109.93 37.8379 109.923 37.8158C109.746 37.9919 109.539 38.1343 109.311 38.2357C109.093 38.3278 108.859 38.3742 108.622 38.372C108.246 38.389 107.878 38.2567 107.598 38.0036C107.477 37.8902 107.381 37.7518 107.317 37.598C107.254 37.4442 107.224 37.2785 107.23 37.1122C107.226 36.8882 107.285 36.6675 107.399 36.4749C107.514 36.2901 107.679 36.1418 107.875 36.0476C108.159 35.9253 108.457 35.8387 108.762 35.7898C109.13 35.731 109.491 35.6385 109.842 35.5135V35.403C109.85 35.3188 109.841 35.2337 109.813 35.1536C109.786 35.0735 109.742 35.0002 109.683 34.9389C109.504 34.8281 109.293 34.7801 109.083 34.8026C108.996 34.789 108.908 34.7928 108.823 34.8136C108.737 34.8345 108.657 34.872 108.587 34.9241C108.516 34.9762 108.456 35.0418 108.411 35.117C108.366 35.1923 108.337 35.2757 108.324 35.3625ZM109.82 36.2723C109.676 36.3202 109.451 36.3792 109.145 36.4455C108.935 36.4774 108.732 36.542 108.541 36.637C108.475 36.6791 108.42 36.7373 108.382 36.8062C108.344 36.8751 108.324 36.9525 108.324 37.0312C108.323 37.1071 108.337 37.1825 108.367 37.2523C108.397 37.3221 108.441 37.3849 108.497 37.4364C108.555 37.4937 108.624 37.5387 108.7 37.5685C108.776 37.5982 108.858 37.6122 108.939 37.6095C109.146 37.6071 109.347 37.5373 109.51 37.4106C109.638 37.3213 109.731 37.1914 109.775 37.0422C109.813 36.8643 109.828 36.6824 109.82 36.5007V36.2723Z" fill="#4D67AC"/>
<path d="M24.7068 9.68417H17.1113C17.1113 8.43911 16.964 7.59926 16.673 7.17565C16.2211 6.54207 14.9699 6.22651 12.9194 6.22897C10.9327 6.22897 9.6189 6.41069 8.97796 6.77414C8.33701 7.14249 8.01286 7.93078 8.01286 9.15373C8.01286 10.2588 8.30018 10.9955 8.86745 11.3344C9.36562 11.6147 9.92426 11.7701 10.4956 11.7875L12.0316 11.898C15.3248 12.1043 17.3765 12.2516 18.1869 12.34C20.7851 12.6003 22.6686 13.2904 23.8375 14.4102C24.7769 15.3191 25.3597 16.5344 25.4804 17.8359C25.5894 18.7848 25.641 19.7393 25.6351 20.6944C25.6351 23.1501 25.4018 24.9403 24.9352 26.065C24.088 28.145 22.1848 29.4613 19.2257 30.0138C17.3449 30.2969 15.4435 30.4201 13.5419 30.3822C9.28369 30.3822 6.31718 30.128 4.64238 29.6197C2.58449 28.9935 1.23384 27.7288 0.590443 25.8256C0.207351 24.75 0.0268555 22.9819 0.0268555 20.5139H7.62977V21.1438C7.62977 22.4625 8.00795 23.311 8.76431 23.6891C9.3594 23.9661 10.0087 24.107 10.665 24.1017H13.4609C14.8876 24.1017 15.7975 24.028 16.1904 23.8807C16.5047 23.7769 16.7916 23.6039 17.0301 23.3743C17.2685 23.1448 17.4524 22.8647 17.5681 22.5546C17.6965 22.0744 17.7548 21.5781 17.7412 21.0812C17.7412 19.744 17.2513 18.93 16.2678 18.6389C15.9043 18.5235 14.2086 18.3639 11.1807 18.1601C8.75203 17.9882 7.06495 17.82 6.1195 17.6554C3.63677 17.1987 1.98161 16.2434 1.15403 14.7896C0.417315 13.5617 0.048957 11.6942 0.048957 9.18688C0.00413387 7.63816 0.208095 6.09229 0.653064 4.60819C0.981907 3.55016 1.65149 2.63062 2.55748 1.99285C3.83568 1.07564 5.47855 0.541518 7.47137 0.36839C9.13881 0.233325 10.9831 0.164565 13.0041 0.162109C16.1965 0.162109 18.4693 0.343833 19.8224 0.707279C23.1303 1.59625 24.7842 4.08635 24.7842 8.17758C24.7842 8.51279 24.7621 9.01375 24.7068 9.68417Z" fill="#4D67AC"/>
<path d="M58.1426 30.3638V0H73.3668C75.4566 0 77.0529 0.170673 78.1555 0.512018C79.327 0.839352 80.3999 1.45015 81.2794 2.29046C82.1589 3.13077 82.8179 4.17473 83.1983 5.33014C83.6428 6.60466 83.865 8.52258 83.865 11.0839C83.865 14.1634 83.6195 16.3735 83.1283 17.7143C82.146 20.3788 80.1385 21.9112 77.1057 22.3114C76.7373 22.3704 75.2307 22.4256 72.5491 22.4662L71.1935 22.514H66.3312V30.3638H58.1426ZM66.3312 15.471H71.4256C73.0414 15.4146 74.0237 15.2918 74.3724 15.1027C74.855 14.8375 75.1791 14.307 75.3375 13.5077C75.4609 12.7245 75.5127 11.9317 75.4922 11.1391C75.5319 10.1777 75.4288 9.21564 75.1865 8.28437C74.8918 7.41259 74.187 6.88093 73.0721 6.68938C72.8511 6.65991 72.3354 6.64518 71.4882 6.64518H66.3312V15.471Z" fill="#4D67AC"/>
<path d="M101.3 25.1147H90.374L88.9006 30.3638H80.4504L89.571 0H101.9L111.135 30.3638H102.858L101.3 25.1147ZM99.675 19.1988L95.8478 6.03739L92.1163 19.1988H99.675Z" fill="#4D67AC"/>
<path d="M46.8636 4.27303C48.4649 4.27154 50.0464 4.62837 51.4919 5.31738C52.9375 6.00638 54.2106 7.0101 55.2179 8.25498L56.9824 4.47931C55.1694 2.76844 52.97 1.52096 50.5712 0.843074C48.1724 0.165186 45.6453 0.0769631 43.2051 0.585915C40.7649 1.09487 38.4838 2.18592 36.556 3.7662C34.6282 5.34648 33.1108 7.36918 32.1329 9.66211H28.6998L26.6702 13.9977H31.0905C31.0573 14.3992 31.0352 14.8044 31.0352 15.2169C31.0352 15.7142 31.061 16.2078 31.1089 16.6904H28.8987L26.8728 21.0407H32.2508C33.4513 23.7747 35.4243 26.0985 37.9274 27.7266C40.4304 29.3547 43.3545 30.2163 46.3405 30.2054C49.4032 30.2173 52.4005 29.3199 54.9527 27.6269V22.2673C53.8592 23.517 52.4911 24.4965 50.9557 25.1289C49.4203 25.7613 47.7593 26.0295 46.1029 25.9125C44.4464 25.7954 42.8396 25.2963 41.4084 24.4543C39.9772 23.6122 38.7604 22.4501 37.8535 21.0591H49.1142L51.1439 16.7088H36.1959C36.119 16.1769 36.0797 15.6402 36.078 15.1028C36.0751 14.7338 36.091 14.365 36.1259 13.9977H52.3926L54.4223 9.64737H37.5404C38.4862 8.01224 39.8456 6.6548 41.4821 5.71143C43.1186 4.76806 44.9746 4.27198 46.8636 4.27303Z" fill="#F0BC44"/>
<path d="M46.8635 4.42022C48.4462 4.41879 50.009 4.77171 51.4375 5.4531C52.8659 6.1345 54.1237 7.12706 55.1184 8.35797L55.251 8.52005L55.3395 8.3285L57.1002 4.55283L57.137 4.46811L57.0707 4.4018C54.4842 1.97328 51.1513 0.492509 47.6153 0.200856C44.0793 -0.0907966 40.5489 0.82387 37.5993 2.79576C35.1028 4.46428 33.1589 6.83768 32.015 9.61407L32.1329 9.53303H28.6151L28.5819 9.6067L26.5486 13.957L26.4639 14.1412H31.0904L30.9689 13.9975C30.9321 14.4506 30.9173 14.8521 30.9173 15.2278C30.9169 15.7199 30.9415 16.2117 30.991 16.7013L31.1199 16.5613H28.8066L28.7735 16.635L26.7438 20.9963L26.6554 21.1805H32.2397L32.1182 21.1032C33.3324 23.8579 35.3257 26.1975 37.8527 27.8337C40.3797 29.4699 43.33 30.3314 46.3405 30.3121C49.4304 30.3201 52.4532 29.4112 55.0263 27.7004L55.0816 27.6599V21.9209L54.8532 22.1824C53.7737 23.4166 52.4231 24.3839 50.9072 25.0088C49.3914 25.6337 47.7514 25.8991 46.1158 25.7842C44.4802 25.6693 42.8934 25.1773 41.4798 24.3466C40.0662 23.5159 38.8641 22.3692 37.9677 20.9963L37.8572 21.1989H49.2026L49.2358 21.1253L51.2654 16.775L51.3538 16.5908H36.1959L36.3285 16.7013C36.2509 16.1768 36.2115 15.6475 36.2106 15.1173C36.2108 14.7556 36.2292 14.3942 36.2659 14.0344L36.1333 14.1522H52.4847L52.5178 14.0786L54.5438 9.71721L54.6285 9.53303H37.5367L37.6472 9.72826C38.586 8.11562 39.9308 6.77701 41.5478 5.84573C43.1648 4.91444 44.9975 4.42296 46.8635 4.42022ZM37.5404 9.79456H54.4296L54.3081 9.6067L52.2821 13.957L52.4 13.8833H36.0154V14.0012C35.9785 14.3684 35.9601 14.7372 35.9601 15.1063C35.9609 15.6487 36.0003 16.1903 36.078 16.7271V16.8376H51.1365L51.0186 16.6534L48.9963 20.9963L49.1142 20.919H37.5993L37.7319 21.1216C38.6497 22.5305 39.8813 23.7077 41.3303 24.5608C42.7793 25.4138 44.4062 25.9196 46.0834 26.0385C47.7607 26.1573 49.4427 25.8859 50.9975 25.2457C52.5522 24.6054 53.9376 23.6137 55.0448 22.3482L54.8164 22.2598V27.5973L54.8716 27.4905C52.3434 29.1762 49.3718 30.0736 46.3331 30.069C43.3726 30.0868 40.4717 29.2371 37.9887 27.6248C35.5057 26.0124 33.5493 23.7081 32.3613 20.9963L32.3244 20.919H26.8617L26.9796 21.1068L29.0092 16.7565L28.8877 16.8302H31.2525V16.6865C31.2046 16.1966 31.1789 15.703 31.1789 15.2131C31.1789 14.8448 31.1789 14.4469 31.2341 14.0049V13.8649H26.6701L26.788 14.0491L28.8177 9.69879L28.6998 9.77615H32.2213L32.2545 9.69511C33.3793 6.96596 35.2896 4.63253 37.743 2.99099C40.643 1.04952 44.1151 0.14743 47.5934 0.431717C51.0718 0.716003 54.3513 2.16991 56.8976 4.55651L56.8681 4.40549L55.1111 8.18116L55.3284 8.15537C54.2159 6.78191 52.7857 5.70001 51.1614 5.00317C49.5371 4.30634 47.7675 4.01553 46.0056 4.15589C44.2437 4.29625 42.5425 4.86354 41.049 5.80875C39.5554 6.75396 38.3146 8.04865 37.4336 9.58092L37.3194 9.77615L37.5404 9.79456Z" fill="#4D67AC"/>
</g>
<defs>
<clipPath id="clip0">
<rect width="111.141" height="40" fill="white" transform="translate(0.0268555)"/>
</clipPath>
</defs>
</svg>
