<svg width="51" height="40" viewBox="0 0 51 50" fill="none" xmlns="http://www.w3.org/2000/svg">
<g clip-path="url(#clip0)">
<path d="M50.7126 25C50.7126 33.254 44.046 40 35.7126 40C27.4587 40 20.7126 33.254 20.7126 25C20.7126 16.746 27.3793 10 35.6333 10C44.046 10 50.7126 16.746 50.7126 25Z" fill="#FFB600"/>
<path d="M35.7126 10C43.9666 10 50.7126 16.746 50.7126 25C50.7126 33.254 44.046 40 35.7126 40C27.4587 40 20.7126 33.254 20.7126 25" fill="#F7981D"/>
<path d="M35.7126 10C43.9666 10 50.7127 16.746 50.7127 25C50.7127 33.254 44.046 40 35.7126 40" fill="#FF8500"/>
<path d="M15.5539 10C7.37931 10.0794 0.712646 16.746 0.712646 25C0.712646 33.254 7.37931 40 15.7126 40C19.6015 40 23.0936 38.4921 25.792 36.1111C26.3476 35.6349 26.8238 35.0794 27.2999 34.5238H24.2047C23.8079 34.0476 23.4111 33.4921 23.0936 33.0159H28.4111C28.7285 32.5397 29.046 31.9841 29.2841 31.4286H22.2206C21.9825 30.9524 21.7444 30.3968 21.5857 29.8413H29.8396C30.3158 28.3333 30.6333 26.746 30.6333 25.0794C30.6333 23.9683 30.4746 22.9365 30.3158 21.9048H21.1095C21.1888 21.3492 21.3476 20.873 21.5063 20.3175H29.7603C29.6015 19.7619 29.3634 19.2063 29.1253 18.7302H22.1412C22.3793 18.1746 22.6968 17.6984 23.0142 17.1429H28.3317C28.0142 16.5873 27.6174 16.0317 27.1412 15.5556H24.2047C24.6809 15 25.1571 14.5238 25.7126 14.0476C23.0936 11.5873 19.5222 10.1587 15.6333 10.1587C15.6333 10 15.6333 10 15.5539 10Z" fill="#FF5050"/>
<path d="M0.712646 25C0.712646 33.2539 7.37931 40 15.7126 40C19.6015 40 23.0936 38.492 25.792 36.1111C26.3476 35.6349 26.8238 35.0793 27.2999 34.5238H24.2047C23.8079 34.0476 23.4111 33.492 23.0936 33.0158H28.4111C28.7285 32.5396 29.046 31.9841 29.2841 31.4285H22.2206C21.9825 30.9523 21.7444 30.3968 21.5857 29.8412H29.8396C30.3158 28.3333 30.6333 26.746 30.6333 25.0793C30.6333 23.9682 30.4746 22.9365 30.3158 21.9047H21.1095C21.1888 21.3492 21.3476 20.873 21.5063 20.3174H29.7603C29.6015 19.7619 29.3634 19.2063 29.1253 18.7301H22.1412C22.3793 18.1746 22.6968 17.6984 23.0142 17.1428H28.3317C28.0142 16.5873 27.6174 16.0317 27.1412 15.5555H24.2047C24.6809 15 25.1571 14.5238 25.7126 14.0476C23.0936 11.5873 19.5222 10.1587 15.6333 10.1587H15.5539" fill="#E52836"/>
<path d="M15.7127 40C19.6016 40 23.0936 38.492 25.792 36.1111C26.3476 35.6349 26.8238 35.0793 27.3 34.5238H24.2047C23.8079 34.0476 23.4111 33.492 23.0936 33.0158H28.4111C28.7286 32.5396 29.046 31.9841 29.2841 31.4285H22.2206C21.9825 30.9523 21.7444 30.3968 21.5857 29.8412H29.8397C30.3159 28.3333 30.6333 26.746 30.6333 25.0793C30.6333 23.9682 30.4746 22.9365 30.3159 21.9047H21.1095C21.1889 21.3492 21.3476 20.873 21.5063 20.3174H29.7603C29.6016 19.7619 29.3635 19.2063 29.1254 18.7301H22.1413C22.3794 18.1746 22.6968 17.6984 23.0143 17.1428H28.3317C28.0143 16.5873 27.6174 16.0317 27.1413 15.5555H24.2047C24.6809 15 25.1571 14.5238 25.7127 14.0476C23.0936 11.5873 19.5222 10.1587 15.6333 10.1587H15.554" fill="#CB2026"/>
<path d="M21.0303 28.8096L21.2684 27.4604C21.1891 27.4604 21.0303 27.5397 20.8716 27.5397C20.3161 27.5397 20.2367 27.2223 20.3161 27.0635L20.7923 24.2858H21.6653L21.9034 22.7778H21.1097L21.2684 21.8254H19.6811C19.6811 21.8254 18.7288 27.0635 18.7288 27.6985C18.7288 28.6508 19.2843 29.0477 19.9986 29.0477C20.4748 29.0477 20.8716 28.8889 21.0303 28.8096Z" fill="white"/>
<path d="M21.5859 26.27C21.5859 28.4922 23.0939 29.0477 24.3637 29.0477C25.5542 29.0477 26.0304 28.8096 26.0304 28.8096L26.3478 27.3017C26.3478 27.3017 25.4748 27.6985 24.6812 27.6985C22.9351 27.6985 23.2526 26.4287 23.2526 26.4287H26.5066C26.5066 26.4287 26.7447 25.3969 26.7447 25.0001C26.7447 23.9684 26.1891 22.6985 24.4431 22.6985C22.7764 22.5398 21.5859 24.2858 21.5859 26.27ZM24.3637 23.9684C25.2367 23.9684 25.078 25.0001 25.078 25.0795H23.332C23.332 25.0001 23.4907 23.9684 24.3637 23.9684Z" fill="white"/>
<path d="M34.4427 28.8097L34.7602 27.0637C34.7602 27.0637 33.9665 27.4605 33.411 27.4605C32.2999 27.4605 31.8237 26.5875 31.8237 25.6351C31.8237 23.7304 32.776 22.6986 33.8872 22.6986C34.6808 22.6986 35.3157 23.1748 35.3157 23.1748L35.5538 21.5082C35.5538 21.5082 34.6014 21.1113 33.7284 21.1113C31.903 21.1113 30.0776 22.6986 30.0776 25.7145C30.0776 27.6986 31.03 29.0478 32.9348 29.0478C33.5697 29.0478 34.4427 28.8097 34.4427 28.8097Z" fill="white"/>
<path d="M12.3 22.54C11.1889 22.54 10.3953 22.8575 10.3953 22.8575L10.1572 24.2067C10.1572 24.2067 10.8715 23.8892 11.9032 23.8892C12.4588 23.8892 12.935 23.9686 12.935 24.4448C12.935 24.7623 12.8556 24.8416 12.8556 24.8416C12.8556 24.8416 12.3794 24.8416 12.1413 24.8416C10.7921 24.8416 9.28418 25.3972 9.28418 27.2226C9.28418 28.6512 10.2366 28.9686 10.7921 28.9686C11.9032 28.9686 12.3794 28.2543 12.4588 28.2543L12.3794 28.8893H13.808L14.4429 24.5242C14.4429 22.6194 12.8556 22.54 12.3 22.54ZM12.6175 26.1115C12.6175 26.3496 12.4588 27.6194 11.5064 27.6194C11.0302 27.6194 10.8715 27.2226 10.8715 26.9845C10.8715 26.5877 11.1096 26.0321 12.3 26.0321C12.5381 26.1115 12.6175 26.1115 12.6175 26.1115Z" fill="white"/>
<path d="M15.9511 28.9684C16.348 28.9684 18.3321 29.0477 18.3321 26.9049C18.3321 24.9208 16.4273 25.3176 16.4273 24.5239C16.4273 24.1271 16.7448 23.9684 17.3003 23.9684C17.5384 23.9684 18.4114 24.0477 18.4114 24.0477L18.6495 22.6192C18.6495 22.6192 18.094 22.4604 17.1416 22.4604C15.9511 22.4604 14.7607 22.9366 14.7607 24.5239C14.7607 26.3493 16.7448 26.1906 16.7448 26.9049C16.7448 27.3811 16.1892 27.4604 15.7924 27.4604C15.0781 27.4604 14.3638 27.2223 14.3638 27.2223L14.1257 28.6509C14.2051 28.8096 14.6019 28.9684 15.9511 28.9684Z" fill="white"/>
<path d="M47.6176 21.27L47.3001 23.4129C47.3001 23.4129 46.6652 22.6192 45.7922 22.6192C44.3636 22.6192 43.0938 24.3653 43.0938 26.4287C43.0938 27.6986 43.7287 29.0478 45.0779 29.0478C46.0303 29.0478 46.5858 28.4129 46.5858 28.4129L46.5064 28.9684H48.0937L49.2842 21.3494L47.6176 21.27ZM46.9033 25.4764C46.9033 26.3494 46.5064 27.4605 45.6334 27.4605C45.0779 27.4605 44.7604 26.9843 44.7604 26.1907C44.7604 24.9208 45.316 24.1272 46.0303 24.1272C46.5858 24.1272 46.9033 24.524 46.9033 25.4764Z" fill="white"/>
<path d="M3.64929 28.8891L4.60168 23.1748L4.76041 28.8891H5.87152L7.93501 23.1748L7.06199 28.8891H8.72866L9.9985 21.27H7.37945L5.79215 25.9526L5.71279 21.27H3.4112L2.14136 28.8891H3.64929Z" fill="white"/>
<path d="M28.2526 28.8892C28.7288 26.2702 28.8082 24.1273 29.9193 24.5241C30.078 23.4924 30.3161 23.0956 30.4748 22.6987C30.4748 22.6987 30.3955 22.6987 30.1574 22.6987C29.4431 22.6987 28.8875 23.6511 28.8875 23.6511L29.0463 22.7781H27.5383L26.5066 28.9686H28.2526V28.8892Z" fill="white"/>
<path d="M38.0938 22.54C36.9826 22.54 36.189 22.8575 36.189 22.8575L35.9509 24.2067C35.9509 24.2067 36.6652 23.8892 37.6969 23.8892C38.2525 23.8892 38.7287 23.9686 38.7287 24.4448C38.7287 24.7623 38.6493 24.8416 38.6493 24.8416C38.6493 24.8416 38.1731 24.8416 37.935 24.8416C36.5858 24.8416 35.0779 25.3972 35.0779 27.2226C35.0779 28.6512 36.0303 28.9686 36.5858 28.9686C37.6969 28.9686 38.1731 28.2543 38.2525 28.2543L38.1731 28.8893H39.6017L40.2366 24.5242C40.316 22.6194 38.6493 22.54 38.0938 22.54ZM38.4906 26.1115C38.4906 26.3496 38.3319 27.6194 37.3795 27.6194C36.9033 27.6194 36.7445 27.2226 36.7445 26.9845C36.7445 26.5877 36.9826 26.0321 38.1731 26.0321C38.4112 26.1115 38.4112 26.1115 38.4906 26.1115Z" fill="white"/>
<path d="M41.5859 28.8892C42.0621 26.2702 42.1414 24.1273 43.2525 24.5241C43.4113 23.4924 43.6494 23.0956 43.8081 22.6987C43.8081 22.6987 43.7287 22.6987 43.4906 22.6987C42.7764 22.6987 42.2208 23.6511 42.2208 23.6511L42.3795 22.7781H40.8716L39.8398 28.9686H41.5859V28.8892Z" fill="white"/>
<path d="M18.5701 27.6985C18.5701 28.6508 19.1256 29.0477 19.8399 29.0477C20.3955 29.0477 20.8717 28.8889 21.0304 28.8096L21.2685 27.4604C21.1891 27.4604 21.0304 27.5397 20.8717 27.5397C20.3161 27.5397 20.2367 27.2223 20.3161 27.0635L20.7923 24.2858H21.6653L21.9034 22.7778H21.1098L21.2685 21.8254" fill="#DCE5E5"/>
<path d="M22.3794 26.27C22.3794 28.4922 23.0937 29.0477 24.3635 29.0477C25.554 29.0477 26.0302 28.8096 26.0302 28.8096L26.3476 27.3017C26.3476 27.3017 25.4746 27.6985 24.681 27.6985C22.935 27.6985 23.2524 26.4287 23.2524 26.4287H26.5064C26.5064 26.4287 26.7445 25.3969 26.7445 25.0001C26.7445 23.9684 26.1889 22.6985 24.4429 22.6985C22.7762 22.5398 22.3794 24.2858 22.3794 26.27ZM24.3635 23.9684C25.2365 23.9684 25.3953 25.0001 25.3953 25.0795H23.3318C23.3318 25.0001 23.4905 23.9684 24.3635 23.9684Z" fill="#DCE5E5"/>
<path d="M34.4428 28.8097L34.7602 27.0637C34.7602 27.0637 33.9666 27.4605 33.411 27.4605C32.2999 27.4605 31.8237 26.5875 31.8237 25.6351C31.8237 23.7304 32.7761 22.6986 33.8872 22.6986C34.6809 22.6986 35.3158 23.1748 35.3158 23.1748L35.5539 21.5082C35.5539 21.5082 34.6015 21.1113 33.7285 21.1113C31.9031 21.1113 30.8713 22.6986 30.8713 25.7145C30.8713 27.6986 31.0301 29.0478 32.9348 29.0478C33.5697 29.0478 34.4428 28.8097 34.4428 28.8097Z" fill="#DCE5E5"/>
<path d="M10.1572 24.286C10.1572 24.286 10.8715 23.9686 11.9032 23.9686C12.4588 23.9686 12.935 24.0479 12.935 24.5241C12.935 24.8416 12.8556 24.9209 12.8556 24.9209C12.8556 24.9209 12.3794 24.9209 12.1413 24.9209C10.7921 24.9209 9.28418 25.4765 9.28418 27.3019C9.28418 28.7305 10.2366 29.0479 10.7921 29.0479C11.9032 29.0479 12.3794 28.3336 12.4588 28.3336L12.3794 28.9686H13.808L14.4429 24.6035C14.4429 22.7781 12.8556 22.6987 12.2207 22.6987L10.1572 24.286ZM13.4112 26.1114C13.4112 26.3495 12.4588 27.6194 11.5064 27.6194C11.0302 27.6194 10.8715 27.2225 10.8715 26.9844C10.8715 26.5876 11.1096 26.0321 12.3 26.0321C12.5381 26.1114 13.4112 26.1114 13.4112 26.1114Z" fill="#DCE5E5"/>
<path d="M14.2048 28.8096C14.2048 28.8096 14.681 28.9684 16.0302 28.9684C16.4271 28.9684 18.4112 29.0477 18.4112 26.9049C18.4112 24.9208 16.5064 25.3176 16.5064 24.5239C16.5064 24.1271 16.8239 23.9684 17.3794 23.9684C17.6175 23.9684 18.4905 24.0477 18.4905 24.0477L18.7286 22.6192C18.7286 22.6192 18.1731 22.4604 17.2207 22.4604C16.0302 22.4604 15.6334 22.9366 15.6334 24.5239C15.6334 26.3493 16.8239 26.1906 16.8239 26.9049C16.8239 27.3811 16.2683 27.4604 15.8715 27.4604" fill="#DCE5E5"/>
<path d="M47.3001 23.4131C47.3001 23.4131 46.6651 22.6194 45.7921 22.6194C44.3635 22.6194 43.8874 24.3655 43.8874 26.429C43.8874 27.6988 43.7286 29.048 45.0778 29.048C46.0302 29.048 46.5858 28.4131 46.5858 28.4131L46.5064 28.9686H48.0937L49.2842 21.3496L47.3001 23.4131ZM47.2207 25.4766C47.2207 26.3496 46.5064 27.4607 45.6334 27.4607C45.0778 27.4607 44.7604 26.9845 44.7604 26.1909C44.7604 24.921 45.3159 24.1274 46.0302 24.1274C46.5858 24.1274 47.2207 24.5242 47.2207 25.4766Z" fill="#DCE5E5"/>
<path d="M3.64929 28.8891L4.60168 23.1748L4.76041 28.8891H5.87152L7.93501 23.1748L7.06199 28.8891H8.72866L9.9985 21.27H8.01437L5.79215 25.9526L5.71279 21.27H4.83977L2.14136 28.8891H3.64929Z" fill="#DCE5E5"/>
<path d="M26.5859 28.8892H28.2526C28.7288 26.2702 28.8082 24.1273 29.9193 24.5241C30.078 23.4924 30.3161 23.0956 30.4748 22.6987C30.4748 22.6987 30.3955 22.6987 30.1574 22.6987C29.4431 22.6987 28.8875 23.6511 28.8875 23.6511L29.0463 22.7781" fill="#DCE5E5"/>
<path d="M35.9509 24.286C35.9509 24.286 36.6652 23.9686 37.6969 23.9686C38.2525 23.9686 38.7287 24.0479 38.7287 24.5241C38.7287 24.8416 38.6493 24.9209 38.6493 24.9209C38.6493 24.9209 38.1731 24.9209 37.935 24.9209C36.5858 24.9209 35.0779 25.4765 35.0779 27.3019C35.0779 28.7305 36.0303 29.0479 36.5858 29.0479C37.6969 29.0479 38.1731 28.3336 38.2525 28.3336L38.1731 28.9686H39.6017L40.2366 24.6035C40.2366 22.7781 38.6493 22.6987 38.0144 22.6987L35.9509 24.286ZM39.2049 26.1114C39.2049 26.3495 38.2525 27.6194 37.3001 27.6194C36.8239 27.6194 36.6652 27.2225 36.6652 26.9844C36.6652 26.5876 36.9033 26.0321 38.0938 26.0321C38.4112 26.1114 39.2049 26.1114 39.2049 26.1114Z" fill="#DCE5E5"/>
<path d="M39.9192 28.8892H41.5859C42.062 26.2702 42.1414 24.1273 43.2525 24.5241C43.4113 23.4924 43.6493 23.0956 43.8081 22.6987C43.8081 22.6987 43.7287 22.6987 43.4906 22.6987C42.7763 22.6987 42.2208 23.6511 42.2208 23.6511L42.3795 22.7781" fill="#DCE5E5"/>
</g>
<defs>
<clipPath id="clip0">
<rect width="50" height="50" fill="white" transform="translate(0.712646)"/>
</clipPath>
</defs>
</svg>
