<svg width="94" height="40" viewBox="0 0 94 40" fill="none" xmlns="http://www.w3.org/2000/svg">
<g clip-path="url(#clip0)">
<path d="M37.9621 38.6126C37.7842 38.1243 37.4618 37.7913 37.2282 37.3585C36.6611 36.6149 35.994 35.9711 35.3268 35.3274C35.0933 35.2497 34.9932 35.0277 34.7708 34.9389C34.6262 34.7503 34.3927 34.6504 34.2037 34.5061C33.8256 34.2175 33.4142 33.9734 32.9917 33.7292C32.191 33.2186 31.2014 32.8968 30.2229 32.5638C29.1665 32.3085 28.0545 32.1199 26.8981 31.9645C25.7528 31.798 24.6074 31.6426 23.7401 31.1876C23.2397 31.0433 22.8728 30.7658 22.4391 30.5438C22.0388 30.2775 21.6051 30.0555 21.2716 29.7225C20.8601 29.4783 20.6044 29.0677 20.2819 28.7347C20.1707 28.5128 19.9817 28.3796 19.8927 28.1354C19.7815 28.091 19.7482 27.9578 19.6814 27.8801C19.6036 27.7913 19.6036 27.6138 19.4702 27.5805C19.4035 28.0355 19.4257 28.5793 19.4702 29.0455C19.5258 29.2453 19.548 29.4894 19.6036 29.6892C19.637 29.8668 19.8038 30.1554 19.737 30.2886C16.2677 30.111 13.7324 29.0122 11.5307 27.5694C10.441 26.8479 9.50697 25.9711 8.63964 25.0277C8.26157 24.5061 7.85014 24.0066 7.51655 23.4295C7.17185 22.8635 6.88274 22.2197 6.57139 21.6204C6.05988 20.3219 5.58174 18.99 5.40382 17.3585C5.17031 15.8379 5.22591 13.8957 5.57062 12.4861C5.69293 11.7092 5.94869 11.0544 6.17108 10.3773C6.31563 10.0666 6.47131 9.75581 6.60474 9.43395C6.79378 9.16758 6.89386 8.80132 7.12737 8.56824C7.76119 7.38067 8.70636 6.49277 9.67377 5.63817C10.719 4.87235 11.9088 4.25082 13.3432 3.87346C14.7221 3.56269 16.6013 3.5072 18.0913 3.82906C21.1159 4.4506 23.3954 5.80465 25.308 7.53606C27.2428 9.23417 28.7328 11.3873 29.7558 14.0066C30.8122 16.4928 31.1792 20.3662 30.234 23.1853C29.8448 22.9634 29.4556 22.7525 29.0664 22.5416C28.5994 22.4084 28.1435 22.253 27.5986 22.1975C26.9426 22.1864 26.2976 22.1975 25.8751 22.4084C26.7313 22.3196 27.4207 22.5527 27.9545 22.7525C28.2658 22.8746 28.4437 22.9523 28.6884 23.0965C29.1665 23.374 29.589 23.6293 29.9449 24.0066C30.9568 24.8946 31.6795 26.071 32.0243 27.6248C32.0243 27.6692 32.0798 27.6581 32.0687 27.5805C32.1132 27.5694 32.1354 27.5361 32.1577 27.4917C32.2133 27.4251 32.28 27.3585 32.3356 27.2808C32.4468 27.1476 32.558 27.0144 32.6358 26.8479C32.8693 26.5705 33.0584 26.2597 33.2363 25.9378C33.6477 25.3385 33.9591 24.6504 34.3149 23.9955C34.9265 22.5971 35.4269 21.0877 35.7382 19.3785C36.3609 15.5827 35.6159 11.9867 34.3149 9.33406C32.9805 6.65925 31.1124 4.51719 28.6995 2.90787C26.2643 1.30964 23.4176 0.13317 19.5035 0.0221821C19.4813 -0.0555094 19.4479 0.0332809 19.3701 0.0221821C17.3018 -0.0444106 15.6339 0.244158 13.9771 0.665911C13.2098 0.921183 12.4092 1.14316 11.7309 1.48722C10.9525 1.74249 10.3298 2.16425 9.61817 2.47501C9.36242 2.71919 8.97323 2.84127 8.70636 3.07435C8.36165 3.24083 8.1059 3.5072 7.76119 3.67368C7.20521 4.16203 6.61586 4.59488 6.071 5.09433C5.53726 5.58267 5.07023 6.13761 4.55873 6.64815C4.48089 6.82574 4.34746 6.94782 4.21402 7.08101C4.12506 7.24749 4.01387 7.39177 3.86931 7.51386C3.81371 7.71364 3.6358 7.79133 3.56908 7.99111C3.42453 8.10209 3.39117 8.32407 3.22437 8.42396C3.07982 8.77912 2.82407 9.03439 2.65727 9.36736C2.45712 9.68922 2.30144 10.0444 2.10129 10.3551C1.78994 11.0766 1.45635 11.7758 1.2006 12.5527C0.933726 13.3074 0.711333 14.1065 0.555658 14.9722C0.388863 15.7824 0.233188 16.8368 0.255427 17.6914C0.144231 18.0022 0.233188 18.5793 0.255427 18.9456C0.255427 19.0122 0.210949 19.0344 0.210949 19.0788C0.210949 19.4894 0.322145 19.9889 0.344385 20.2442C0.433342 21.1876 0.600136 22.0644 0.867008 22.8302C1.0338 23.6848 1.38963 24.3507 1.64538 25.1165C2.03457 25.7603 2.30144 26.5261 2.76847 27.1032C3.11318 27.7802 3.60244 28.313 4.06947 28.8679C4.56985 29.4007 5.07023 29.9445 5.67069 30.3774C6.77154 31.3318 8.06142 32.0977 9.47361 32.7525C12.109 34.0289 16.0453 34.8613 19.5814 34.6504C20.4821 34.5283 21.3939 34.4173 22.2167 34.2175C22.9729 33.9401 23.8513 33.7736 24.7631 33.6626C26.8425 33.5294 28.6439 33.7181 30.2451 34.1842C31.8686 34.6171 33.2697 35.2719 34.4817 36.1265C35.1266 36.5039 35.6604 36.9922 36.2052 37.4584C36.7612 37.9356 37.206 38.5239 37.7175 39.0566C37.7842 39.2564 37.9177 39.4007 38.0177 39.5782C38.1512 39.7225 38.0845 40.0555 38.4069 40.0111C38.6071 39.8113 38.3736 39.5227 38.3624 39.2786C38.1623 39.0677 38.1178 38.7902 37.9621 38.6126Z" fill="#FF8C00"/>
<path d="M29.889 26.8036C29.8446 26.8036 29.8335 26.8368 29.8001 26.8479C29.7223 27.0144 29.7556 27.2808 29.8001 27.4473C30.0336 27.9245 30.1114 28.5461 30.6229 28.7458C30.8676 28.6681 30.8453 28.313 30.8342 27.9689C30.723 27.5472 30.5673 27.1698 30.3116 26.8923C30.1337 26.8257 30.0114 26.7148 29.889 26.8036ZM26.8645 28.0133C26.8645 27.9911 26.8311 27.9689 26.82 28.0133C26.3975 27.9578 26.2529 28.1909 26.0417 28.3574C25.6747 29.323 26.264 30.2664 27.2982 30.2553C27.7096 30.1554 27.9654 29.889 28.0321 29.434C27.9765 28.6237 27.6318 28.1021 26.8645 28.0133Z" fill="#FCB316"/>
<path d="M51.7945 24.9388C51.9613 25.6381 52.3171 26.1375 52.7174 26.6037C53.1178 27.0698 53.5848 27.4583 54.1519 27.7468C54.6856 28.0798 55.2638 28.3573 55.931 28.5459C56.2535 28.6569 56.5648 28.7901 56.9651 28.8345C57.2431 28.9899 57.5767 29.0676 57.599 29.4671C57.5878 29.9444 57.2654 30.122 56.854 30.2108C56.4425 30.122 55.931 30.1331 55.5863 29.9777C54.719 29.8778 54.0184 29.6003 53.2845 29.345C51.8835 28.8012 50.7048 28.0132 49.7263 27.0476C49.5261 26.7146 49.2481 26.4483 49.0368 26.1264C48.8256 25.8045 48.681 25.4161 48.4586 25.0942C46.7462 24.8722 45.5786 24.0953 44.5556 23.1963C43.6105 22.1197 42.8543 20.8323 42.543 19.1231C42.176 17.4805 42.2872 15.4272 42.7209 13.8401C43.6661 10.7657 45.6454 8.72351 49.3816 8.44604C50.4157 8.47934 51.3164 8.60143 52.1392 8.91219C52.9732 9.21186 53.7627 9.7668 54.3854 10.3439C54.441 10.3883 54.4632 10.3994 54.4966 10.4549C54.63 10.6436 54.9525 10.91 55.1304 11.143C55.1638 11.1874 55.1526 11.2651 55.186 11.3206C55.2527 11.4205 55.3528 11.4649 55.4195 11.5537C55.4529 11.6092 55.4418 11.6758 55.4751 11.7202C55.5196 11.7868 55.5752 11.8867 55.6419 12.0088C55.6641 12.0531 55.742 12.0864 55.7531 12.1197C55.8532 12.3084 55.8977 12.5415 55.9866 12.7524C56.0756 12.9743 56.1979 13.163 56.2757 13.385C56.4981 14.0398 56.6427 14.8167 56.7316 15.6159C56.954 17.9244 56.4981 19.9888 55.6419 21.5204C55.2416 22.3195 54.6856 22.9743 54.0296 23.5293C53.4291 24.1619 52.6062 24.5393 51.7945 24.9388ZM49.0368 10.4882C48.5365 10.5215 48.2362 10.7546 47.8248 10.8878C47.5579 11.1319 47.2243 11.3206 47.0242 11.6314C46.6906 11.8201 46.6016 12.2418 46.3348 12.486C46.1124 13.0409 45.9011 13.6625 45.7565 14.3839C45.6231 15.0942 45.5342 15.8933 45.523 16.6813C45.5119 18.6569 45.9345 20.6214 46.724 21.7868C47.191 22.3528 47.7581 22.819 48.4475 23.163C48.8478 23.1963 49.1592 23.3295 49.5928 23.3406C49.8375 23.2518 50.2378 23.3406 50.3934 23.163C50.7493 23.1852 50.8271 22.9522 51.1385 22.93C51.3052 22.7635 51.4832 22.6303 51.7167 22.5304C51.9279 22.2973 52.1281 22.0642 52.3505 21.8423C52.4617 21.6758 52.5284 21.4427 52.6952 21.3206C53.696 19.4116 53.8072 15.9155 53.1511 13.6958C52.9065 12.8856 52.5618 12.2307 52.1726 11.6869C51.75 11.254 51.2497 10.8878 50.6825 10.5992C50.2266 10.4993 49.793 10.3772 49.1925 10.4327C49.1592 10.4327 49.1258 10.4438 49.1369 10.4882C49.1147 10.4882 49.0813 10.4882 49.0368 10.4882ZM61.1684 8.8789C62.0691 8.91219 63.1254 8.80121 63.926 8.93439C64.104 9.21186 64.0372 9.54482 64.0372 9.85559C64.104 14.062 64.0372 18.5792 64.0372 22.8745C64.0372 23.2185 64.0484 23.5737 64.0372 23.9066C64.0261 24.1952 64.104 24.506 63.926 24.7724C63.5257 24.8722 62.9475 24.8278 62.436 24.8278C61.8911 24.8278 61.3574 24.9055 61.0016 24.7169C60.9015 19.6336 60.9015 14.1508 61.0016 9.05648C61.0238 8.96769 61.0794 8.91219 61.1684 8.8789ZM68.0626 8.8789H70.7646C71.0093 9.21186 71.0871 9.71131 71.1649 10.1997C71.9767 13.2851 72.7773 16.3817 73.5223 19.5448C73.7002 19.567 73.6446 19.3561 73.7002 19.2563C73.778 19.1786 73.7336 18.9899 73.8114 18.9122C73.8448 18.6569 74.0004 18.5237 73.9893 18.2241C74.1895 17.8356 74.2562 17.3029 74.4452 16.9033C74.6787 15.971 74.9901 15.1053 75.257 14.2063C75.5127 13.274 75.8574 12.4305 76.0576 11.4538C76.4356 10.6658 76.5246 9.58922 76.9805 8.8789H78.1258C78.5373 9.65581 78.6929 10.688 79.0488 11.5204C79.2823 12.4527 79.6047 13.2962 79.8494 14.2174C80.4165 16.0043 81.0058 17.769 81.5173 19.6114C81.7508 19.2674 81.7508 18.6902 81.9176 18.2907C82.0177 17.8356 82.1067 17.3695 82.2623 16.9699C82.7071 15.1497 83.1297 13.3184 83.6412 11.5759C83.8302 10.6658 84.0192 9.7335 84.3306 8.93439C84.9978 8.8345 86.0208 8.8345 86.688 8.93439C86.7436 9.61142 86.4322 10.3439 86.232 10.9433C86.1208 11.6758 85.854 12.2418 85.7094 12.9521C85.298 14.2507 84.9866 15.627 84.5641 16.9144C84.2416 18.2907 83.808 19.5559 83.4744 20.9322C83.252 21.5648 83.0963 22.264 82.8962 22.9411C82.6738 23.5626 82.5959 24.3284 82.2623 24.8389H80.65C80.2386 24.1175 80.094 23.1408 79.7271 22.375C78.9264 19.8445 78.0369 17.4139 77.2585 14.8611C76.9916 15.1386 76.9916 15.7046 76.8026 16.0598C76.6803 16.4927 76.558 16.9255 76.4023 17.3251C76.1799 18.2019 75.8463 18.9455 75.6573 19.8445C75.3348 20.6325 75.1013 21.5093 74.8567 22.375C74.5231 23.1297 74.4007 24.0953 73.9893 24.7835C73.5668 24.9166 72.8996 24.8056 72.377 24.8389C71.9767 24.3839 71.9322 23.5626 71.6876 22.9411C71.4985 22.2973 71.3651 21.587 71.1205 20.9877C70.8091 19.5892 70.3421 18.3573 70.0307 16.9699C69.6193 15.6824 69.2635 14.3395 68.8854 13.0076C68.6741 12.375 68.5185 11.698 68.3072 11.0543C68.2071 10.3661 67.7401 9.7446 67.9069 8.98989C67.9291 8.93439 67.9958 8.9011 68.0626 8.8789ZM90.7577 8.8789C91.6584 8.91219 92.7037 8.80121 93.5154 8.93439C93.7156 9.53373 93.6266 10.1775 93.6266 10.8212V22.8634C93.6266 23.5182 93.7044 24.1508 93.5154 24.7613C92.8927 24.8278 91.9809 24.8611 91.2136 24.8167C90.9913 24.8056 90.7244 24.8722 90.5798 24.7058C90.3797 24.1064 90.4686 23.4738 90.4686 22.8079V10.8878C90.4686 10.1664 90.4019 9.46713 90.5798 8.98989C90.6243 8.93439 90.691 8.9011 90.7577 8.8789Z" fill="#0269B3"/>
</g>
<defs>
<clipPath id="clip0">
<rect width="93.494" height="40" fill="white" transform="translate(0.155029)"/>
</clipPath>
</defs>
</svg>
