<svg width="30" height="40" viewBox="0 0 30 40" fill="none" xmlns="http://www.w3.org/2000/svg">
<path d="M19.0773 40C16.2017 40 14.1059 39.3276 12.7897 37.9399C11.4735 36.5522 10.8369 35.1001 10.8369 33.4979C10.8369 32.9328 10.9442 32.432 11.1946 32.0386C11.4092 31.6452 11.7239 31.3305 12.1173 31.1159C12.5107 30.9013 13.0043 30.7582 13.5765 30.7582C14.1488 30.7582 14.6424 30.8655 15.0358 31.1159C15.4292 31.3305 15.7439 31.6452 15.9585 32.0386C16.1731 32.432 16.3162 32.9256 16.3162 33.4979C16.3162 34.206 16.1373 34.7783 15.8155 35.2003C15.4936 35.6295 15.0715 35.9442 14.6066 36.0873C15 36.6166 15.6366 37.01 16.4878 37.2604C17.3391 37.5107 18.1903 37.618 19.0487 37.618C20.2575 37.618 21.3233 37.2961 22.2818 36.6595C23.2404 36.0229 23.9485 35.0644 24.4135 33.8197C24.8784 32.5751 25.0859 31.1588 25.0859 29.5565C25.0859 27.8183 24.8355 26.3591 24.3419 25.1502C23.8412 23.9056 23.1331 22.9828 22.1745 22.4177C21.216 21.8169 20.186 21.5308 19.0487 21.5308C18.3047 21.5308 17.4177 21.8526 16.3162 22.4535L14.3133 23.412V22.4177L23.3691 10.3433H10.8369V22.8827C10.8369 23.9127 11.0515 24.764 11.5093 25.4435C11.9743 26.1159 12.6824 26.4378 13.6052 26.4378C14.3491 26.4378 15.0286 26.1874 15.701 25.6938C16.3734 25.1931 16.9456 24.5923 17.4392 23.9199C17.5107 23.7768 17.5823 23.6695 17.6538 23.6338C17.7611 23.5622 17.8326 23.5265 17.9399 23.5265C18.1188 23.5265 18.2976 23.598 18.5408 23.7768C18.7554 24.0272 18.8627 24.3062 18.8627 24.628C18.8627 24.7711 18.7911 24.9857 18.7554 25.2647C18.2547 26.4378 17.5465 27.3248 16.6238 27.9256C15.701 28.5265 14.7067 28.8484 13.6052 28.8484C10.8727 28.8484 9.02003 28.319 7.95422 27.2532C6.92418 26.1874 6.39485 24.7282 6.39485 22.9185V10.3433H0V7.99714H6.43062V2.6681L4.97139 1.20887V0H9.23462L10.8298 0.815451V7.96137L27.4178 7.92561L29.0487 9.55651L18.8984 19.7568C19.4993 19.5064 20.1431 19.3634 20.8155 19.2918C21.917 19.2918 23.1617 19.6495 24.5065 20.3577C25.8942 21.03 26.96 21.9886 27.7039 23.1974C28.4478 24.4063 28.9485 25.5436 29.1631 26.6452C29.3777 27.7468 29.5208 28.7053 29.5208 29.5923C29.5208 31.5451 29.0916 33.3548 28.2761 35.0286C27.4607 36.6953 26.216 37.9757 24.5136 38.7911C22.8398 39.6066 21.0301 40 19.0773 40Z" fill="#2C7DF7"/>
</svg>
