<svg width="41" height="40" viewBox="0 0 41 40" fill="none" xmlns="http://www.w3.org/2000/svg">
<path d="M20.5845 40C31.6302 40 40.5845 31.0457 40.5845 20C40.5845 8.9543 31.6302 0 20.5845 0C9.53878 0 0.584473 8.9543 0.584473 20C0.584473 31.0457 9.53878 40 20.5845 40Z" fill="#EF0F0D"/>
<path d="M36.2213 12.6666L36.3121 12.7479V13.2487L36.2307 13.3207C35.4811 13.3411 35.0148 13.3786 34.8348 13.4334C34.6774 13.472 34.5404 13.5687 34.4514 13.7041C34.355 13.9391 34.3112 14.1922 34.3231 14.4459C34.3137 14.8142 34.2949 15.8538 34.2667 17.5648V22.28C34.2667 22.9623 34.2772 23.7328 34.298 24.5914C34.3189 25.4501 34.3617 25.9493 34.4263 26.0891C34.4605 26.1626 34.5093 26.2283 34.5699 26.2822C34.6305 26.336 34.7015 26.3768 34.7785 26.4021C34.9485 26.4678 35.4326 26.5106 36.2307 26.5304L36.3121 26.6024V27.1032L36.2213 27.1846C35.1092 27.124 34.141 27.0933 33.3168 27.0922C32.7566 27.0922 31.8051 27.123 30.4623 27.1846L30.3716 27.1032V26.6118L30.4529 26.5304C31.202 26.5106 31.6673 26.473 31.8489 26.4177C32.0066 26.3797 32.1437 26.2829 32.2323 26.147C32.3297 25.909 32.3751 25.6528 32.3653 25.3958C32.3789 25.0202 32.3961 23.9837 32.417 22.2863V14.7745L28.888 22.158C28.0022 24.0067 27.2281 25.7459 26.5656 27.3755H26.1728C25.791 26.4939 25.478 25.7912 25.2339 25.2675L20.3465 15.1126V22.2675C20.3465 22.9352 20.3549 23.7041 20.3716 24.5742C20.3883 25.4443 20.431 25.9472 20.4999 26.0828C20.5755 26.2264 20.7032 26.3356 20.8567 26.388C21.0273 26.4569 21.5124 26.4975 22.309 26.5116L22.3919 26.593V27.0844L22.2996 27.1767L21.6439 27.1454C20.9699 27.111 20.3909 27.0938 19.9068 27.0938C19.6877 27.0938 18.8729 27.1214 17.4623 27.1767L17.3794 27.0938V26.604L17.4623 26.5116C18.2125 26.497 18.6762 26.4631 18.8536 26.4099C19.0116 26.3691 19.1485 26.2702 19.237 26.1329C19.3357 25.9041 19.3812 25.6558 19.37 25.4068C19.3794 25.0531 19.3945 24.0067 19.4154 22.2675V17.5727C19.4154 16.9467 19.407 16.1913 19.3903 15.3066C19.3737 14.4219 19.3324 13.907 19.2667 13.762C19.1946 13.6158 19.0683 13.5035 18.9146 13.449C18.744 13.3817 18.2589 13.3395 17.4623 13.327L17.3794 13.244V12.7542L17.4717 12.6619C17.9423 12.6963 18.5766 12.7135 19.3747 12.7135C20.1238 12.7135 20.7785 12.6963 21.3387 12.6619C21.9104 13.9848 22.4592 15.1814 22.985 16.2519L26.8598 24.208L30.3591 16.917C31.3053 14.9462 31.9428 13.5278 32.2714 12.6619C32.9256 12.6963 33.5698 12.7135 34.2041 12.7135C34.7717 12.7187 35.4441 12.7031 36.2213 12.6666Z" fill="white"/>
<path d="M15.8567 14.0047C15.4655 13.4917 14.9239 13.1136 14.3074 12.9233C13.5385 12.7064 12.7414 12.6062 11.9428 12.626C11.7425 12.626 11.2229 12.6385 10.3778 12.6651C9.57813 12.7011 8.86295 12.7183 8.22132 12.7183C7.75184 12.7183 6.65638 12.6917 4.93494 12.6354L4.85669 12.7089V13.2191L4.93494 13.2895C5.39094 13.2933 5.84603 13.3309 6.29644 13.4022C6.43564 13.4275 6.56511 13.4909 6.67047 13.5853C6.75375 13.7217 6.80213 13.8765 6.81131 14.036C6.84105 14.2629 6.86296 14.7637 6.86765 15.5415L6.88956 17.5352V19.036H8.84418V17.5352C8.84418 15.5227 8.87495 14.254 8.9365 13.7293C9.59351 13.5124 10.2792 13.3948 10.9709 13.3803C12.1086 13.3803 12.96 13.6604 13.5234 14.2097C14.0867 14.759 14.37 15.5008 14.37 16.4304C14.37 17.3599 14.1728 18.1847 13.5531 18.6964C12.672 19.4241 10.4232 19.5947 8.83634 19.6354H5.40912V20.3412H8.84418C10.2323 20.3412 12.3356 20.2801 13.2917 20.0282C13.9537 19.8482 14.334 19.5587 14.8442 19.1628C15.3492 18.7721 15.7595 18.2724 16.0445 17.7011C16.3254 17.1451 16.4713 16.5306 16.4702 15.9077C16.4885 15.222 16.2721 14.5506 15.8567 14.0047Z" fill="white"/>
<path d="M9.43729 26.3976C9.29641 26.3716 9.16632 26.3046 9.06326 26.2051C8.9758 26.0707 8.92458 25.916 8.91459 25.756C8.86688 25.2598 8.84651 24.7614 8.85357 24.263L8.84418 22.2677V20.9219H6.88956V22.2677L6.88016 24.4273C6.88898 24.8981 6.86283 25.3689 6.80192 25.8358C6.78583 25.9881 6.72544 26.1322 6.62821 26.2505C6.5023 26.3376 6.35642 26.3914 6.20411 26.407C5.7836 26.4679 5.35974 26.5029 4.93494 26.5119L4.85669 26.5729V27.0831L4.93494 27.1676C6.65638 27.1097 7.62665 27.0831 7.86295 27.0831C8.09926 27.0831 9.05857 27.1097 10.7957 27.1676L10.8786 27.0831V26.5729L10.7957 26.5119C10.3405 26.5109 9.8862 26.4727 9.43729 26.3976Z" fill="white"/>
</svg>
