<svg width="41" height="40" viewBox="0 0 41 40" fill="none" xmlns="http://www.w3.org/2000/svg">
<g clip-path="url(#clip0)">
<path d="M0.982464 25.652L14.8247 39.4943C15.4992 40.1688 16.5929 40.1688 17.2674 39.4943L39.9706 16.7911C40.6452 16.1165 40.6452 15.0229 39.9706 14.3483L26.1283 0.506145C25.4538 -0.16839 24.3601 -0.16839 23.6856 0.506145L0.982464 23.2093C0.307929 23.8839 0.307929 24.9775 0.982464 25.652Z" fill="url(#paint0_linear)"/>
<path d="M12.2622 34.0579L6.4187 28.2144C8.5085 26.1246 8.5085 22.7365 6.4187 20.6467L21.123 5.94238C23.2128 8.03219 26.6009 8.03219 28.6907 5.94238L34.5343 11.7859C32.4445 13.8757 32.4445 17.2638 34.5343 19.3536L19.8299 34.0579C17.7402 31.9682 14.3519 31.9682 12.2622 34.0579Z" fill="white"/>
<path d="M20.476 26.4157C24.0195 26.4157 26.892 23.5432 26.892 19.9997C26.892 16.4563 24.0195 13.5837 20.476 13.5837C16.9326 13.5837 14.0601 16.4563 14.0601 19.9997C14.0601 23.5432 16.9326 26.4157 20.476 26.4157Z" fill="url(#paint1_linear)"/>
<path d="M22.0644 22.1403L20.4114 20.4873C19.7487 20.8555 19.1477 21.0107 18.6085 20.9528C18.0693 20.895 17.5867 20.653 17.1606 20.2269C16.7292 19.7956 16.503 19.2972 16.482 18.7317C16.461 18.1663 16.6543 17.635 17.062 17.1378L16.6714 16.7472L17.2434 16.1752L17.634 16.5658C18.1022 16.1976 18.5775 16.0076 19.0602 15.9957C19.5428 15.9839 20.0156 16.141 20.4785 16.4672L19.6106 17.5955C19.2397 17.3457 18.8715 17.2931 18.506 17.4377L20.0485 18.9803C20.8506 18.52 21.5023 18.3116 22.0033 18.3549C22.5044 18.3983 22.968 18.6331 23.394 19.0591C23.87 19.5352 24.1271 20.0803 24.1653 20.6944C24.2034 21.3086 24.003 21.9089 23.5637 22.4953L24.3014 23.2331L23.7294 23.8051L23.0113 23.0871C22.5011 23.4869 21.9619 23.6867 21.3938 23.6867C20.8257 23.6867 20.2432 23.4671 19.6461 23.0279L20.5654 21.8878C20.8178 22.0561 21.0782 22.1587 21.3465 22.1955C21.6146 22.2324 21.854 22.2139 22.0644 22.1403ZM17.922 17.9978C17.8194 18.2056 17.7852 18.4187 17.8194 18.6369C17.8535 18.8552 17.9469 19.0406 18.0995 19.1931C18.2389 19.3325 18.4105 19.42 18.6143 19.4555C18.8181 19.491 19.0423 19.4601 19.2869 19.3628L17.922 17.9978ZM22.6916 21.6234C22.852 21.3894 22.9212 21.1375 22.8988 20.8679C22.8764 20.5983 22.7666 20.3649 22.5693 20.1677C22.3931 19.9914 22.1893 19.8915 21.9578 19.8678C21.7263 19.8442 21.4581 19.9165 21.153 20.0848L22.6916 21.6234Z" fill="url(#paint2_linear)"/>
</g>
<defs>
<linearGradient id="paint0_linear" x1="0.476563" y1="0.000244141" x2="43.6139" y2="3.73185" gradientUnits="userSpaceOnUse">
<stop stop-color="#D1AD0C"/>
<stop offset="1" stop-color="#F5CD06"/>
</linearGradient>
<linearGradient id="paint1_linear" x1="14.0601" y1="13.5837" x2="24.5339" y2="28.1154" gradientUnits="userSpaceOnUse">
<stop stop-color="#4B505B"/>
<stop offset="1" stop-color="#292F39"/>
</linearGradient>
<linearGradient id="paint2_linear" x1="16.4805" y1="15.9951" x2="24.9147" y2="16.7257" gradientUnits="userSpaceOnUse">
<stop stop-color="#D1AD0C"/>
<stop offset="1" stop-color="#F5CD06"/>
</linearGradient>
<clipPath id="clip0">
<rect width="40" height="40" fill="white" transform="translate(0.476318)"/>
</clipPath>
</defs>
</svg>
