<svg width="41" height="40" viewBox="0 0 41 40" fill="none" xmlns="http://www.w3.org/2000/svg">
<path d="M40.3651 24.8377C37.6935 35.5539 26.8403 42.0726 16.1228 39.4014C5.41084 36.7301 -1.11058 25.8777 1.56225 15.164C4.23257 4.44788 15.0851 -2.0727 25.799 0.598529C36.5153 3.26976 43.0361 14.1234 40.3645 24.8377H40.3651Z" fill="#F7931A"/>
<path d="M30.481 17.1508C30.8791 14.4896 28.8526 13.0589 26.0817 12.1046L26.9805 8.49961L24.7859 7.95274L23.9108 11.4627C23.3262 11.3191 22.7403 11.1812 22.1531 11.049L23.0344 7.51586L20.8404 6.96899L19.9415 10.5727C19.464 10.464 18.9952 10.3565 18.5401 10.2433L18.5426 10.2321L15.516 9.47648L14.9322 11.8202C14.9322 11.8202 16.5605 12.1933 16.5261 12.2165C17.415 12.4383 17.5756 13.0264 17.5488 13.4927L16.5249 17.5995C16.5861 17.6152 16.6655 17.6383 16.753 17.6727L16.5211 17.6152L15.086 23.3682C14.9772 23.6382 14.7015 24.0432 14.0796 23.8895C14.1021 23.9214 12.485 23.4914 12.485 23.4914L11.3955 26.0038L14.2515 26.7163C14.7828 26.8488 15.3035 26.9882 15.816 27.1195L14.9078 30.7657L17.1 31.3126L17.9988 27.7045C18.5976 27.8676 19.179 28.017 19.7478 28.1588L18.8514 31.7494L21.0454 32.2963L21.9543 28.657C25.6966 29.3651 28.5107 29.0795 29.6952 25.6957C30.6497 22.9707 29.6477 21.3989 27.6787 20.3733C29.1127 20.042 30.1928 19.0989 30.481 17.1508ZM25.466 24.1807C24.7878 26.9057 20.1991 25.4332 18.7114 25.0632L19.9165 20.2326C21.4042 20.6045 26.1748 21.3395 25.466 24.1807ZM26.1448 17.112C25.526 19.5901 21.7068 18.3308 20.4679 18.022L21.5605 13.6408C22.7994 13.9496 26.7893 14.5258 26.1448 17.1114V17.112Z" fill="white"/>
</svg>
