<svg width="97" height="40" viewBox="0 0 97 30" fill="none" xmlns="http://www.w3.org/2000/svg">
<path d="M39.5904 0L34.7792 29.9399H42.4693L47.2776 0H39.5904ZM62.7867 12.1958C60.0994 10.8687 58.4519 9.97306 58.4519 8.61574C58.4848 7.38163 59.8451 6.1173 62.8827 6.1173C65.3811 6.05454 67.2175 6.64169 68.6106 7.22589L69.3085 7.53737L70.354 1.27321C68.835 0.686052 66.4266 0.0390983 63.4518 0.0390983C55.8575 0.0390983 50.5101 3.98751 50.4769 9.63463C50.4141 13.8019 54.3054 16.1143 57.2175 17.5016C60.1923 18.9246 61.205 19.8472 61.205 21.1115C61.1721 23.0527 58.7995 23.9484 56.5856 23.9484C53.5181 23.9484 51.8703 23.4871 49.369 22.4055L48.3563 21.9441L47.2809 28.4541C49.0874 29.2571 52.4095 29.9639 55.8579 30C63.9285 30 69.18 26.1114 69.2461 20.093C69.2724 16.7915 67.2204 14.2629 62.7867 12.1958ZM90.0691 0.0926557H84.1194C82.286 0.0926557 80.8929 0.62001 80.099 2.5014L68.676 29.9399H76.7466L78.9694 23.9993H87.9988L89.1521 29.9639H96.2702L90.0691 0.0926557ZM81.2076 18.0043C81.3634 18.0194 84.3054 8.30688 84.3054 8.30688L86.6481 18.0043C86.6481 18.0043 82.7266 18.0043 81.2076 18.0043ZM28.3533 0L20.8189 20.3414L19.9982 16.3299C18.605 11.7013 14.2374 6.67159 9.36304 4.17315L16.2623 29.91H24.399L36.49 0.00328389H28.3533V0Z" fill="#2C7DF7"/>
<path d="M17.4635 3.86178C16.8764 1.57888 15.0038 0.0392046 12.4607 0.00634766H0.528402L0.405518 0.560314C9.71355 2.85504 17.5263 9.91599 20.0608 16.5577L17.4635 3.86178Z" fill="#EFC75E"/>
</svg>
