<svg width="174" height="40" viewBox="0 0 174 40" fill="none" xmlns="http://www.w3.org/2000/svg">
<path d="M173.075 16.0647C172.836 14.6867 171.675 13.8598 169.995 13.8415C169.477 13.8341 168.963 13.8856 168.459 13.8305C167.467 13.7276 167.206 14.0583 167.213 14.8447C167.261 18.7031 167.246 22.5579 167.232 26.4054C167.221 28.4228 165.251 30.4953 162.885 31.0208C155.535 32.634 148.193 34.2729 140.836 35.8714C140.009 36.0515 139.139 36.1434 138.297 36.136C137.93 36.136 137.422 35.8568 137.264 35.5848C137.162 35.4048 137.485 34.9675 137.738 34.7433C138.073 34.4714 138.499 34.2546 138.936 34.1039C140.285 33.6225 141.656 33.1852 143.019 32.7332C148.476 30.9179 153.944 29.1247 159.394 27.2983C161.852 26.4678 163.179 24.8289 163.219 22.76C163.344 16.0573 163.281 9.35464 163.252 2.64459C163.252 1.58259 162.701 0.696981 161.437 0.237641C159.982 -0.28417 158.703 0.131075 157.439 0.733729C149.714 4.41948 141.994 8.09788 134.262 11.7763C131.988 12.8603 130.72 14.4294 130.731 16.6637C130.757 23.0026 130.738 29.3304 130.745 35.662C130.745 35.978 130.779 36.3014 130.878 36.6027C131.638 38.7561 133.612 39.9908 136.338 39.9908C141.773 40.0055 147.227 39.9982 152.665 39.9982C158.085 39.9982 163.487 40.0055 168.907 39.9908C170.083 39.9908 171.167 39.7483 172.049 39.0207C173.192 38.102 173.133 36.9334 173.133 35.7686C173.144 29.595 173.144 23.4288 173.137 17.2443C173.148 16.8584 173.141 16.4542 173.075 16.0647ZM150.475 14.084C151.023 12.6619 152.217 11.7726 154.04 11.5448C155.245 11.3904 156.296 12.1364 156.469 13.2241C156.729 14.8998 154.635 16.8474 152.566 16.84C150.839 16.84 149.876 15.6311 150.475 14.084Z" fill="#FFCC00"/>
<path d="M35.7527 12.9378C35.7527 15.9067 35.7527 18.8143 35.7527 21.7497C33.5037 21.7497 31.411 21.7497 29.1564 21.7497C29.1564 18.7529 29.1564 15.8453 29.1564 12.9099C27.9342 12.9099 26.8739 12.9099 25.7075 12.9099C25.7075 20.2597 25.7075 27.4811 25.7075 34.7192C26.9129 34.7192 28.0012 34.7192 29.2624 34.7192C29.2624 31.4154 29.2624 28.201 29.2624 24.953C31.4947 24.953 33.5595 24.953 35.7751 24.953C35.7751 28.2456 35.7751 31.4657 35.7751 34.7304C37.0307 34.7304 38.119 34.7304 39.2853 34.7304C39.2853 27.4308 39.2853 20.1983 39.2853 12.9378C38.0911 12.9378 37.0028 12.9378 35.7527 12.9378Z" fill="white"/>
<path d="M17.2965 1.17882C15.3935 1.17882 13.5017 1.1844 11.6043 1.17882C8.92553 1.16766 6.70442 2.00476 4.87953 3.61758C-1.38757 9.16478 0.25873 19.7011 8.59627 21.9501C5.79477 26.158 3.01001 30.3546 0.0913086 34.7522C1.27999 34.7522 2.19523 34.6908 3.08813 34.769C4.27124 34.875 4.87953 34.4899 5.42644 33.6138C7.51362 30.2263 9.72915 26.889 11.8944 23.5295C12.8934 21.9892 13.0162 21.9446 15.3712 22.3966C15.3712 26.4593 15.3712 30.5555 15.3712 34.6462C16.7943 34.6462 18.0276 34.6462 19.367 34.6462C19.367 33.943 19.367 33.3515 19.367 32.7488C19.367 22.7817 19.367 12.809 19.367 2.83629C19.367 1.17883 19.3614 1.1844 17.2965 1.17882ZM15.2596 18.8808C12.5418 18.8529 9.70682 19.5281 7.63639 17.4912C5.2646 15.164 4.58934 12.4741 5.4655 9.52195C5.53805 9.28756 5.65525 9.06434 5.75012 8.84111C7.51362 4.78395 9.84076 3.65665 15.2596 4.33191C15.2596 9.18153 15.2596 13.9642 15.2596 18.8808Z" fill="#FF0000"/>
<path d="M116.064 31.5881C110.143 33.5636 106.058 31.7778 104.987 26.6212C104.423 23.9481 104.624 21.2582 105.6 18.652C106.917 15.0915 109.535 14.0312 113.888 15.2087C113.971 15.2311 114.072 15.192 114.223 15.1697C114.658 14.6283 115.104 14.0591 115.59 13.4508C111.996 11.0902 107.068 11.6538 104.389 14.6339C102.319 16.9332 101.51 19.5952 101.247 22.3911C100.952 25.6 101.348 28.714 103.469 31.5323C105.69 34.4789 109.54 35.8629 113.503 34.9365C116.299 34.2779 116.611 33.9878 116.064 31.5881Z" fill="white"/>
<path d="M79.1093 31.8837C78.088 32.1795 77.1058 32.5367 76.079 32.7432C73.2161 33.3236 71.1736 32.6874 70.0853 30.8848C68.8074 28.7753 68.8688 26.5095 68.9469 24.1378C72.619 24.1378 76.146 24.1378 79.7455 24.1378C79.9799 20.5884 79.5446 17.2624 77.2956 14.2376C75.32 11.5812 71.8991 11.1571 69.1813 13.3391C68.16 14.1539 67.3006 15.1975 66.6979 16.2578C65.0125 19.21 64.3707 22.391 64.767 25.6166C65.0181 27.6201 65.5706 29.657 66.4244 31.5433C67.6633 34.3169 70.5262 35.7344 73.8356 35.3828C75.4372 35.2154 77.0389 34.7634 78.5456 34.2388C80.2254 33.6584 80.2701 33.1227 79.1093 31.8837ZM70.7383 15.8895C71.9549 14.3771 73.9639 14.4218 75.041 16.0067C76.2464 17.7646 76.3915 19.7067 76.3413 21.7436C73.7239 21.7436 71.3298 21.7436 68.8185 21.7436C68.9357 19.6118 69.3431 17.6363 70.7383 15.8895Z" fill="white"/>
<path d="M92.4803 21.4649C94.6344 18.987 96.6937 16.459 98.7864 13.9533C99.0431 13.6463 99.2664 13.3227 99.6235 12.8539C98.9483 12.8539 98.552 12.8985 98.1781 12.8483C96.649 12.6418 95.7171 13.1385 94.8855 14.2323C93.0495 16.6432 91.0125 18.9424 89.0481 21.2807C88.8249 21.543 88.5459 21.7718 88.0101 22.2908C88.0101 18.9368 88.0101 15.9567 88.0101 12.9153C86.8047 12.9153 85.75 12.9153 84.6003 12.9153C84.6003 20.092 84.6003 27.1516 84.6003 34.2055C85.7723 34.2055 86.827 34.2055 88.0604 34.2055C88.0604 31.6775 88.0046 29.1997 88.0938 26.733C88.1273 25.8848 88.518 25.0365 88.7412 24.1882C89.4053 24.5956 89.6899 24.9584 89.9411 25.3379C91.7213 28.011 93.4792 30.6841 95.2762 33.3405C95.5106 33.6921 95.9124 34.1665 96.2919 34.2167C97.3075 34.3451 98.3511 34.2614 99.6068 34.2614C97.1066 30.4553 94.7739 26.8614 92.3854 23.2842C91.9334 22.6145 91.8999 22.129 92.4803 21.4649Z" fill="white"/>
<path d="M59.3144 31.8228C59.3144 25.4832 59.3144 19.2217 59.3144 12.9099C55.4805 12.9099 51.8028 12.9099 47.9131 12.9099C47.9131 14.3274 47.9633 15.5998 47.9075 16.8778C47.7177 21.32 47.5559 25.7678 45.7031 30.0203C45.2455 31.0695 44.9051 32.1912 43.136 31.9568C43.136 34.323 43.136 36.5776 43.136 38.821C44.2521 38.821 45.2511 38.821 46.423 38.821C46.423 37.2863 46.423 35.8242 46.423 34.3621C50.5974 34.3621 54.5931 34.3621 58.7731 34.3621C58.7731 35.9079 58.7731 37.37 58.7731 38.7987C59.945 38.7987 60.9328 38.7987 61.8815 38.7987C61.8815 36.4325 61.8815 34.1779 61.8815 31.9233C60.9886 31.8898 60.2296 31.8563 59.3144 31.8228ZM55.7148 31.8228C53.1142 31.8228 50.6699 31.8228 48.0358 31.8228C51.3675 26.6663 50.9155 21.1247 51.1554 15.5942C52.679 15.5942 54.1523 15.5942 55.7148 15.5942C55.7148 20.9963 55.7148 26.3482 55.7148 31.8228Z" fill="white"/>
</svg>
