<svg width="159" height="40" viewBox="0 0 159 40" fill="none" xmlns="http://www.w3.org/2000/svg">
<path d="M29.0798 3.01632C27.217 0.905244 23.8497 0.000175339 19.5421 0.000175339H7.03998C6.61356 -5.04429e-05 6.20106 0.151057 5.8767 0.426301C5.55235 0.701545 5.33744 1.08285 5.27065 1.50161L0.0672653 34.3307C0.043138 34.483 0.0525027 34.6386 0.0947147 34.787C0.136927 34.9353 0.210983 35.0728 0.31178 35.19C0.412577 35.3071 0.537719 35.4012 0.678585 35.4656C0.819452 35.53 0.972693 35.5634 1.12775 35.5632H8.84604L10.7845 23.3382L10.7244 23.7211C10.7899 23.3031 11.0034 22.9222 11.3264 22.6469C11.6493 22.3717 12.0606 22.2201 12.486 22.2196H16.1537C23.359 22.2196 29.0008 19.3097 30.6489 10.8919C30.6978 10.643 30.7401 10.4007 30.7768 10.1639C31.2665 7.0526 30.7735 4.93488 29.0809 3.01743" fill="#003087"/>
<path d="M123.568 18.6378C123.097 21.7182 120.731 21.7182 118.443 21.7182H117.141L118.055 15.9669C118.11 15.6195 118.411 15.3639 118.765 15.3639H119.362C120.92 15.3639 122.391 15.3639 123.15 16.2457C123.603 16.7735 123.74 17.5569 123.568 18.6378ZM122.573 10.6007H113.942C113.656 10.6008 113.38 10.7023 113.162 10.8868C112.945 11.0714 112.801 11.3269 112.756 11.6076L109.268 33.6112C109.252 33.7132 109.258 33.8175 109.287 33.9168C109.315 34.0162 109.365 34.1083 109.432 34.1868C109.499 34.2653 109.583 34.3284 109.677 34.3717C109.772 34.415 109.874 34.4375 109.978 34.4377H114.407C114.82 34.4377 115.171 34.139 115.236 33.7341L116.226 27.4938C116.318 26.9151 116.821 26.4869 117.41 26.4869H120.141C125.827 26.4869 129.108 23.7529 129.965 18.3303C130.351 15.9603 129.98 14.097 128.864 12.7926C127.637 11.3586 125.461 10.5996 122.574 10.5996" fill="#009CDE"/>
<path d="M62.009 18.6381C61.5371 21.7184 59.1714 21.7184 56.8824 21.7184H55.5804L56.494 15.9671C56.5496 15.6197 56.8501 15.3641 57.2039 15.3641H57.8015C59.3594 15.3641 60.8305 15.3641 61.5894 16.246C62.0435 16.7737 62.1803 17.5571 62.009 18.6381ZM61.013 10.6009H52.3822C51.7925 10.6009 51.2895 11.028 51.1971 11.6078L47.7085 33.6115C47.6923 33.7135 47.6985 33.8178 47.7267 33.9173C47.7549 34.0167 47.8045 34.1089 47.8719 34.1874C47.9394 34.266 48.0232 34.3291 48.1176 34.3723C48.2119 34.4156 48.3146 34.438 48.4185 34.438H52.5403C53.13 34.438 53.6319 34.0109 53.7243 33.4311L54.6668 27.4951C54.758 26.9153 55.261 26.4882 55.8508 26.4882H58.5816C64.2679 26.4882 67.5484 23.7531 68.4053 18.3305C68.7914 15.9605 68.4208 14.0973 67.3047 12.7928C66.0773 11.3588 63.9018 10.5998 61.0141 10.5998L61.013 10.6009ZM81.0509 26.538C80.6503 28.8859 78.7775 30.4626 76.3861 30.4626C75.1877 30.4626 74.2273 30.0786 73.6109 29.3528C72.9988 28.6336 72.7696 27.6079 72.9632 26.4672C73.3349 24.1393 75.24 22.5128 77.5946 22.5128C78.7686 22.5128 79.7201 22.9001 80.3499 23.6325C80.9831 24.3705 81.2323 25.4017 81.0509 26.538ZM86.8107 18.5385H82.6778C82.506 18.5383 82.3398 18.5992 82.2092 18.7102C82.0786 18.8212 81.9922 18.9749 81.9657 19.1437L81.7854 20.2922L81.4961 19.8762C80.6014 18.585 78.6062 18.1523 76.6143 18.1523C72.0485 18.1523 68.1482 21.5934 67.3893 26.4174C66.9942 28.8261 67.5551 31.1264 68.9283 32.7319C70.189 34.2067 71.9884 34.8208 74.1328 34.8208C77.8139 34.8208 79.8547 32.4707 79.8547 32.4707L79.67 33.6126C79.6537 33.7147 79.6599 33.8191 79.6882 33.9186C79.7165 34.0181 79.7661 34.1104 79.8337 34.1889C79.9013 34.2675 79.9853 34.3306 80.0798 34.3738C80.1743 34.4169 80.2771 34.4392 80.3811 34.4391H84.1022C84.692 34.4391 85.195 34.0131 85.2873 33.4322L87.5218 19.3661C87.5379 19.2639 87.5315 19.1595 87.5031 19.06C87.4747 18.9605 87.4249 18.8683 87.3572 18.7897C87.2895 18.7112 87.2055 18.6481 87.111 18.6049C87.0165 18.5618 86.9136 18.5395 86.8096 18.5396" fill="#003087"/>
<path d="M142.611 26.538C142.21 28.8859 140.337 30.4626 137.946 30.4626C136.748 30.4626 135.787 30.0786 135.171 29.3528C134.559 28.6336 134.329 27.608 134.523 26.4672C134.895 24.1393 136.799 22.5128 139.155 22.5128C140.329 22.5128 141.28 22.9001 141.91 23.6325C142.543 24.3705 142.792 25.4017 142.611 26.538ZM148.371 18.5385H144.238C144.066 18.5383 143.9 18.5992 143.769 18.7102C143.639 18.8212 143.552 18.975 143.526 19.1437L143.345 20.2922L143.056 19.8762C142.161 18.585 140.166 18.1524 138.174 18.1524C133.609 18.1524 129.709 21.5934 128.949 26.4174C128.554 28.8261 129.116 31.1264 130.489 32.7319C131.75 34.2067 133.549 34.8208 135.694 34.8208C139.376 34.8208 141.417 32.4707 141.417 32.4707L141.232 33.6126C141.216 33.7146 141.221 33.819 141.249 33.9185C141.277 34.018 141.327 34.1103 141.394 34.1889C141.462 34.2675 141.546 34.3306 141.64 34.3738C141.734 34.417 141.837 34.4393 141.941 34.4391H145.661C146.251 34.4391 146.754 34.0131 146.847 33.4322L149.082 19.3661C149.098 19.2639 149.092 19.1595 149.063 19.06C149.035 18.9605 148.985 18.8683 148.917 18.7897C148.85 18.7112 148.766 18.6481 148.671 18.605C148.576 18.5618 148.474 18.5395 148.37 18.5396" fill="#009CDE"/>
<path d="M108.823 18.5396H104.668C104.27 18.5396 103.9 18.7354 103.677 19.0629L97.9465 27.4541L95.5173 19.3904C95.4432 19.1445 95.2914 18.9288 95.0844 18.7753C94.8773 18.6219 94.6261 18.5388 94.3678 18.5385H90.285C90.1706 18.5385 90.0577 18.5657 89.9559 18.6178C89.8541 18.6699 89.7663 18.7454 89.6997 18.838C89.6331 18.9306 89.5897 19.0376 89.5731 19.1503C89.5564 19.2629 89.567 19.3778 89.604 19.4856L94.1776 32.8358L89.8755 38.8714C89.7995 38.9786 89.7546 39.1044 89.7455 39.2352C89.7365 39.366 89.7638 39.4968 89.8244 39.6132C89.8851 39.7297 89.9767 39.8273 90.0893 39.8955C90.2019 39.9637 90.3312 39.9999 90.4631 40H94.6138C95.0055 40 95.3738 39.8086 95.5986 39.4877L109.413 19.6626C109.488 19.5554 109.532 19.4299 109.54 19.2996C109.548 19.1693 109.521 19.0392 109.46 18.9235C109.399 18.8078 109.308 18.7108 109.195 18.6431C109.083 18.5754 108.954 18.5396 108.823 18.5396Z" fill="#003087"/>
<path d="M153.241 11.2063L149.698 33.6127C149.682 33.7148 149.688 33.8192 149.716 33.9186C149.745 34.018 149.794 34.1102 149.862 34.1887C149.93 34.2672 150.013 34.3303 150.108 34.3735C150.202 34.4168 150.305 34.4392 150.409 34.4392H153.971C154.561 34.4392 155.064 34.0121 155.156 33.4324L158.649 11.4276C158.665 11.3254 158.659 11.221 158.631 11.1215C158.603 11.022 158.553 10.9298 158.485 10.8512C158.418 10.7726 158.334 10.7096 158.239 10.6664C158.145 10.6232 158.042 10.6009 157.938 10.6011H153.952C153.78 10.6006 153.614 10.6613 153.484 10.7721C153.353 10.883 153.267 11.0366 153.241 11.2052" fill="#009CDE"/>
<path d="M29.0798 3.01632C27.217 0.905244 23.8497 0.000175339 19.5421 0.000175339H7.03998C6.61356 -5.04429e-05 6.20106 0.151057 5.8767 0.426301C5.55235 0.701545 5.33744 1.08285 5.27065 1.50161L0.0672653 34.3307C0.043138 34.483 0.0525027 34.6386 0.0947147 34.787C0.136927 34.9353 0.210983 35.0728 0.31178 35.19C0.412577 35.3071 0.537719 35.4012 0.678585 35.4656C0.819452 35.53 0.972693 35.5634 1.12775 35.5632H8.84604L10.7845 23.3382L10.7244 23.7211C10.7899 23.3031 11.0034 22.9222 11.3264 22.6469C11.6493 22.3717 12.0606 22.2201 12.486 22.2196H16.1537C23.359 22.2196 29.0008 19.3097 30.6489 10.8919C30.6978 10.643 30.7401 10.4007 30.7768 10.1639C31.2665 7.0526 30.7735 4.93488 29.0809 3.01743" fill="#003087"/>
<path d="M12.8664 10.2047C12.9249 9.83882 13.1126 9.50562 13.3959 9.26492C13.6791 9.02423 14.0394 8.89179 14.412 8.89138H24.2135C25.3741 8.89138 26.4569 8.96662 27.4461 9.12373C27.987 9.21025 28.5221 9.32923 29.0485 9.48001C29.6464 9.64712 30.2249 9.87631 30.7745 10.1638C31.2663 7.05138 30.7722 4.93477 29.0797 3.01621C27.2158 0.906238 23.8496 0.00116888 19.542 0.00116888H7.03871C6.61266 0.00146993 6.20069 0.152815 5.8768 0.428012C5.55291 0.703208 5.33832 1.08422 5.2716 1.50261L0.0659764 34.3283C0.0416857 34.4806 0.0508904 34.6363 0.0929567 34.7847C0.135023 34.9331 0.208951 35.0707 0.309645 35.188C0.410339 35.3052 0.535406 35.3994 0.676228 35.464C0.817049 35.5286 0.970276 35.562 1.12535 35.562H8.84476L10.7832 23.3359L12.8664 10.2047Z" fill="#003087"/>
<path d="M30.7758 10.1628C30.7377 10.4062 30.695 10.6489 30.6479 10.8908C28.9998 19.3075 23.358 22.2185 16.1527 22.2185H12.4838C12.0585 22.2188 11.6473 22.3703 11.3245 22.6456C11.0016 22.921 10.7884 23.302 10.7234 23.7199L8.84501 35.561L8.31087 38.9201C8.28964 39.0535 8.29774 39.1898 8.33461 39.3198C8.37149 39.4497 8.43628 39.5702 8.52449 39.6728C8.61271 39.7755 8.72227 39.8579 8.84561 39.9144C8.96895 39.9708 9.10314 40.0001 9.23894 40H15.7454C16.5155 40 17.1698 39.4424 17.2911 38.6867L17.3545 38.3569L18.5808 30.6296L18.6587 30.2025C18.717 29.8363 18.9048 29.5029 19.1884 29.2621C19.4719 29.0213 19.8326 28.8891 20.2055 28.8892H21.1792C27.482 28.8892 32.4172 26.3444 33.8594 18.9799C34.4603 15.9041 34.1487 13.3338 32.5574 11.5292C32.0521 10.9697 31.4484 10.5067 30.7758 10.1628Z" fill="#009CDE"/>
<path d="M29.0496 9.47989C28.7981 9.40576 28.5389 9.33937 28.2718 9.28073C28.0047 9.22209 27.7288 9.17009 27.4461 9.12583C26.4557 8.9654 25.3741 8.89016 24.2123 8.89016H14.412C14.039 8.8897 13.6781 9.02198 13.3946 9.26306C13.1111 9.50414 12.9238 9.83811 12.8664 10.2046L10.7832 23.338L10.7231 23.7197C10.7882 23.3018 11.0014 22.9208 11.3242 22.6454C11.647 22.3701 12.0582 22.2186 12.4836 22.2183H16.1524C23.3577 22.2183 28.9996 19.3084 30.6476 10.8906C30.6966 10.6416 30.7377 10.4004 30.7756 10.1626C30.3403 9.93613 29.887 9.74591 29.4202 9.59385C29.2989 9.55402 29.1754 9.5164 29.0496 9.47878" fill="#012169"/>
</svg>
