<svg width="40" height="40" viewBox="0 0 40 40" fill="none" xmlns="http://www.w3.org/2000/svg">
<g clip-path="url(#clip0)">
<path d="M19.9998 40.0005C31.0453 40.0005 39.9995 31.0463 39.9995 20.0007C39.9995 8.95517 31.0453 0.000976562 19.9998 0.000976562C8.9542 0.000976562 0 8.95517 0 20.0007C0 31.0463 8.9542 40.0005 19.9998 40.0005Z" fill="#41B4E6"/>
<path d="M18.0575 22.9138L27.0958 29.7378L31.6583 10.2622L8.34131 19.434L15.4364 21.7841L28.3851 13.0985L18.0575 22.9138Z" fill="white"/>
<path d="M15.4365 21.7843L17.3797 28.7768L18.0576 22.9139L28.3852 13.0986L15.4365 21.7843Z" fill="#D2D2D7"/>
<path d="M20.9953 25.1319L17.3799 28.7769L18.0578 22.9141L20.9953 25.1319Z" fill="#B9B9BE"/>
</g>
<defs>
<clipPath id="clip0">
<rect width="40" height="40" fill="white"/>
</clipPath>
</defs>
</svg>
