<svg width="40" height="40" viewBox="0 0 40 40" fill="none" xmlns="http://www.w3.org/2000/svg">
<path d="M20 40C31.0457 40 40 31.0457 40 20C40 8.9543 31.0457 0 20 0C8.9543 0 0 8.9543 0 20C0 31.0457 8.9543 40 20 40Z" fill="#65A2D9"/>
<path d="M31.1035 12.9297C30.5947 13.1554 30.0667 13.3334 29.5248 13.4622C30.122 12.8949 30.5709 12.1851 30.8241 11.3931C30.8964 11.1671 30.6507 10.9714 30.4466 11.0925C29.6927 11.5397 28.8806 11.875 28.033 12.0895C27.9839 12.102 27.9333 12.1083 27.8823 12.1083C27.7277 12.1083 27.5779 12.051 27.4595 11.9469C26.5578 11.1521 25.3978 10.7144 24.1935 10.7144C23.6723 10.7144 23.1463 10.7956 22.6298 10.9558C21.0292 11.4522 19.7942 12.7726 19.4066 14.4014C19.2613 15.0122 19.222 15.6239 19.2897 16.2189C19.2973 16.2873 19.2652 16.335 19.2452 16.3573C19.2101 16.3965 19.1606 16.4191 19.1089 16.4191C19.1033 16.4191 19.0972 16.4189 19.0914 16.4183C15.5878 16.0927 12.4284 14.4049 10.1954 11.6654C10.0817 11.5257 9.86314 11.5429 9.77236 11.6984C9.33517 12.4489 9.10408 13.3069 9.10408 14.1801C9.10408 15.5182 9.64189 16.7794 10.5757 17.6988C10.183 17.6056 9.80283 17.459 9.44963 17.2627C9.27869 17.1679 9.06861 17.2901 9.06619 17.4855C9.04197 19.4733 10.2059 21.2423 11.9494 22.0387C11.9142 22.0395 11.8791 22.0398 11.8439 22.0398C11.5676 22.0398 11.2876 22.0134 11.0123 21.9605C10.8199 21.924 10.6582 22.1064 10.7179 22.2928C11.284 24.0598 12.8052 25.3622 14.6258 25.6576C13.1149 26.6719 11.3552 27.2069 9.52408 27.2069L8.9533 27.2066C8.77713 27.2066 8.6283 27.3214 8.58377 27.4918C8.53963 27.6594 8.6208 27.8365 8.77095 27.9238C10.8344 29.1248 13.1882 29.7594 15.5786 29.7594C17.6711 29.7594 19.6285 29.3443 21.3963 28.5251C23.017 27.7744 24.4491 26.7013 25.653 25.3355C26.7746 24.0632 27.6515 22.5945 28.2596 20.97C28.8392 19.4219 29.1456 17.7694 29.1456 16.1923V16.117C29.1456 15.8638 29.26 15.6255 29.4599 15.4631C30.2182 14.8473 30.8787 14.1226 31.4226 13.309C31.5663 13.0944 31.3398 12.825 31.1035 12.9297Z" fill="white"/>
</svg>
