<svg width="30" height="20" viewBox="0 0 30 20" fill="none" xmlns="http://www.w3.org/2000/svg">
<path d="M27.1816 0.931152H2.5254C1.32586 0.931152 0.353516 1.9035 0.353516 3.10303V17.7593C0.353516 18.9587 1.32586 19.9312 2.5254 19.9312H27.1816C28.381 19.9312 29.3535 18.9588 29.3535 17.7593V3.10303C29.3535 1.9035 28.3811 0.931152 27.1816 0.931152Z" fill="#F5F5F5"/>
<path d="M0.473633 2.3927H29.2346C28.9403 1.54213 28.1328 0.931152 27.1822 0.931152H2.52606C1.5754 0.931152 0.767993 1.54213 0.473633 2.3927Z" fill="#FF4B55"/>
<path d="M29.3535 6.77783H0.353516V8.23933H29.3535V6.77783Z" fill="#FF4B55"/>
<path d="M29.3535 3.854H0.353516V5.3155H29.3535V3.854Z" fill="#FF4B55"/>
<path d="M0.353516 10.6622C0.353516 10.9383 0.577416 11.1622 0.853538 11.1622H29.3535V9.70068H0.353516V10.6622Z" fill="#FF4B55"/>
<path d="M29.3535 15.5469H0.353516V17.0084H29.3535V15.5469Z" fill="#FF4B55"/>
<path d="M29.2347 18.4697H0.473633C0.767993 19.3203 1.57546 19.9313 2.52606 19.9313H27.1822C28.1329 19.9313 28.9403 19.3203 29.2347 18.4697Z" fill="#FF4B55"/>
<path d="M29.3535 12.6235H0.353516V14.085H29.3535V12.6235Z" fill="#FF4B55"/>
<path d="M0.853538 11.162H13.3535C13.6297 11.162 13.8536 10.9381 13.8536 10.6619V1.43117C13.8536 1.155 13.6297 0.931152 13.3535 0.931152H2.5254C1.32586 0.931209 0.353516 1.90356 0.353516 3.10309V10.6619C0.353516 10.9381 0.577416 11.162 0.853538 11.162Z" fill="#41479B"/>
<path d="M1.75792 2.07911L1.86859 2.41102L2.21846 2.41369C2.26377 2.41408 2.28252 2.47186 2.2461 2.49876L1.96465 2.70657L2.07023 3.04013C2.08394 3.08329 2.03472 3.11909 1.99784 3.09269L1.71323 2.8893L1.42861 3.09275C1.39174 3.11914 1.34263 3.08335 1.35622 3.04019L1.4618 2.70663L1.18035 2.49882C1.14393 2.47186 1.16268 2.41408 1.20799 2.41374L1.55786 2.41108L1.66854 2.07917C1.68281 2.03612 1.74353 2.03612 1.75792 2.07911Z" fill="#F5F5F5"/>
<path d="M1.75792 3.8154L1.86859 4.14731L2.21846 4.14998C2.26377 4.15037 2.28252 4.20809 2.2461 4.23505L1.96465 4.44292L2.07023 4.77648C2.08394 4.81964 2.03472 4.85544 1.99784 4.82905L1.71323 4.62565L1.42861 4.8291C1.39174 4.85544 1.34263 4.8197 1.35622 4.77654L1.4618 4.44298L1.18035 4.23511C1.14393 4.20815 1.16268 4.15043 1.20799 4.15003L1.55786 4.14737L1.66854 3.81545C1.68281 3.77246 1.74353 3.77246 1.75792 3.8154Z" fill="#F5F5F5"/>
<path d="M1.75792 5.55225L1.86859 5.88417L2.21846 5.88683C2.26377 5.88723 2.28252 5.94495 2.2461 5.97191L1.96465 6.17978L2.07023 6.51333C2.08394 6.55649 2.03472 6.59229 1.99784 6.5659L1.71323 6.3625L1.42861 6.56595C1.39174 6.59229 1.34263 6.55661 1.35622 6.51339L1.4618 6.17983L1.18035 5.97196C1.14393 5.945 1.16268 5.88728 1.20799 5.88689L1.55786 5.88423L1.66854 5.55231C1.68281 5.50927 1.74353 5.50926 1.75792 5.55225Z" fill="#F5F5F5"/>
<path d="M1.75792 7.28858L1.86859 7.62049L2.21846 7.62315C2.26377 7.62355 2.28252 7.68132 2.2461 7.70823L1.96465 7.9161L2.07023 8.24965C2.08394 8.29281 2.03472 8.3286 1.99784 8.30221L1.71323 8.09882L1.42861 8.30227C1.39174 8.3286 1.34263 8.29286 1.35622 8.2497L1.4618 7.91615L1.18035 7.70828C1.14393 7.68144 1.16268 7.62361 1.20799 7.62321L1.55786 7.62055L1.66854 7.28864C1.68281 7.24559 1.74353 7.24559 1.75792 7.28858Z" fill="#F5F5F5"/>
<path d="M1.75792 9.02438L1.86859 9.35629L2.21846 9.35896C2.26377 9.35935 2.28252 9.41707 2.2461 9.44403L1.96465 9.6519L2.07023 9.98546C2.08394 10.0286 2.03472 10.0644 1.99784 10.038L1.71323 9.83462L1.42861 10.0381C1.39174 10.0644 1.34263 10.0287 1.35622 9.98551L1.4618 9.65196L1.18035 9.44409C1.14393 9.41713 1.16268 9.35941 1.20799 9.35901L1.55786 9.35635L1.66854 9.02444C1.68281 8.98145 1.74353 8.98145 1.75792 9.02438Z" fill="#F5F5F5"/>
<path d="M3.10557 2.93015L3.21625 3.26207L3.56611 3.26473C3.61143 3.26512 3.63018 3.3229 3.59376 3.3498L3.31231 3.55767L3.41789 3.89123C3.43159 3.93439 3.38237 3.97019 3.3455 3.9438L3.06088 3.74034L2.77627 3.9438C2.73939 3.97013 2.69029 3.93439 2.70388 3.89123L2.80946 3.55767L2.52801 3.3498C2.49159 3.32284 2.51034 3.26512 2.55565 3.26473L2.90552 3.26207L3.01619 2.93015C3.03047 2.88722 3.09124 2.88722 3.10557 2.93015Z" fill="#F5F5F5"/>
<path d="M3.10557 4.66652L3.21625 4.99843L3.56611 5.0011C3.61143 5.00149 3.63018 5.05927 3.59376 5.08617L3.31231 5.29404L3.41789 5.6276C3.43159 5.67076 3.38237 5.70655 3.3455 5.68016L3.06088 5.47671L2.77627 5.68016C2.73939 5.7065 2.69029 5.67081 2.70388 5.6276L2.80946 5.29404L2.52801 5.08617C2.49159 5.05932 2.51034 5.00149 2.55565 5.0011L2.90552 4.99843L3.01619 4.66652C3.03047 4.62353 3.09124 4.62353 3.10557 4.66652Z" fill="#F5F5F5"/>
<path d="M3.10557 6.40334L3.21625 6.73525L3.56611 6.73791C3.61143 6.73831 3.63018 6.79603 3.59376 6.82299L3.31231 7.03086L3.41789 7.36442C3.43159 7.40758 3.38237 7.44337 3.3455 7.41698L3.06088 7.21353L2.77627 7.41698C2.73939 7.44332 2.69029 7.40758 2.70388 7.36442L2.80946 7.03086L2.52801 6.82299C2.49159 6.79603 2.51034 6.73831 2.55565 6.73791L2.90552 6.73525L3.01619 6.40334C3.03047 6.36035 3.09124 6.36035 3.10557 6.40334Z" fill="#F5F5F5"/>
<path d="M3.10557 8.13962L3.21625 8.47153L3.56611 8.4742C3.61143 8.47459 3.63018 8.53231 3.59376 8.55927L3.31231 8.76714L3.41789 9.10069C3.43159 9.14385 3.38237 9.17965 3.3455 9.15326L3.06088 8.9498L2.77627 9.15326C2.73939 9.17965 2.69029 9.14385 2.70388 9.10069L2.80946 8.76714L2.52801 8.55927C2.49159 8.53231 2.51034 8.47459 2.55565 8.4742L2.90552 8.47153L3.01619 8.13962C3.03047 8.09669 3.09124 8.09669 3.10557 8.13962Z" fill="#F5F5F5"/>
<path d="M4.45372 2.07912L4.56439 2.41103L4.91426 2.41369C4.95957 2.41409 4.97832 2.47186 4.9419 2.49877L4.66045 2.70658L4.76603 3.04014C4.77974 3.0833 4.73052 3.1191 4.69365 3.0927L4.40903 2.88925L4.12441 3.0927C4.08754 3.1191 4.03843 3.0833 4.05202 3.04014L4.1576 2.70658L3.87616 2.49877C3.83974 2.47181 3.85848 2.41403 3.9038 2.41369L4.25366 2.41103L4.36434 2.07912C4.37861 2.03613 4.43939 2.03613 4.45372 2.07912Z" fill="#F5F5F5"/>
<path d="M4.45372 3.8154L4.56439 4.14732L4.91426 4.14998C4.95957 4.15037 4.97832 4.20809 4.9419 4.23505L4.66045 4.44292L4.76603 4.77648C4.77974 4.81964 4.73052 4.85543 4.69365 4.82904L4.40903 4.62559L4.12441 4.82904C4.08754 4.85538 4.03843 4.81964 4.05202 4.77648L4.1576 4.44292L3.87616 4.23505C3.83974 4.20809 3.85848 4.15037 3.9038 4.14998L4.25366 4.14732L4.36434 3.8154C4.37861 3.77247 4.43939 3.77247 4.45372 3.8154Z" fill="#F5F5F5"/>
<path d="M4.45372 5.55129L4.56439 5.8832L4.91426 5.88586C4.95957 5.88626 4.97832 5.94397 4.9419 5.97094L4.66045 6.17881L4.76603 6.51236C4.77974 6.55552 4.73052 6.59132 4.69365 6.56492L4.40903 6.36147L4.12441 6.56492C4.08754 6.59126 4.03843 6.55558 4.05202 6.51236L4.1576 6.17881L3.87616 5.97094C3.83974 5.94397 3.85848 5.88626 3.9038 5.88586L4.25366 5.8832L4.36434 5.55129C4.37861 5.5083 4.43939 5.5083 4.45372 5.55129Z" fill="#F5F5F5"/>
<path d="M4.45372 7.28761L4.56439 7.61953L4.91426 7.62219C4.95957 7.62259 4.97832 7.68036 4.9419 7.70727L4.66045 7.91514L4.76603 8.2487C4.77974 8.29186 4.73052 8.32765 4.69365 8.30126L4.40903 8.0978L4.12441 8.30126C4.08754 8.3276 4.03843 8.29186 4.05202 8.2487L4.1576 7.91514L3.87616 7.70727C3.83974 7.68042 3.85848 7.62259 3.9038 7.62219L4.25366 7.61953L4.36434 7.28761C4.37861 7.24462 4.43939 7.24462 4.45372 7.28761Z" fill="#F5F5F5"/>
<path d="M4.45372 9.02439L4.56439 9.3563L4.91426 9.35896C4.95957 9.35936 4.97832 9.41707 4.9419 9.44404L4.66045 9.65191L4.76603 9.98546C4.77974 10.0286 4.73052 10.0644 4.69365 10.038L4.40903 9.83457L4.12441 10.038C4.08754 10.0644 4.03843 10.0286 4.05202 9.98546L4.1576 9.65191L3.87616 9.44404C3.83974 9.41707 3.85848 9.35936 3.9038 9.35896L4.25366 9.3563L4.36434 9.02439C4.37861 8.98145 4.43939 8.98145 4.45372 9.02439Z" fill="#F5F5F5"/>
<path d="M5.80089 2.93015L5.91156 3.26207L6.26143 3.26473C6.30674 3.26512 6.32549 3.3229 6.28907 3.3498L6.00762 3.55767L6.1132 3.89123C6.12691 3.93439 6.07769 3.97019 6.04082 3.9438L5.7562 3.74034L5.47158 3.9438C5.43471 3.97013 5.3856 3.93439 5.39919 3.89123L5.50477 3.55767L5.22332 3.3498C5.1869 3.32284 5.20565 3.26512 5.25096 3.26473L5.60083 3.26207L5.71151 2.93015C5.72572 2.88722 5.78656 2.88722 5.80089 2.93015Z" fill="#F5F5F5"/>
<path d="M5.80089 4.66652L5.91156 4.99843L6.26143 5.0011C6.30674 5.00149 6.32549 5.05927 6.28907 5.08617L6.00762 5.29404L6.1132 5.6276C6.12691 5.67076 6.07769 5.70655 6.04082 5.68016L5.7562 5.47671L5.47158 5.68016C5.43471 5.7065 5.3856 5.67081 5.39919 5.6276L5.50477 5.29404L5.22332 5.08617C5.1869 5.05932 5.20565 5.00149 5.25096 5.0011L5.60083 4.99843L5.71151 4.66652C5.72572 4.62353 5.78656 4.62353 5.80089 4.66652Z" fill="#F5F5F5"/>
<path d="M5.80089 6.40334L5.91156 6.73525L6.26143 6.73791C6.30674 6.73831 6.32549 6.79603 6.28907 6.82299L6.00762 7.03086L6.1132 7.36442C6.12691 7.40758 6.07769 7.44337 6.04082 7.41698L5.7562 7.21353L5.47158 7.41698C5.43471 7.44332 5.3856 7.40758 5.39919 7.36442L5.50477 7.03086L5.22332 6.82299C5.1869 6.79603 5.20565 6.73831 5.25096 6.73791L5.60083 6.73525L5.71151 6.40334C5.72572 6.36035 5.78656 6.36035 5.80089 6.40334Z" fill="#F5F5F5"/>
<path d="M5.80089 8.13962L5.91156 8.47153L6.26143 8.4742C6.30674 8.47459 6.32549 8.53231 6.28907 8.55927L6.00762 8.76714L6.1132 9.10069C6.12691 9.14385 6.07769 9.17965 6.04082 9.15326L5.7562 8.9498L5.47158 9.15326C5.43471 9.17965 5.3856 9.14385 5.39919 9.10069L5.50477 8.76714L5.22332 8.55927C5.1869 8.53231 5.20565 8.47459 5.25096 8.4742L5.60083 8.47153L5.71151 8.13962C5.72572 8.09669 5.78656 8.09669 5.80089 8.13962Z" fill="#F5F5F5"/>
<path d="M7.1486 2.07911L7.25928 2.41102L7.60915 2.41369C7.65446 2.41408 7.67321 2.47186 7.63679 2.49876L7.35534 2.70657L7.46092 3.04013C7.47462 3.08329 7.4254 3.11909 7.38853 3.09269L7.10385 2.8893L6.81924 3.09275C6.78236 3.11914 6.73325 3.08335 6.74685 3.04019L6.85243 2.70663L6.57098 2.49882C6.53456 2.47186 6.55331 2.41408 6.59862 2.41374L6.94849 2.41108L7.05917 2.07917C7.0735 2.03612 7.13427 2.03612 7.1486 2.07911Z" fill="#F5F5F5"/>
<path d="M7.1486 3.8154L7.25928 4.14732L7.60915 4.14998C7.65446 4.15037 7.67321 4.20809 7.63679 4.23505L7.35534 4.44292L7.46092 4.77648C7.47462 4.81964 7.4254 4.85543 7.38853 4.82904L7.10385 4.62559L6.81924 4.82904C6.78236 4.85538 6.73325 4.81964 6.74685 4.77648L6.85243 4.44292L6.57098 4.23505C6.53456 4.20809 6.55331 4.15037 6.59862 4.14998L6.94849 4.14732L7.05917 3.8154C7.0735 3.77247 7.13427 3.77247 7.1486 3.8154Z" fill="#F5F5F5"/>
<path d="M7.1486 5.55129L7.25928 5.88321L7.60915 5.88587C7.65446 5.88627 7.67321 5.94398 7.63679 5.97094L7.35534 6.17881L7.46092 6.51237C7.47462 6.55553 7.4254 6.59133 7.38853 6.56493L7.10385 6.36142L6.81924 6.56487C6.78236 6.59121 6.73325 6.55547 6.74685 6.51231L6.85243 6.17876L6.57098 5.97089C6.53456 5.94392 6.55331 5.88621 6.59862 5.88581L6.94849 5.88315L7.05917 5.55124C7.0735 5.5083 7.13427 5.5083 7.1486 5.55129Z" fill="#F5F5F5"/>
<path d="M7.1486 7.28761L7.25928 7.61953L7.60915 7.62219C7.65446 7.62259 7.67321 7.68036 7.63679 7.70727L7.35534 7.91514L7.46092 8.2487C7.47462 8.29186 7.4254 8.32765 7.38853 8.30126L7.10385 8.0978L6.81924 8.30126C6.78236 8.3276 6.73325 8.29186 6.74685 8.2487L6.85243 7.91514L6.57098 7.70727C6.53456 7.68042 6.55331 7.62259 6.59862 7.62219L6.94849 7.61953L7.05917 7.28761C7.0735 7.24462 7.13427 7.24462 7.1486 7.28761Z" fill="#F5F5F5"/>
<path d="M7.1486 9.02439L7.25928 9.3563L7.60915 9.35896C7.65446 9.35936 7.67321 9.41707 7.63679 9.44404L7.35534 9.65191L7.46092 9.98546C7.47462 10.0286 7.4254 10.0644 7.38853 10.038L7.10385 9.83457L6.81924 10.038C6.78236 10.0644 6.73325 10.0286 6.74685 9.98546L6.85243 9.65191L6.57098 9.44404C6.53456 9.41707 6.55331 9.35936 6.59862 9.35896L6.94849 9.3563L7.05917 9.02439C7.0735 8.98145 7.13427 8.98145 7.1486 9.02439Z" fill="#F5F5F5"/>
<path d="M8.49668 2.93015L8.60736 3.26207L8.95722 3.26473C9.00253 3.26512 9.02128 3.3229 8.98486 3.3498L8.70342 3.55767L8.80899 3.89123C8.8227 3.93439 8.77348 3.97019 8.73661 3.9438L8.45199 3.74034L8.16738 3.9438C8.1305 3.97013 8.0814 3.93439 8.09499 3.89123L8.20057 3.55767L7.91912 3.3498C7.8827 3.32284 7.90145 3.26512 7.94676 3.26473L8.29663 3.26207L8.4073 2.93015C8.42163 2.88722 8.48235 2.88722 8.49668 2.93015Z" fill="#F5F5F5"/>
<path d="M8.49668 4.66652L8.60736 4.99843L8.95722 5.0011C9.00253 5.00149 9.02128 5.05927 8.98486 5.08617L8.70342 5.29404L8.80899 5.6276C8.8227 5.67076 8.77348 5.70655 8.73661 5.68016L8.45199 5.47671L8.16738 5.68016C8.1305 5.7065 8.0814 5.67081 8.09499 5.6276L8.20057 5.29404L7.91912 5.08617C7.8827 5.05932 7.90145 5.00149 7.94676 5.0011L8.29663 4.99843L8.4073 4.66652C8.42163 4.62353 8.48235 4.62353 8.49668 4.66652Z" fill="#F5F5F5"/>
<path d="M8.49668 6.40334L8.60736 6.73525L8.95722 6.73791C9.00253 6.73831 9.02128 6.79603 8.98486 6.82299L8.70342 7.03086L8.80899 7.36442C8.8227 7.40758 8.77348 7.44337 8.73661 7.41698L8.45199 7.21353L8.16738 7.41698C8.1305 7.44332 8.0814 7.40758 8.09499 7.36442L8.20057 7.03086L7.91912 6.82299C7.8827 6.79603 7.90145 6.73831 7.94676 6.73791L8.29663 6.73525L8.4073 6.40334C8.42163 6.36035 8.48235 6.36035 8.49668 6.40334Z" fill="#F5F5F5"/>
<path d="M8.49668 8.13962L8.60736 8.47153L8.95722 8.4742C9.00253 8.47459 9.02128 8.53231 8.98486 8.55927L8.70342 8.76714L8.80899 9.10069C8.8227 9.14385 8.77348 9.17965 8.73661 9.15326L8.45199 8.9498L8.16738 9.15326C8.1305 9.17965 8.0814 9.14385 8.09499 9.10069L8.20057 8.76714L7.91912 8.55927C7.8827 8.53231 7.90145 8.47459 7.94676 8.4742L8.29663 8.47153L8.4073 8.13962C8.42163 8.09669 8.48235 8.09669 8.49668 8.13962Z" fill="#F5F5F5"/>
<path d="M9.84336 2.07912L9.95404 2.41103L10.3039 2.41369C10.3492 2.41409 10.368 2.47186 10.3315 2.49877L10.0501 2.70658L10.1557 3.04014C10.1694 3.0833 10.1202 3.1191 10.0833 3.0927L9.79867 2.88925L9.51406 3.0927C9.47718 3.1191 9.42808 3.0833 9.44167 3.04014L9.54725 2.70658L9.2658 2.49877C9.22938 2.47181 9.24813 2.41403 9.29344 2.41369L9.64331 2.41103L9.75398 2.07912C9.7682 2.03613 9.82903 2.03613 9.84336 2.07912Z" fill="#F5F5F5"/>
<path d="M9.84336 3.8154L9.95404 4.14732L10.3039 4.14998C10.3492 4.15037 10.368 4.20809 10.3315 4.23505L10.0501 4.44292L10.1557 4.77648C10.1694 4.81964 10.1202 4.85543 10.0833 4.82904L9.79867 4.62559L9.51406 4.82904C9.47718 4.85538 9.42808 4.81964 9.44167 4.77648L9.54725 4.44292L9.2658 4.23505C9.22938 4.20809 9.24813 4.15037 9.29344 4.14998L9.64331 4.14732L9.75398 3.8154C9.7682 3.77247 9.82903 3.77247 9.84336 3.8154Z" fill="#F5F5F5"/>
<path d="M9.84336 5.55129L9.95404 5.8832L10.3039 5.88586C10.3492 5.88626 10.368 5.94397 10.3315 5.97094L10.0501 6.17881L10.1557 6.51236C10.1694 6.55552 10.1202 6.59132 10.0833 6.56492L9.79867 6.36147L9.51406 6.56492C9.47718 6.59126 9.42808 6.55558 9.44167 6.51236L9.54725 6.17881L9.2658 5.97094C9.22938 5.94397 9.24813 5.88626 9.29344 5.88586L9.64331 5.8832L9.75398 5.55129C9.7682 5.5083 9.82903 5.5083 9.84336 5.55129Z" fill="#F5F5F5"/>
<path d="M9.84336 7.28761L9.95404 7.61953L10.3039 7.62219C10.3492 7.62259 10.368 7.68036 10.3315 7.70727L10.0501 7.91514L10.1557 8.2487C10.1694 8.29186 10.1202 8.32765 10.0833 8.30126L9.79867 8.0978L9.51406 8.30126C9.47718 8.3276 9.42808 8.29186 9.44167 8.2487L9.54725 7.91514L9.2658 7.70727C9.22938 7.68042 9.24813 7.62259 9.29344 7.62219L9.64331 7.61953L9.75398 7.28761C9.7682 7.24462 9.82903 7.24462 9.84336 7.28761Z" fill="#F5F5F5"/>
<path d="M9.84336 9.02439L9.95404 9.3563L10.3039 9.35896C10.3492 9.35936 10.368 9.41707 10.3315 9.44404L10.0501 9.65191L10.1557 9.98546C10.1694 10.0286 10.1202 10.0644 10.0833 10.038L9.79867 9.83457L9.51406 10.038C9.47718 10.0644 9.42808 10.0286 9.44167 9.98546L9.54725 9.65191L9.2658 9.44404C9.22938 9.41707 9.24813 9.35936 9.29344 9.35896L9.64331 9.3563L9.75398 9.02439C9.7682 8.98145 9.82903 8.98145 9.84336 9.02439Z" fill="#F5F5F5"/>
<path d="M11.1915 2.93015L11.3022 3.26207L11.6521 3.26473C11.6974 3.26512 11.7161 3.3229 11.6797 3.3498L11.3982 3.55767L11.5038 3.89123C11.5175 3.93439 11.4683 3.97019 11.4314 3.9438L11.1468 3.74034L10.8622 3.9438C10.8253 3.97013 10.7762 3.93439 10.7898 3.89123L10.8954 3.55767L10.6139 3.3498C10.5775 3.32284 10.5963 3.26512 10.6416 3.26473L10.9915 3.26207L11.1021 2.93015C11.1164 2.88722 11.1772 2.88722 11.1915 2.93015Z" fill="#F5F5F5"/>
<path d="M11.1915 4.66652L11.3022 4.99843L11.6521 5.0011C11.6974 5.00149 11.7161 5.05927 11.6797 5.08617L11.3982 5.29404L11.5038 5.6276C11.5175 5.67076 11.4683 5.70655 11.4314 5.68016L11.1468 5.47671L10.8622 5.68016C10.8253 5.7065 10.7762 5.67081 10.7898 5.6276L10.8954 5.29404L10.6139 5.08617C10.5775 5.05932 10.5963 5.00149 10.6416 5.0011L10.9915 4.99843L11.1021 4.66652C11.1164 4.62353 11.1772 4.62353 11.1915 4.66652Z" fill="#F5F5F5"/>
<path d="M11.1915 6.40334L11.3022 6.73525L11.6521 6.73791C11.6974 6.73831 11.7161 6.79603 11.6797 6.82299L11.3982 7.03086L11.5038 7.36442C11.5175 7.40758 11.4683 7.44337 11.4314 7.41698L11.1468 7.21353L10.8622 7.41698C10.8253 7.44332 10.7762 7.40758 10.7898 7.36442L10.8954 7.03086L10.6139 6.82299C10.5775 6.79603 10.5963 6.73831 10.6416 6.73791L10.9915 6.73525L11.1021 6.40334C11.1164 6.36035 11.1772 6.36035 11.1915 6.40334Z" fill="#F5F5F5"/>
<path d="M11.1915 8.13962L11.3022 8.47153L11.6521 8.4742C11.6974 8.47459 11.7161 8.53231 11.6797 8.55927L11.3982 8.76714L11.5038 9.10069C11.5175 9.14385 11.4683 9.17965 11.4314 9.15326L11.1468 8.9498L10.8622 9.15326C10.8253 9.17965 10.7762 9.14385 10.7898 9.10069L10.8954 8.76714L10.6139 8.55927C10.5775 8.53231 10.5963 8.47459 10.6416 8.4742L10.9915 8.47153L11.1021 8.13962C11.1164 8.09669 11.1772 8.09669 11.1915 8.13962Z" fill="#F5F5F5"/>
<path d="M12.5392 2.07912L12.6498 2.41103L12.9997 2.41369C13.045 2.41409 13.0638 2.47186 13.0274 2.49877L12.7459 2.70658L12.8515 3.04014C12.8652 3.0833 12.816 3.1191 12.7791 3.0927L12.4945 2.88925L12.2099 3.0927C12.173 3.1191 12.1239 3.0833 12.1375 3.04014L12.2431 2.70658L11.9616 2.49877C11.9252 2.47181 11.9439 2.41403 11.9892 2.41369L12.3391 2.41103L12.4498 2.07912C12.4641 2.03613 12.5248 2.03613 12.5392 2.07912Z" fill="#F5F5F5"/>
<path d="M12.5392 3.8154L12.6498 4.14732L12.9997 4.14998C13.045 4.15037 13.0638 4.20809 13.0274 4.23505L12.7459 4.44292L12.8515 4.77648C12.8652 4.81964 12.816 4.85543 12.7791 4.82904L12.4945 4.62559L12.2099 4.82904C12.173 4.85538 12.1239 4.81964 12.1375 4.77648L12.2431 4.44292L11.9616 4.23505C11.9252 4.20809 11.9439 4.15037 11.9892 4.14998L12.3391 4.14732L12.4498 3.8154C12.4641 3.77247 12.5248 3.77247 12.5392 3.8154Z" fill="#F5F5F5"/>
<path d="M12.5392 5.55129L12.6498 5.8832L12.9997 5.88586C13.045 5.88626 13.0638 5.94397 13.0274 5.97094L12.7459 6.17881L12.8515 6.51236C12.8652 6.55552 12.816 6.59132 12.7791 6.56492L12.4945 6.36147L12.2099 6.56492C12.173 6.59126 12.1239 6.55558 12.1375 6.51236L12.2431 6.17881L11.9616 5.97094C11.9252 5.94397 11.9439 5.88626 11.9892 5.88586L12.3391 5.8832L12.4498 5.55129C12.4641 5.5083 12.5248 5.5083 12.5392 5.55129Z" fill="#F5F5F5"/>
<path d="M12.5392 7.28761L12.6498 7.61953L12.9997 7.62219C13.045 7.62259 13.0638 7.68036 13.0274 7.70727L12.7459 7.91514L12.8515 8.2487C12.8652 8.29186 12.816 8.32765 12.7791 8.30126L12.4945 8.0978L12.2099 8.30126C12.173 8.3276 12.1239 8.29186 12.1375 8.2487L12.2431 7.91514L11.9616 7.70727C11.9252 7.68042 11.9439 7.62259 11.9892 7.62219L12.3391 7.61953L12.4498 7.28761C12.4641 7.24462 12.5248 7.24462 12.5392 7.28761Z" fill="#F5F5F5"/>
<path d="M12.5392 9.02439L12.6498 9.3563L12.9997 9.35896C13.045 9.35936 13.0638 9.41707 13.0274 9.44404L12.7459 9.65191L12.8515 9.98546C12.8652 10.0286 12.816 10.0644 12.7791 10.038L12.4945 9.83457L12.2099 10.038C12.173 10.0644 12.1239 10.0286 12.1375 9.98546L12.2431 9.65191L11.9616 9.44404C11.9252 9.41707 11.9439 9.35936 11.9892 9.35896L12.3391 9.3563L12.4498 9.02439C12.4641 8.98145 12.5248 8.98145 12.5392 9.02439Z" fill="#F5F5F5"/>
</svg>
