<svg width="40" height="40" viewBox="0 0 40 40" fill="none" xmlns="http://www.w3.org/2000/svg">
<path d="M20 40C31.0457 40 40 31.0457 40 20C40 8.9543 31.0457 0 20 0C8.9543 0 0 8.9543 0 20C0 31.0457 8.9543 40 20 40Z" fill="#D22215"/>
<path d="M30.0668 13.3076C29.467 13.4907 28.8416 13.6479 28.2153 13.8046C23.7708 14.7473 17.8449 12.1884 15.286 16.3635C13.1519 19.6833 12.478 23.8375 10.0503 26.8059L23.0177 39.7733C31.6482 38.4671 38.4687 31.6455 39.7737 23.0146L30.0668 13.3076Z" fill="#A81411"/>
<path d="M26.6914 11.9009H13.3088C10.6831 11.9009 8.55469 14.0294 8.55469 16.6549V23.345C8.55469 25.9706 10.6832 28.099 13.3088 28.099H26.6914C29.317 28.099 31.4455 25.9705 31.4455 23.345V16.6549C31.4455 14.0294 29.317 11.9009 26.6914 11.9009ZM23.4762 20.3254L17.2168 23.3107C17.0499 23.3903 16.8572 23.2689 16.8572 23.0841V16.9267C16.8572 16.7392 17.055 16.6178 17.222 16.7025L23.4814 19.8745C23.6678 19.9688 23.6645 20.2357 23.4762 20.3254Z" fill="white"/>
<path d="M26.6917 11.9009H19.8657V18.0419L23.4819 19.8743C23.6681 19.9687 23.6648 20.2356 23.4765 20.3253L19.8657 22.0475V28.099H26.6917C29.3174 28.099 31.4458 25.9705 31.4458 23.345V16.6549C31.4458 14.0294 29.3173 11.9009 26.6917 11.9009Z" fill="#D1D1D1"/>
</svg>
