<svg width="32" height="32" fill="none" xmlns="http://www.w3.org/2000/svg"><path d="M27.313 0H4.688A4.693 4.693 0 0 0 0 4.688v22.625A4.693 4.693 0 0 0 4.688 32h22.625A4.693 4.693 0 0 0 32 27.312V4.688A4.693 4.693 0 0 0 27.312 0zm-11.25 24.375c-4.653 0-8.438-3.785-8.438-8.438 0-4.652 3.785-8.437 8.438-8.437 4.652 0 8.437 3.785 8.437 8.438 0 4.652-3.785 8.437-8.438 8.437zm9.375-15a2.816 2.816 0 0 1-2.813-2.813 2.816 2.816 0 0 1 2.813-2.812 2.816 2.816 0 0 1 2.812 2.813 2.816 2.816 0 0 1-2.813 2.812z" fill="#121212"/><path d="M25.438 5.625a.938.938 0 1 0 0 1.876.938.938 0 0 0 0-1.876zm-9.375 3.75A6.57 6.57 0 0 0 9.5 15.938a6.57 6.57 0 0 0 6.563 6.562 6.57 6.57 0 0 0 6.562-6.563 6.57 6.57 0 0 0-6.563-6.562z" fill="#121212"/></svg>