<svg width="34" height="34" fill="none" xmlns="http://www.w3.org/2000/svg"><g clip-path="url(#clip0)"><path d="M34 25.5c0 .745-.21 1.436-.545 2.044L22.719 15.533l10.62-9.29C33.75 6.898 34 7.668 34 8.5v17zm-17-7.786L31.776 4.785a4.198 4.198 0 0 0-2.026-.535H4.25c-.737 0-1.42.204-2.024.535L17 17.714zm4.12-.782l-3.42 2.994a1.061 1.061 0 0 1-1.399 0l-3.421-2.994L2.009 29.096a4.199 4.199 0 0 0 2.24.654H29.75c.826 0 1.59-.245 2.241-.654L21.12 16.932zM.661 6.242A4.22 4.22 0 0 0 0 8.5v17a4.2 4.2 0 0 0 .546 2.044L11.28 15.531.662 6.242z" fill="#121212"/></g><defs><clipPath id="clip0"><path fill="#fff" d="M0 0h34v34H0z"/></clipPath></defs></svg>