<svg width="35" height="35" fill="none" xmlns="http://www.w3.org/2000/svg"><g clip-path="url(#clip0)"><path d="M33.178 20.918c.243-1.17.364-2.31.364-3.418 0-2.172-.42-4.25-1.264-6.232-.843-1.983-1.982-3.691-3.418-5.127-1.436-1.436-3.144-2.575-5.127-3.418a15.77 15.77 0 0 0-6.232-1.265 16.78 16.78 0 0 0-3.418.365C12.503.608 10.726 0 8.751 0 6.336 0 4.274.854 2.565 2.563.855 4.273 0 6.334 0 8.75c0 1.975.608 3.752 1.823 5.332a16.789 16.789 0 0 0-.365 3.418c0 2.172.422 4.25 1.265 6.232.843 1.982 1.982 3.691 3.418 5.127 1.435 1.436 3.144 2.575 5.127 3.418A15.764 15.764 0 0 0 17.5 33.54a16.79 16.79 0 0 0 3.418-.364C22.5 34.392 24.276 35 26.252 35c2.415 0 4.478-.855 6.186-2.563 1.71-1.71 2.564-3.772 2.564-6.187 0-1.975-.608-3.752-1.823-5.332zm-7.201 3.384a5.901 5.901 0 0 1-2.016 2.13c-.844.532-1.774.938-2.792 1.22-1.017.28-2.08.42-3.19.42-2.567 0-4.777-.497-6.63-1.492-1.854-.995-2.78-2.191-2.78-3.589 0-.683.193-1.252.58-1.709.388-.455.962-.683 1.721-.683.44 0 .85.122 1.23.364.38.243.73.536 1.049.878.319.342.664.684 1.036 1.026.372.342.866.634 1.481.877.616.243 1.31.365 2.085.365.988 0 1.785-.194 2.393-.58.608-.389.911-.879.911-1.47 0-.609-.242-1.064-.728-1.368-.334-.213-1.185-.487-2.552-.82l-3.327-.822c-.912-.212-1.694-.459-2.348-.74a7.728 7.728 0 0 1-1.823-1.105 4.315 4.315 0 0 1-1.275-1.72c-.289-.691-.433-1.5-.433-2.427 0-1.109.254-2.085.763-2.928a5.516 5.516 0 0 1 2.028-1.983c.843-.478 1.75-.835 2.723-1.07a12.728 12.728 0 0 1 3.008-.354c1.458 0 2.84.175 4.147.524 1.306.35 2.385.862 3.235 1.538.85.677 1.276 1.432 1.276 2.268 0 .683-.216 1.268-.65 1.754-.432.486-1.005.73-1.72.73-.395 0-.759-.092-1.093-.274a4.383 4.383 0 0 1-.912-.661 17.265 17.265 0 0 0-.866-.763c-.304-.25-.714-.467-1.23-.65-.517-.182-1.101-.273-1.755-.273-2.187 0-3.28.584-3.28 1.754 0 .258.056.486.17.684.114.197.24.357.376.478.136.122.364.243.684.365.319.122.585.21.797.262a74.5 74.5 0 0 0 1.003.24l2.37.546a25.77 25.77 0 0 1 1.993.524c.585.183 1.212.44 1.88.775.669.334 1.223.706 1.663 1.117.441.41.81.93 1.106 1.56.296.63.444 1.326.444 2.085 0 1.11-.25 2.108-.752 2.997z" fill="#121212"/></g><defs><clipPath id="clip0"><path fill="#fff" d="M0 0h35v35H0z"/></clipPath></defs></svg>