<svg width="38" height="38" fill="none" xmlns="http://www.w3.org/2000/svg"><g clip-path="url(#clip0)"><path d="M.671 18.322l8.756 3.268 3.39 10.9a1.03 1.03 0 0 0 1.636.492l4.881-3.978a1.456 1.456 0 0 1 1.775-.05l8.803 6.391c.606.44 1.465.109 1.617-.624l6.449-31.02c.166-.8-.62-1.467-1.382-1.172L.66 16.392c-.887.341-.88 1.597.01 1.93zm11.6 1.529L29.381 9.31c.308-.189.624.227.36.472L15.62 22.911a2.928 2.928 0 0 0-.908 1.752l-.48 3.565c-.064.476-.733.523-.864.062l-1.85-6.501a1.723 1.723 0 0 1 .752-1.938z" fill="#121212"/></g><defs><clipPath id="clip0"><path fill="#fff" d="M0 0h38v38H0z"/></clipPath></defs></svg>