<svg width="32" height="32" fill="none" xmlns="http://www.w3.org/2000/svg"><path d="M16 0C7.212 0 0 7.212 0 16c0 2.9.782 5.724 2.265 8.194L0 32l7.806-2.265A15.893 15.893 0 0 0 16 32c8.788 0 16-7.212 16-16S24.788 0 16 0zm10.003 22.76l-.744.745c-1.053 1.053-3.475.97-5.032.67-5.175-1-11.208-6.849-12.372-11.913-.576-2.509-.258-4.69.574-5.522l.745-.745c.41-.41 1.078-.41 1.488 0l2.978 2.979c.2.198.308.462.308.744s-.109.545-.308.743l-.744.745a2.11 2.11 0 0 0 0 2.979l4.918 4.853a2.104 2.104 0 0 0 2.978 0l.745-.744c.384-.387 1.102-.388 1.49 0l2.976 2.977c.405.403.42 1.07 0 1.49z" fill="#121212"/></svg>